{
.appVersion = "3337";
DisplayStrings = (
"/Oopen/Upsilonafrican/Vturned/Bsmall/Gsmall/Hsmall/Ismall/Lsmall/Nsmall/Rsmall/Ysmall/chi-latin/eopenreversed/ereversed/glottalstopreversed/glottalstopstrokereversed/kgreenlandic/obarred/obarred/wturned/Ii-cy/Ereversed-cy/Ia-cy/Fita-cy/Cheabkhasian-cy/Imacron-cy/Reversedze-cy/ve-cy/gedescender-cy/ghestroke-cy/ghemiddlehook-cy/zhe-cy/ze-cy/ka-cy/kje-cy/em-cy/en-cy/che-cy/dzhe-cy/softsign-cy/yeru-cy/hardsign-cy/lje-cy/nje-cy/e-cy/yu-cy/ia-cy/yusbig-cy/zhedescender-cy/kadescender-cy/kabashkir-cy/endescender-cy/enghe-cy/pedescender-cy/haabkhasian-cy/tedescender-cy/hadescender-cy/tetse-cy/chedescender-cy/cheverticalstroke-cy/cheabkhasian-cy/chedescenderabkhasian-cy/kahook-cy/enhook-cy/chedieresis-cy/hahook-cy/reversedze-cy/elhook-cy/el-cy.loclBGR/te-cy.loclSRB/Lambda/Phi/Pamphyliandigamma/kappa/lambda/heta/archaicsampi/pamphyliandigamma/koppaArchaic/stigma/kaiSymbol/san/raiseduparrowmod/zero.dnom/one.dnom/two.dnom/three.dnom/four.dnom/five.dnom/six.dnom/seven.dnom/eight.dnom/nine.dnom/zero.numr/one.numr/two.numr/three.numr/four.numr/five.numr/six.numr/seven.numr/eight.numr/nine.numr/zeroinferior/oneinferior/twoinferior/threeinferior/fourinferior/fiveinferior/sixinferior/seveninferior/eightinferior/nineinferior/zerosuperior ¹²³/foursuperior/fivesuperior/sixsuperior/sevensuperior/eightsuperior/ninesuperior $/rupee/won/dasia.case/tildeoverlaycomb/nottildeabovecomb/hungarumlaut/hungarumlaut/apostrophemod"
);
classes = (
{
automatic = 1;

glyphs = (
{
color = 6;
glyphname = A;
lastChange = "2025-01-02 18:15:15 +0000";
layers = (
{
anchors = (
{
name = bottom;
position = "{388, -129}";
},
{
name = bottomright;
position = "{695, 4}";
},
{
name = gram;
position = "{929, 355}";
},
{
name = greekcap;
position = "{377, 603}";
},
{
name = left;
position = "{138, 430}";
},
{
name = polyomicron;
position = "{386, 605}";
},
{
name = top;
position = "{676, 941}";
}
);
hints = (
{
horizontal = 1;
origin = "{0, 7}";
type = Anchor;
options = 4;
},
{
horizontal = 1;
origin = "{0, 1}";
target = "{1, 2}";
type = TTStem;
options = 4;
},
{
horizontal = 1;
origin = "{1, 0}";
target = "{0, 6}";
type = TTStem;
options = 4;
}
);
layerId = "BA196CD0-EE58-4274-B8DF-4393D3617A29";
paths = (
{
closed = 1;
nodes = (
"196 -1 LINE",
"275 135 LINE",
"646 135 LINE",
"642 -1 LINE",
"801 -1 LINE",
"704 849 LINE",
"597 849 LINE",
"45 -1 LINE"
);
},
{
closed = 1;
nodes = (
"613 711 LINE",
"646 266 LINE",
"343 266 LINE"
);
}
);
userData = {
com.hugojourdan.ColorFlow = {
"0" = 0;
"1" = 0;
"10" = 0;
"11" = 0;
"2" = 0;
"3" = 0;
"4" = 0;
"5" = 0;
"6" = 0;
"7" = 0;
"8" = 0;
"9" = 0;
};
};
width = 996;
},
{
anchors = (
{
name = bottom;
position = "{469, -50}";
},
{
name = bottomright;
position = "{785, 39}";
},
{
name = dotbelow;
position = "{471, -76}";
},
{
name = dotbelowcomb;
position = "{517, 109}";
},
{
name = gram;
position = "{997, 393}";
},
{
name = greekcap;
position = "{451, 656}";
},
{
name = left;
position = "{278, 430}";
},
{
name = polyomicron;
position = "{450, 653}";
},
{
name = top;
position = "{734, 928}";
}
);
layerId = "BBDB329E-CE83-4304-A6B1-53EA5ACC004E";
paths = (
{
closed = 1;
nodes = (
"285 -2 LINE",
"360 128 LINE",
"673 128 LINE",
"669 -2 LINE",
"888 -2 LINE",
"781 850 LINE",
"640 850 LINE",
"74 -2 LINE"
);
},
{
closed = 1;
nodes = (
"657 656 LINE",
"673 313 LINE",
"461 313 LINE"
);
}
);
userData = {
com.hugojourdan.ColorFlow = {
"0" = 0;
"1" = 0;
"10" = 0;
"11" = 0;
"2" = 0;
"3" = 0;
"4" = 0;
"5" = 0;
"6" = 0;
"7" = 0;
"8" = 0;
"9" = 0;
};
};
width = 1114;
}
);
unicode = 0041;
},
{
glyphname = "Alpha-latin";
lastChange = "2025-01-01 22:37:30 +0000";
layers = (
{
anchors = (
{
name = bottom;
position = "{403, 0}";
},
{
name = ogonek;
position = "{572, 29}";
},
{
name = top;
position = "{547, 577}";
}
);
hints = (
{
horizontal = 1;
origin = "{0, 24}";
target = "{1, 11}";
type = TTStem;
options = 4;
},
{
horizontal = 1;
origin = "{1, 5}";
target = "{0, 15}";
type = TTStem;
options = 4;
},
{
horizontal = 1;
origin = "{0, 3}";
type = Anchor;
options = 4;
}
);
layerId = "BA196CD0-EE58-4274-B8DF-4393D3617A29";
paths = (
{
closed = 1;
nodes = (
"453 -8 OFFCURVE",
"529 12 OFFCURVE",
"584 77 CURVE",
"561 0 LINE",
"668 -6 LINE",
"688 69 OFFCURVE",
"664 54 OFFCURVE",
"736 323 CURVE SMOOTH",
"810 599 OFFCURVE",
"841 594 OFFCURVE",
"861 667 CURVE",
"767 673 LINE",
"720 598 LINE",
"675 659 OFFCURVE",
"642 688 OFFCURVE",
"558 675 CURVE SMOOTH",
"410 652 OFFCURVE",
"302 547 OFFCURVE",
"214 392 CURVE SMOOTH",
"174 323 OFFCURVE",
"151 267 OFFCURVE",
"139 220 CURVE SMOOTH",
"85 19 OFFCURVE",
"242 -24 OFFCURVE",
"372 -14 CURVE SMOOTH"
);
},
{
closed = 1;
nodes = (
"280 148 OFFCURVE",
"237 206 OFFCURVE",
"250 276 CURVE SMOOTH",
"270 389 OFFCURVE",
"470 617 OFFCURVE",
"581 604 CURVE SMOOTH",
"683 592 OFFCURVE",
"670 411 OFFCURVE",
"625 304 CURVE SMOOTH",
"580 196 OFFCURVE",
"486 152 OFFCURVE",
"395 150 CURVE SMOOTH"
);
}
);
userData = {
com.hugojourdan.ColorFlow = {
"0" = 0;
"1" = 0;
"10" = 0;
"11" = 0;
"2" = 0;
"3" = 0;
"4" = 0;
"5" = 0;
"6" = 0;
"7" = 0;
"8" = 0;
"9" = 0;
};
};
width = 762;
},
{
anchors = (
{
name = bottom;
position = "{430, 0}";
},
{
name = ogonek;
position = "{599, 29}";
},
{
name = top;
position = "{574, 577}";
}
);
layerId = "BBDB329E-CE83-4304-A6B1-53EA5ACC004E";
paths = (
{
closed = 1;
nodes = (
"458 -41 OFFCURVE",
"517 -29 OFFCURVE",
"568 5 CURVE",
"554 -27 LINE",
"713 -36 LINE",
"742 45 OFFCURVE",
"726 86 OFFCURVE",
"789 320 CURVE SMOOTH",
"862 593 OFFCURVE",
"903 596 OFFCURVE",
"919 691 CURVE",
"783 700 LINE",
"745 643 LINE",
"708 682 OFFCURVE",
"671 704 OFFCURVE",
"623 704 CURVE SMOOTH",
"611 704 OFFCURVE",
"599 704 OFFCURVE",
"586 702 CURVE SMOOTH",
"461 684 OFFCURVE",
"307 560 OFFCURVE",
"217 404 CURVE SMOOTH",
"178 336 OFFCURVE",
"154 275 OFFCURVE",
"140 223 CURVE SMOOTH",
"94 52 OFFCURVE",
"184 -41 OFFCURVE",
"394 -41 CURVE SMOOTH"
);
},
{
closed = 1;
nodes = (
"317 165 OFFCURVE",
"266 209 OFFCURVE",
"287 287 CURVE SMOOTH",
"291 302 OFFCURVE",
"301 319 OFFCURVE",
"310 335 CURVE SMOOTH",
"372 442 OFFCURVE",
"514 573 OFFCURVE",
"576 582 CURVE",
"584 583 OFFCURVE",
"594 586 OFFCURVE",
"606 586 CURVE SMOOTH",
"678 586 OFFCURVE",
"693 534 OFFCURVE",
"659 405 CURVE SMOOTH",
"651 377 OFFCURVE",
"640 345 OFFCURVE",
"626 311 CURVE SMOOTH",
"577 180 OFFCURVE",
"568 165 OFFCURVE",
"423 165 CURVE SMOOTH"
);
}
);
userData = {
com.hugojourdan.ColorFlow = {
"0" = 0;
"1" = 0;
"10" = 0;
"11" = 0;
"2" = 0;
"3" = 0;
"4" = 0;
"5" = 0;
"6" = 0;
"7" = 0;
"8" = 0;
"9" = 0;
};
};
width = 736;
}
);
unicode = 2C6D;
},
{
color = 6;
glyphname = B;
lastChange = "2025-01-02 18:15:15 +0000";
layers = (
{
anchors = (
{
name = bottom;
position = "{327, -52}";
},
{
name = stroke;
position = "{176, 233}";
},
{
name = top;
position = "{584, 898}";
},
{
name = top_hook;
position = "{76, 589}";
}
);
hints = (
{
horizontal = 1;
origin = "{0, 14}";
target = "{1, 11}";
type = TTStem;
options = 4;
},
{
horizontal = 1;
origin = "{1, 0}";
target = "{2, 8}";
type = TTStem;
options = 4;
},
{
horizontal = 1;
origin = "{2, 0}";
target = "{0, 13}";
type = TTStem;
options = 4;
}
);
layerId = "BA196CD0-EE58-4274-B8DF-4393D3617A29";
paths = (
{
closed = 1;
nodes = (
"346 0 LINE SMOOTH",
"531 0 OFFCURVE",
"643 28 OFFCURVE",
"701 225 CURVE SMOOTH",
"750 392 OFFCURVE",
"706 466 OFFCURVE",
"567 489 CURVE",
"658 502 OFFCURVE",
"721 551 OFFCURVE",
"742 649 CURVE SMOOTH",
"767 768 OFFCURVE",
"694 847 OFFCURVE",
"524 847 CURVE SMOOTH",
"272 847 LINE",
"45 0 LINE"
);
},
{
closed = 1;
nodes = (
"275 440 LINE",
"458 440 LINE SMOOTH",
"538 440 OFFCURVE",
"571 422 OFFCURVE",
"580 407 CURVE SMOOTH",
"601 377 OFFCURVE",
"615 368 OFFCURVE",
"600 310 CURVE SMOOTH",
"573 211 OFFCURVE",
"494 164 OFFCURVE",
"374 164 CURVE SMOOTH",
"201 164 LINE"
);
},
{
closed = 1;
nodes = (
"361 762 LINE",
"531 762 LINE SMOOTH",
"639 762 OFFCURVE",
"665 721 OFFCURVE",
"646 649 CURVE SMOOTH",
"627 579 OFFCURVE",
"570 541 OFFCURVE",
"462 541 CURVE SMOOTH",
"302 541 LINE"
);
}
);
userData = {
com.hugojourdan.ColorFlow = {
"0" = 0;
"1" = 0;
"10" = 0;
"11" = 0;
"2" = 0;
"3" = 0;
"4" = 0;
"5" = 0;
"6" = 0;
"7" = 0;
"8" = 0;
"9" = 0;
};
};
width = 836;
},
{
anchors = (
{
name = bottom;
position = "{392, 0}";
},
{
name = stroke;
position = "{232, 233}";
},
{
name = top;
position = "{646, 976}";
},
{
name = top_hook;
position = "{112, 560}";
}
);
layerId = "BBDB329E-CE83-4304-A6B1-53EA5ACC004E";
paths = (
{
closed = 1;
nodes = (
"397 -2 LINE SMOOTH",
"576 -2 OFFCURVE",
"719 19 OFFCURVE",
"773 242 CURVE SMOOTH",
"802 361 OFFCURVE",
"765 421 OFFCURVE",
"682 459 CURVE",
"750 491 OFFCURVE",
"784 544 OFFCURVE",
"804 618 CURVE SMOOTH",
"842 761 OFFCURVE",
"753 852 OFFCURVE",
"574 852 CURVE SMOOTH",
"303 852 LINE",
"74 -2 LINE"
);
},
{
closed = 1;
nodes = (
"343 378 LINE",
"493 378 LINE SMOOTH",
"547 378 OFFCURVE",
"576 372 OFFCURVE",
"595 356 CURVE SMOOTH",
"620 335 OFFCURVE",
"614 315 OFFCURVE",
"611 304 CURVE SMOOTH",
"594 238 OFFCURVE",
"552 216 OFFCURVE",
"434 216 CURVE SMOOTH",
"300 216 LINE"
);
},
{
closed = 1;
nodes = (
"435 722 LINE",
"572 722 LINE SMOOTH",
"655 722 OFFCURVE",
"684 693 OFFCURVE",
"665 624 CURVE SMOOTH",
"649 562 OFFCURVE",
"594 524 OFFCURVE",
"504 524 CURVE SMOOTH",
"382 524 LINE"
);
}
);
userData = {
com.hugojourdan.ColorFlow = {
"0" = 0;
"1" = 0;
"10" = 0;
"11" = 0;
"2" = 0;
"3" = 0;
"4" = 0;
"5" = 0;
"6" = 0;
"7" = 0;
"8" = 0;
"9" = 0;
};
};
width = 933;
}
);
unicode = 0042;
},
{
color = 6;
glyphname = C;
lastChange = "2025-01-02 18:15:15 +0000";
layers = (
{
anchors = (
{
name = bottom;
position = "{438, -24}";
},
{
name = center;
position = "{570, 476}";
},
{
name = top;
position = "{641, 997}";
},
{
name = top_hook;
position = "{857, 813}";
},
{
name = topleft;
position = "{285, 844}";
}
);
hints = (
{
horizontal = 1;
origin = "{0, 8}";
target = "{0, 15}";
type = TTStem;
options = 4;
},
{
horizontal = 1;
origin = "{0, 21}";
target = "{0, 2}";
type = TTStem;
options = 4;
}
);
layerId = "BA196CD0-EE58-4274-B8DF-4393D3617A29";
paths = (
{
closed = 1;
nodes = (
"811 841 OFFCURVE",
"784 861 OFFCURVE",
"682 848 CURVE SMOOTH",
"396 814 OFFCURVE",
"250 622 OFFCURVE",
"185 479 CURVE SMOOTH",
"67 223 OFFCURVE",
"114 9 OFFCURVE",
"323 -12 CURVE SMOOTH",
"416 -21 OFFCURVE",
"603 -9 OFFCURVE",
"671 10 CURVE",
"724 248 LINE",
"664 231 OFFCURVE",
"624 207 OFFCURVE",
"527 203 CURVE SMOOTH",
"338 196 OFFCURVE",
"229 280 OFFCURVE",
"314 469 CURVE SMOOTH",
"381 617 OFFCURVE",
"549 733 OFFCURVE",
"669 741 CURVE SMOOTH",
"718 744 OFFCURVE",
"789 734 OFFCURVE",
"850 723 CURVE",
"886 829 LINE"
);
}
);
userData = {
com.hugojourdan.ColorFlow = {
"0" = 0;
"1" = 0;
"10" = 0;
"11" = 0;
"2" = 0;
"3" = 0;
"4" = 0;
"5" = 0;
"6" = 0;
"7" = 0;
"8" = 0;
"9" = 0;
};
};
width = 863;
},
{
anchors = (
{
name = bottom;
position = "{457, -59}";
},
{
name = center;
position = "{661, 436}";
},
{
name = top;
position = "{701, 943}";
},
{
name = top_hook;
position = "{902, 804}";
},
{
name = topleft;
position = "{392, 759}";
}
);
layerId = "BBDB329E-CE83-4304-A6B1-53EA5ACC004E";
paths = (
{
closed = 1;
nodes = (
"872 853 OFFCURVE",
"773 861 OFFCURVE",
"712 858 CURVE SMOOTH",
"529 849 OFFCURVE",
"323 739 OFFCURVE",
"202 453 CURVE SMOOTH",
"99 208 OFFCURVE",
"196 -2 OFFCURVE",
"364 -2 CURVE SMOOTH",
"366 -2 OFFCURVE",
"491 -1 OFFCURVE",
"732 -2 CURVE",
"786 290 LINE",
"706 254 OFFCURVE",
"624 243 OFFCURVE",
"563 243 CURVE SMOOTH",
"383 243 OFFCURVE",
"361 306 OFFCURVE",
"408 443 CURVE SMOOTH",
"448 558 OFFCURVE",
"535 652 OFFCURVE",
"680 668 CURVE SMOOTH",
"751 676 OFFCURVE",
"803 670 OFFCURVE",
"889 650 CURVE",
"960 837 LINE"
);
}
);
userData = {
com.hugojourdan.ColorFlow = {
"0" = 0;
"1" = 0;
"10" = 0;
"11" = 0;
"2" = 0;
"3" = 0;
"4" = 0;
"5" = 0;
"6" = 0;
"7" = 0;
"8" = 0;
"9" = 0;
};
};
width = 961;
}
);
unicode = 0043;
},
{
color = 6;
glyphname = D;
lastChange = "2025-01-02 18:15:15 +0000";
layers = (
{
anchors = (
{
name = bottom;
position = "{335, -56}";
},
{
name = center;
position = "{245, 423}";
},
{
name = dash;
position = "{296, 427}";
},
{
name = hook_top;
position = "{75, 667}";
},
{
name = top;
position = "{597, 915}";
}
);
hints = (
{
horizontal = 1;
origin = "{0, 8}";
target = "{1, 8}";
type = TTStem;
options = 4;
},
{
horizontal = 1;
origin = "{1, 0}";
target = "{0, 7}";
type = TTStem;
options = 4;
}
);
layerId = "BA196CD0-EE58-4274-B8DF-4393D3617A29";
paths = (
{
closed = 1;
nodes = (
"280 0 LINE SMOOTH",
"519 0 OFFCURVE",
"813 61 OFFCURVE",
"858 415 CURVE SMOOTH",
"886 623 OFFCURVE",
"817 849 OFFCURVE",
"498 849 CURVE SMOOTH",
"272 849 LINE",
"45 0 LINE"
);
},
{
closed = 1;
nodes = (
"354 714 LINE",
"493 714 LINE SMOOTH",
"720 714 OFFCURVE",
"739 576 OFFCURVE",
"723 449 CURVE SMOOTH",
"705 300 OFFCURVE",
"635 215 OFFCURVE",
"350 215 CURVE SMOOTH",
"221 215 LINE"
);
}
);
userData = {
com.hugojourdan.ColorFlow = {
"0" = 0;
"1" = 0;
"10" = 0;
"11" = 0;
"2" = 0;
"3" = 0;
"4" = 0;
"5" = 0;
"6" = 0;
"7" = 0;
"8" = 0;
"9" = 0;
};
};
width = 948;
},
{
anchors = (
{
name = bottom;
position = "{419, -75}";
},
{
name = center;
position = "{277, 396}";
},
{
name = dash;
position = "{295, 395}";
},
{
name = hook_top;
position = "{164, 569}";
},
{
name = top;
position = "{647, 912}";
}
);
layerId = "BBDB329E-CE83-4304-A6B1-53EA5ACC004E";
paths = (
{
closed = 1;
nodes = (
"333 -1 LINE SMOOTH",
"640 -1 OFFCURVE",
"807 20 OFFCURVE",
"914 419 CURVE SMOOTH",
"992 709 OFFCURVE",
"869 850 OFFCURVE",
"546 850 CURVE SMOOTH",
"303 850 LINE",
"75 -1 LINE"
);
},
{
closed = 1;
nodes = (
"437 680 LINE",
"542 680 LINE SMOOTH",
"742 680 OFFCURVE",
"810 606 OFFCURVE",
"766 439 CURVE SMOOTH",
"730 306 OFFCURVE",
"626 245 OFFCURVE",
"410 245 CURVE SMOOTH",
"321 245 LINE"
);
}
);
userData = {
com.hugojourdan.ColorFlow = {
"0" = 0;
"1" = 0;
"10" = 0;
"11" = 0;
"2" = 0;
"3" = 0;
"4" = 0;
"5" = 0;
"6" = 0;
"7" = 0;
"8" = 0;
"9" = 0;
};
};
width = 1027;
}
);
unicode = 0044;
},
{
color = 6;
glyphname = E;
lastChange = "2025-01-02 18:15:15 +0000";
layers = (
{
anchors = (
{
name = bottom;
position = "{318, -44}";
},
{
name = ogonek;
position = "{344, 10}";
},
{
name = top;
position = "{577, 924}";
},
{
name = topleft;
position = "{194, 791}";
}
);
hints = (
{
horizontal = 1;
origin = "{0, 11}";
target = "{0, 2}";
type = TTStem;
options = 4;
},
{
horizontal = 1;
place = "{689, 68.5}";
type = TTStem;
options = 4;
}
);
layerId = "BA196CD0-EE58-4274-B8DF-4393D3617A29";
paths = (
{
closed = 1;
nodes = (
"590 0 LINE",
"599 171 LINE",
"223 171 LINE",
"277 374 LINE",
"559 392 LINE",
"590 508 LINE",
"310 496 LINE",
"370 720 LINE",
"749 741 LINE",
"800 847 LINE",
"295 832 LINE",
"45 0 LINE"
);
}
);
userData = {
com.hugojourdan.ColorFlow = {
"0" = 0;
"1" = 0;
"10" = 0;
"11" = 0;
"2" = 0;
"3" = 0;
"4" = 0;
"5" = 0;
"6" = 0;
"7" = 0;
"8" = 0;
"9" = 0;
};
};
width = 785;
},
{
anchors = (
{
name = bottom;
position = "{340, -151}";
},
{
name = ogonek;
position = "{394, 44}";
},
{
name = top;
position = "{631, 969}";
},
{
name = topleft;
position = "{198, 765}";
}
);
layerId = "BBDB329E-CE83-4304-A6B1-53EA5ACC004E";
paths = (
{
closed = 1;
nodes = (
"670 0 LINE",
"679 222 LINE",
"322 222 LINE",
"360 362 LINE",
"632 379 LINE",
"671 528 LINE",
"401 516 LINE",
"449 696 LINE",
"808 715 LINE",
"884 854 LINE",
"328 836 LINE",
"75 0 LINE"
);
}
);
userData = {
com.hugojourdan.ColorFlow = {
"0" = 0;
"1" = 0;
"10" = 0;
"11" = 0;
"2" = 0;
"3" = 0;
"4" = 0;
"5" = 0;
"6" = 0;
"7" = 0;
"8" = 0;
"9" = 0;
};
};
width = 895;
}
);
unicode = 0045;
},
{
color = 6;
glyphname = F;
lastChange = "2025-01-02 18:15:15 +0000";
layers = (
{
anchors = (
{
name = bottom;
position = "{284, 0}";
},
{
name = bottom_hook;
position = "{81, -29}";
},
{
name = top;
position = "{531, 922}";
},
{
name = topleft;
position = "{233, 763}";
}
);
hints = (
{
horizontal = 1;
origin = "{0, 9}";
type = Anchor;
options = 4;
},
{
horizontal = 1;
place = "{366, 102}";
type = TTStem;
options = 4;
},
{
horizontal = 1;
place = "{702, 68.5}";
type = TTStem;
options = 4;
}
);
layerId = "BA196CD0-EE58-4274-B8DF-4393D3617A29";
paths = (
{
closed = 1;
nodes = (
"199 0 LINE",
"306 422 LINE",
"588 435 LINE",
"619 551 LINE",
"336 551 LINE",
"405 744 LINE",
"726 763 LINE",
"749 847 LINE",
"312 834 LINE",
"45 0 LINE"
);
}
);
userData = {
com.hugojourdan.ColorFlow = {
"0" = 0;
"1" = 0;
"10" = 0;
"11" = 0;
"2" = 0;
"3" = 0;
"4" = 0;
"5" = 0;
"6" = 0;
"7" = 0;
"8" = 0;
"9" = 0;
};
};
width = 717;
},
{
anchors = (
{
name = bottom;
position = "{339, 2}";
},
{
name = bottom_hook;
position = "{178, -39}";
},
{
name = top;
position = "{571, 932}";
},
{
name = topleft;
position = "{287, 792}";
}
);
layerId = "BBDB329E-CE83-4304-A6B1-53EA5ACC004E";
paths = (
{
closed = 1;
nodes = (
"280 0 LINE",
"369 400 LINE",
"654 400 LINE",
"700 570 LINE",
"413 571 LINE",
"467 704 LINE",
"792 724 LINE",
"828 857 LINE",
"346 841 LINE",
"75 0 LINE"
);
}
);
userData = {
com.hugojourdan.ColorFlow = {
"0" = 0;
"1" = 0;
"10" = 0;
"11" = 0;
"2" = 0;
"3" = 0;
"4" = 0;
"5" = 0;
"6" = 0;
"7" = 0;
"8" = 0;
"9" = 0;
};
};
width = 823;
}
);
unicode = 0046;
},
{
color = 6;
glyphname = G;
lastChange = "2025-01-02 18:15:15 +0000";
layers = (
{
anchors = (
{
name = bottom;
position = "{433, -90}";
},
{
name = center;
position = "{567, 403}";
},
{
name = stroke;
position = "{229, 398}";
},
{
name = top;
position = "{694, 919}";
},
{
name = top_hook;
position = "{871, 838}";
}
);
hints = (
{
horizontal = 1;
origin = "{0, 31}";
target = "{0, 12}";
type = TTStem;
options = 4;
},
{
horizontal = 1;
origin = "{0, 18}";
target = "{0, 25}";
type = TTStem;
options = 4;
}
);
layerId = "BA196CD0-EE58-4274-B8DF-4393D3617A29";
paths = (
{
closed = 1;
nodes = (
"540 -14 OFFCURVE",
"658 -6 OFFCURVE",
"768 55 CURVE",
"815 292 LINE",
"888 279 LINE",
"898 387 LINE",
"588 423 LINE",
"581 335 LINE",
"724 309 LINE",
"692 211 LINE",
"658 183 OFFCURVE",
"585 168 OFFCURVE",
"506 168 CURVE SMOOTH",
"305 168 OFFCURVE",
"242 204 OFFCURVE",
"299 418 CURVE SMOOTH",
"367 672 OFFCURVE",
"471 752 OFFCURVE",
"674 758 CURVE SMOOTH",
"730 759 OFFCURVE",
"851 761 OFFCURVE",
"894 727 CURVE",
"898 818 LINE",
"877 842 OFFCURVE",
"789 854 OFFCURVE",
"680 849 CURVE SMOOTH",
"439 838 OFFCURVE",
"246 807 OFFCURVE",
"158 419 CURVE SMOOTH",
"94 139 OFFCURVE",
"110 -14 OFFCURVE",
"458 -14 CURVE SMOOTH"
);
}
);
userData = {
com.hugojourdan.ColorFlow = {
"0" = 0;
"1" = 0;
"10" = 0;
"11" = 0;
"2" = 0;
"3" = 0;
"4" = 0;
"5" = 0;
"6" = 0;
"7" = 0;
"8" = 0;
"9" = 0;
};
};
width = 1008;
},
{
anchors = (
{
name = bottom;
position = "{467, -91}";
},
{
name = center;
position = "{628, 467}";
},
{
name = stroke;
position = "{302, 403}";
},
{
name = top;
position = "{801, 1032}";
},
{
name = top_hook;
position = "{919, 764}";
}
);
layerId = "BBDB329E-CE83-4304-A6B1-53EA5ACC004E";
paths = (
{
closed = 1;
nodes = (
"696 204 OFFCURVE",
"646 190 OFFCURVE",
"579 190 CURVE SMOOTH",
"387 190 OFFCURVE",
"343 235 OFFCURVE",
"381 403 CURVE",
"441 626 OFFCURVE",
"549 698 OFFCURVE",
"730 698 CURVE SMOOTH",
"820 698 OFFCURVE",
"913 689 OFFCURVE",
"977 669 CURVE",
"988 842 LINE",
"939 845 OFFCURVE",
"823 863 OFFCURVE",
"751 863 CURVE SMOOTH",
"391 863 OFFCURVE",
"262 699 OFFCURVE",
"187 419 CURVE SMOOTH",
"105 112 OFFCURVE",
"237 -19 OFFCURVE",
"503 -19 CURVE",
"648 -19 OFFCURVE",
"808 19 OFFCURVE",
"860 59 CURVE",
"903 265 LINE",
"977 255 LINE",
"987 410 LINE",
"636 454 LINE",
"617 307 LINE",
"756 287 LINE",
"726 220 LINE"
);
}
);
userData = {
com.hugojourdan.ColorFlow = {
"0" = 0;
"1" = 0;
"10" = 0;
"11" = 0;
"2" = 0;
"3" = 0;
"4" = 0;
"5" = 0;
"6" = 0;
"7" = 0;
"8" = 0;
"9" = 0;
};
};
width = 1134;
}
);
unicode = 0047;
},
{
color = 6;
glyphname = H;
lastChange = "2025-01-02 18:15:15 +0000";
layers = (
{
anchors = (
{
name = bottom;
position = "{391, 0}";
},
{
name = bottomleft;
position = "{143, 43}";
},
{
name = caccent;
position = "{809, 173}";
},
{
name = center;
position = "{523, 526}";
},
{
name = eng;
position = "{697, 31}";
},
{
name = gram;
position = "{909, 322}";
},
{
name = greek_top;
position = "{206, 737}";
},
{
name = mark;
position = "{1038, 771}";
},
{
name = top;
position = "{524, 915}";
},
{
name = top_hook;
position = "{80, 588}";
},
{
name = topleft;
position = "{198, 803}";
},
{
name = topright;
position = "{827, 797}";
}
);
hints = (
{
horizontal = 1;
origin = "{1, 3}";
type = Anchor;
options = 4;
},
{
horizontal = 1;
origin = "{2, 3}";
target = "{2, 2}";
type = TTStem;
options = 4;
}
);
layerId = "BA196CD0-EE58-4274-B8DF-4393D3617A29";
paths = (
{
closed = 1;
nodes = (
"736 0 LINE",
"928 847 LINE",
"810 847 LINE",
"556 0 LINE"
);
},
{
closed = 1;
nodes = (
"217 0 LINE",
"412 847 LINE",
"295 847 LINE",
"45 0 LINE"
);
},
{
closed = 1;
nodes = (
"662 211 LINE",
"720 399 LINE",
"266 399 LINE",
"216 211 LINE"
);
}
);
userData = {
com.hugojourdan.ColorFlow = {
"0" = 0;
"1" = 0;
"10" = 0;
"11" = 0;
"2" = 0;
"3" = 0;
"4" = 0;
"5" = 0;
"6" = 0;
"7" = 0;
"8" = 0;
"9" = 0;
};
};
width = 931;
},
{
anchors = (
{
name = bottom;
position = "{417, -137}";
},
{
name = bottomleft;
position = "{201, 43}";
},
{
name = caccent;
position = "{843, 167}";
},
{
name = center;
position = "{584, 551}";
},
{
name = eng;
position = "{761, 57}";
},
{
name = gram;
position = "{963, 394}";
},
{
name = greek_top;
position = "{259, 713}";
},
{
name = mark;
position = "{1062, 743}";
},
{
name = top;
position = "{692, 925}";
},
{
name = top_hook;
position = "{136, 557}";
},
{
name = topleft;
position = "{250, 763}";
},
{
name = topright;
position = "{855, 792}";
}
);
layerId = "BBDB329E-CE83-4304-A6B1-53EA5ACC004E";
paths = (
{
closed = 1;
nodes = (
"75 0 LINE",
"302 0 LINE",
"497 850 LINE",
"327 850 LINE"
);
},
{
closed = 1;
nodes = (
"568 0 LINE",
"802 0 LINE",
"994 850 LINE",
"824 850 LINE"
);
},
{
closed = 1;
nodes = (
"233 174 LINE",
"720 174 LINE",
"788 391 LINE",
"291 391 LINE"
);
}
);
userData = {
com.hugojourdan.ColorFlow = {
"0" = 0;
"1" = 0;
"10" = 0;
"11" = 0;
"2" = 0;
"3" = 0;
"4" = 0;
"5" = 0;
"6" = 0;
"7" = 0;
"8" = 0;
"9" = 0;
};
};
width = 1027;
}
);
unicode = 0048;
},
{
color = 6;
glyphname = I;
lastChange = "2025-01-02 18:15:15 +0000";
layers = (
{
anchors = (
{
name = bottom;
position = "{114, -63}";
},
{
name = center;
position = "{269, 452}";
},
{
name = ogonek;
position = "{125, 22}";
},
{
name = right;
position = "{572, 397}";
},
{
name = top;
position = "{383, 989}";
},
{
name = topleft;
position = "{206, 830}";
}
);
hints = (
{
horizontal = 1;
origin = "{0, 7}";
type = Anchor;
options = 4;
}
);
layerId = "BA196CD0-EE58-4274-B8DF-4393D3617A29";
paths = (
{
closed = 1;
nodes = (
"222 -6 LINE",
"267 269 OFFCURVE",
"337 574 OFFCURVE",
"421 841 CURVE",
"281 853 LINE",
"263 744 OFFCURVE",
"170 336 OFFCURVE",
"47 6 CURVE"
);
}
);
userData = {
com.hugojourdan.ColorFlow = {
"0" = 0;
"1" = 0;
"10" = 0;
"11" = 0;
"2" = 0;
"3" = 0;
"4" = 0;
"5" = 0;
"6" = 0;
"7" = 0;
"8" = 0;
"9" = 0;
};
};
width = 419;
},
{
anchors = (
{
name = bottom;
position = "{138, -182}";
},
{
name = center;
position = "{307, 444}";
},
{
name = ogonek;
position = "{216, 44}";
},
{
name = right;
position = "{457, 273}";
},
{
name = top;
position = "{447, 1007}";
},
{
name = topleft;
position = "{182, 763}";
}
);
layerId = "BBDB329E-CE83-4304-A6B1-53EA5ACC004E";
paths = (
{
closed = 1;
nodes = (
"290 -9 LINE",
"336 285 OFFCURVE",
"403 573 OFFCURVE",
"488 841 CURVE",
"311 859 LINE",
"289 717 OFFCURVE",
"201 332 OFFCURVE",
"77 9 CURVE"
);
}
);
userData = {
com.hugojourdan.ColorFlow = {
"0" = 0;
"1" = 0;
"10" = 0;
"11" = 0;
"2" = 0;
"3" = 0;
"4" = 0;
"5" = 0;
"6" = 0;
"7" = 0;
"8" = 0;
"9" = 0;
};
};
width = 517;
}
);
unicode = 0049;
},
{
color = 6;
glyphname = J;
lastChange = "2025-01-02 18:15:15 +0000";
layers = (
{
anchors = (
{
name = _rightl;
position = "{180, 560}";
},
{
name = bottom;
position = "{234, 27}";
},
{
name = top;
position = "{502, 851}";
}
);
hints = (
{
horizontal = 1;
origin = "{0, 10}";
type = Anchor;
options = 4;
}
);
layerId = "BA196CD0-EE58-4274-B8DF-4393D3617A29";
paths = (
{
closed = 1;
nodes = (
"257 -209 OFFCURVE",
"340 -116 OFFCURVE",
"403 82 CURVE SMOOTH",
"654 875 LINE",
"512 875 LINE",
"279 101 LINE SMOOTH",
"261 41 OFFCURVE",
"186 -58 OFFCURVE",
"96 -36 CURVE SMOOTH",
"47 -22 LINE",
"-10 -204 LINE",
"68 -211 LINE"
);
}
);
userData = {
com.hugojourdan.ColorFlow = {
"0" = 0;
"1" = 0;
"10" = 0;
"11" = 0;
"2" = 0;
"3" = 0;
"4" = 0;
"5" = 0;
"6" = 0;
"7" = 0;
"8" = 0;
"9" = 0;
};
};
width = 615;
},
{
anchors = (
{
name = _right;
position = "{300, 346}";
},
{
name = bottom;
position = "{411, 18}";
},
{
name = top;
position = "{710, 908}";
}
);
layerId = "BBDB329E-CE83-4304-A6B1-53EA5ACC004E";
paths = (
{
closed = 1;
nodes = (
"385 -17 OFFCURVE",
"269 1 OFFCURVE",
"222 13 CURVE SMOOTH",
"126 43 LINE",
"28 -177 LINE",
"218 -199 LINE SMOOTH",
"375 -218 OFFCURVE",
"507 -166 OFFCURVE",
"585 41 CURVE SMOOTH",
"886 850 LINE",
"701 850 LINE",
"435 121 LINE SMOOTH"
);
}
);
userData = {
com.hugojourdan.ColorFlow = {
"0" = 0;
"1" = 0;
"10" = 0;
"11" = 0;
"2" = 0;
"3" = 0;
"4" = 0;
"5" = 0;
"6" = 0;
"7" = 0;
"8" = 0;
"9" = 0;
};
};
width = 883;
}
);
unicode = 004A;
},
{
color = 6;
glyphname = K;
lastChange = "2025-01-02 18:15:15 +0000";
layers = (
{
anchors = (
{
name = bottom;
position = "{291, 14}";
},
{
name = kabashkir;
position = "{391, 793}";
},
{
name = top;
position = "{559, 858}";
},
{
name = top_hook;
position = "{801, 617}";
},
{
name = topleft;
position = "{416, 901}";
}
);
hints = (
{
horizontal = 1;
origin = "{0, 10}";
type = Anchor;
options = 4;
}
);
layerId = "BA196CD0-EE58-4274-B8DF-4393D3617A29";
paths = (
{
closed = 1;
nodes = (
"190 0 LINE",
"286 298 LINE",
"426 0 LINE",
"689 0 LINE",
"413 394 LINE",
"809 849 LINE",
"665 849 LINE",
"341 477 LINE",
"465 850 LINE",
"345 849 LINE",
"45 0 LINE"
);
}
);
userData = {
com.hugojourdan.ColorFlow = {
"0" = 0;
"1" = 0;
"10" = 0;
"11" = 0;
"2" = 0;
"3" = 0;
"4" = 0;
"5" = 0;
"6" = 0;
"7" = 0;
"8" = 0;
"9" = 0;
};
};
width = 884;
},
{
anchors = (
{
name = bottom;
position = "{352, -33}";
},
{
name = kabashkir;
position = "{483, 785}";
},
{
name = top;
position = "{667, 906}";
},
{
name = top_hook;
position = "{948, 631}";
},
{
name = topleft;
position = "{486, 888}";
}
);
layerId = "BBDB329E-CE83-4304-A6B1-53EA5ACC004E";
paths = (
{
closed = 1;
nodes = (
"276 0 LINE",
"336 225 LINE",
"460 1 LINE",
"802 1 LINE",
"495 362 LINE",
"921 850 LINE",
"713 850 LINE",
"431 512 LINE",
"562 850 LINE",
"394 850 LINE",
"75 0 LINE"
);
}
);
userData = {
com.hugojourdan.ColorFlow = {
"0" = 0;
"1" = 0;
"10" = 0;
"11" = 0;
"2" = 0;
"3" = 0;
"4" = 0;
"5" = 0;
"6" = 0;
"7" = 0;
"8" = 0;
"9" = 0;
};
};
width = 1027;
}
);
unicode = 004B;
},
{
color = 6;
glyphname = L;
lastChange = "2025-01-02 18:15:15 +0000";
layers = (
{
anchors = (
{
name = "_ circumflexbelowcomb";
position = "{311, -18}";
},
{
name = bottom;
position = "{289, -84}";
},
{
name = center;
position = "{234, 416}";
},
{
name = right;
position = "{502, 557}";
},
{
name = rightl;
position = "{679, 453}";
},
{
name = tilde;
position = "{230, 401}";
},
{
name = top;
position = "{362, 885}";
},
{
name = topright;
position = "{650, 793}";
}
);
hints = (
{
horizontal = 1;
place = "{-41, 148}";
type = TTStem;
options = 4;
}
);
layerId = "BA196CD0-EE58-4274-B8DF-4393D3617A29";
paths = (
{
closed = 1;
nodes = (
"574 0 LINE",
"620 172 LINE",
"223 154 LINE",
"432 847 LINE",
"312 847 LINE",
"45 0 LINE"
);
}
);
userData = {
com.hugojourdan.ColorFlow = {
"0" = 0;
"1" = 0;
"10" = 0;
"11" = 0;
"2" = 0;
"3" = 0;
"4" = 0;
"5" = 0;
"6" = 0;
"7" = 0;
"8" = 0;
"9" = 0;
};
};
width = 769;
},
{
anchors = (
{
name = bottom;
position = "{324, -178}";
},
{
name = center;
position = "{287, 415}";
},
{
name = right;
position = "{565, 560}";
},
{
name = rightl;
position = "{799, 460}";
},
{
name = tilde;
position = "{287, 398}";
},
{
name = top;
position = "{439, 889}";
},
{
name = topright;
position = "{881, 763}";
}
);
layerId = "BBDB329E-CE83-4304-A6B1-53EA5ACC004E";
paths = (
{
closed = 1;
nodes = (
"649 0 LINE",
"704 205 LINE",
"319 188 LINE",
"513 850 LINE",
"350 850 LINE",
"75 0 LINE"
);
}
);
userData = {
com.hugojourdan.ColorFlow = {
"0" = 0;
"1" = 0;
"10" = 0;
"11" = 0;
"2" = 0;
"3" = 0;
"4" = 0;
"5" = 0;
"6" = 0;
"7" = 0;
"8" = 0;
"9" = 0;
};
};
width = 874;
}
);
unicode = 004C;
},
{
color = 6;
glyphname = M;
lastChange = "2025-01-02 18:15:15 +0000";
layers = (
{
anchors = (
{
name = _top;
position = "{725, 928}";
},
{
name = bottom;
position = "{463, -46}";
},
{
name = commaaccent;
position = "{713, 870}";
},
{
name = dotbelow;
position = "{444, -119}";
},
{
name = hookbelow;
position = "{927, 177}";
},
{
name = top;
position = "{737, 977}";
}
);
hints = (
{
horizontal = 1;
origin = "{0, 12}";
type = Anchor;
options = 4;
},
{
horizontal = 1;
origin = "{0, 1}";
target = "{0, 11}";
type = TTStem;
options = 4;
}
);
layerId = "BA196CD0-EE58-4274-B8DF-4393D3617A29";
paths = (
{
closed = 1;
nodes = (
"226 0 LINE",
"353 624 LINE",
"429 71 LINE",
"552 71 LINE",
"902 624 LINE",
"690 0 LINE",
"904 0 LINE",
"1064 847 LINE",
"909 847 LINE",
"562 327 LINE",
"487 847 LINE",
"318 847 LINE",
"45 0 LINE"
);
}
);
userData = {
com.hugojourdan.ColorFlow = {
"0" = 0;
"1" = 0;
"10" = 0;
"11" = 0;
"2" = 0;
"3" = 0;
"4" = 0;
"5" = 0;
"6" = 0;
"7" = 0;
"8" = 0;
"9" = 0;
};
};
width = 1099;
},
{
anchors = (
{
name = _top;
position = "{685, 829}";
},
{
name = bottom;
position = "{485, -39}";
},
{
name = commaaccent;
position = "{700, 885}";
},
{
name = dotbelow;
position = "{515, -5}";
},
{
name = hookbelow;
position = "{938, 171}";
},
{
name = top;
position = "{723, 850}";
}
);
layerId = "BBDB329E-CE83-4304-A6B1-53EA5ACC004E";
paths = (
{
closed = 1;
nodes = (
"293 -1 LINE",
"392 520 LINE",
"436 39 LINE",
"589 39 LINE",
"866 524 LINE",
"677 -1 LINE",
"915 -1 LINE",
"1107 850 LINE",
"909 850 LINE",
"605 390 LINE",
"542 850 LINE",
"334 850 LINE",
"75 -1 LINE"
);
}
);
userData = {
com.hugojourdan.ColorFlow = {
"0" = 0;
"1" = 0;
"10" = 0;
"11" = 0;
"2" = 0;
"3" = 0;
"4" = 0;
"5" = 0;
"6" = 0;
"7" = 0;
"8" = 0;
"9" = 0;
};
};
width = 1140;
}
);
unicode = 004D;
},
{
color = 6;
glyphname = N;
lastChange = "2025-01-02 18:15:15 +0000";
layers = (
{
anchors = (
{
name = _;
position = "{423, 0}";
},
{
name = bottom;
position = "{383, 0}";
},
{
name = center;
position = "{525, 366}";
},
{
name = commaaccent;
position = "{346, 10}";
},
{
name = eng;
position = "{593, 9}";
},
{
name = right;
position = "{1061, 390}";
},
{
name = top;
position = "{660, 885}";
}
);
hints = (
{
horizontal = 1;
origin = "{0, 9}";
type = Anchor;
options = 4;
},
{
horizontal = 1;
origin = "{0, 8}";
type = Anchor;
options = 4;
},
{
horizontal = 1;
origin = "{0, 8}";
target = "{0, 1}";
type = TTStem;
options = 4;
},
{
horizontal = 1;
origin = "{0, 9}";
target = "{0, 6}";
type = TTStem;
options = 4;
}
);
layerId = "BA196CD0-EE58-4274-B8DF-4393D3617A29";
paths = (
{
closed = 1;
nodes = (
"229 0 LINE",
"377 590 LINE",
"500 0 LINE",
"697 0 LINE",
"969 846 LINE",
"844 846 LINE",
"603 157 LINE",
"468 816 LINE",
"329 816 LINE",
"45 0 LINE"
);
}
);
userData = {
com.hugojourdan.ColorFlow = {
"0" = 0;
"1" = 0;
"10" = 0;
"11" = 0;
"2" = 0;
"3" = 0;
"4" = 0;
"5" = 0;
"6" = 0;
"7" = 0;
"8" = 0;
"9" = 0;
};
};
width = 937;
},
{
anchors = (
{
name = _;
position = "{471, 0}";
},
{
name = bottom;
position = "{385, -174}";
},
{
name = center;
position = "{550, 386}";
},
{
name = commaaccent;
position = "{425, 1}";
},
{
name = eng;
position = "{637, 13}";
},
{
name = hook;
position = "{229, 185}";
},
{
name = right;
position = "{924, 301}";
},
{
name = top;
position = "{724, 943}";
}
);
layerId = "BBDB329E-CE83-4304-A6B1-53EA5ACC004E";
paths = (
{
closed = 1;
nodes = (
"322 -2 LINE",
"438 505 LINE",
"517 -2 LINE",
"741 -2 LINE",
"1014 849 LINE",
"856 849 LINE",
"653 257 LINE",
"538 807 LINE",
"358 807 LINE",
"74 -2 LINE"
);
}
);
userData = {
com.hugojourdan.ColorFlow = {
"0" = 0;
"1" = 0;
"10" = 0;
"11" = 0;
"2" = 0;
"3" = 0;
"4" = 0;
"5" = 0;
"6" = 0;
"7" = 0;
"8" = 0;
"9" = 0;
};
};
width = 1012;
}
);
unicode = 004E;
},
{
color = 6;
glyphname = O;
lastChange = "2025-01-02 18:15:15 +0000";
layers = (
{
anchors = (
{
name = bottom;
position = "{402, -120}";
},
{
name = center;
position = "{545, 439}";
},
{
name = ogonek;
position = "{593, -13}";
},
{
name = polyomicron;
position = "{288, 761}";
},
{
name = top;
position = "{675, 895}";
},
{
name = topleft;
position = "{195, 793}";
},
{
name = topright;
position = "{946, 695}";
}
);
hints = (
{
horizontal = 1;
origin = "{0, 11}";
target = "{1, 11}";
type = TTStem;
options = 4;
},
{
horizontal = 1;
origin = "{1, 5}";
target = "{0, 5}";
type = TTStem;
options = 4;
}
);
layerId = "BA196CD0-EE58-4274-B8DF-4393D3617A29";
paths = (
{
closed = 1;
nodes = (
"714 -16 OFFCURVE",
"835 125 OFFCURVE",
"920 418 CURVE SMOOTH",
"1009 724 OFFCURVE",
"883 852 OFFCURVE",
"651 852 CURVE SMOOTH",
"419 852 OFFCURVE",
"239 724 OFFCURVE",
"160 430 CURVE SMOOTH",
"82 137 OFFCURVE",
"165 -12 OFFCURVE",
"428 -14 CURVE SMOOTH"
);
},
{
closed = 1;
nodes = (
"313 197 OFFCURVE",
"227 237 OFFCURVE",
"272 407 CURVE SMOOTH",
"318 579 OFFCURVE",
"474 761 OFFCURVE",
"636 761 CURVE SMOOTH",
"798 761 OFFCURVE",
"848 591 OFFCURVE",
"802 419 CURVE SMOOTH",
"757 249 OFFCURVE",
"637 197 OFFCURVE",
"475 197 CURVE SMOOTH"
);
}
);
userData = {
com.hugojourdan.ColorFlow = {
"0" = 0;
"1" = 0;
"10" = 0;
"11" = 0;
"2" = 0;
"3" = 0;
"4" = 0;
"5" = 0;
"6" = 0;
"7" = 0;
"8" = 0;
"9" = 0;
};
};
width = 1003;
},
{
anchors = (
{
name = bottom;
position = "{419, -233}";
},
{
name = center;
position = "{596, 428}";
},
{
name = ogonek;
position = "{684, 0}";
},
{
name = polyomicron;
position = "{343, 745}";
},
{
name = top;
position = "{732, 935}";
},
{
name = topleft;
position = "{252, 776}";
},
{
name = topright;
position = "{1000, 733}";
}
);
layerId = "BBDB329E-CE83-4304-A6B1-53EA5ACC004E";
paths = (
{
closed = 1;
nodes = (
"790 -24 OFFCURVE",
"895 67 OFFCURVE",
"993 398 CURVE SMOOTH",
"1072 669 OFFCURVE",
"950 858 OFFCURVE",
"703 858 CURVE SMOOTH",
"457 858 OFFCURVE",
"260 689 OFFCURVE",
"187 417 CURVE SMOOTH",
"103 103 OFFCURVE",
"181 -20 OFFCURVE",
"483 -22 CURVE SMOOTH"
);
},
{
closed = 1;
nodes = (
"368 226 OFFCURVE",
"322 268 OFFCURVE",
"357 399 CURVE SMOOTH",
"408 590 OFFCURVE",
"543 721 OFFCURVE",
"682 721 CURVE SMOOTH",
"821 721 OFFCURVE",
"874 608 OFFCURVE",
"823 417 CURVE SMOOTH",
"787 285 OFFCURVE",
"701 226 OFFCURVE",
"534 226 CURVE SMOOTH"
);
}
);
userData = {
com.hugojourdan.ColorFlow = {
"0" = 0;
"1" = 0;
"10" = 0;
"11" = 0;
"2" = 0;
"3" = 0;
"4" = 0;
"5" = 0;
"6" = 0;
"7" = 0;
"8" = 0;
"9" = 0;
};
};
width = 1112;
}
);
unicode = 004F;
},
{
color = 6;
glyphname = P;
lastChange = "2025-01-02 18:15:15 +0000";
layers = (
{
anchors = (
{
name = bottom;
position = "{148, 0}";
},
{
name = center;
position = "{480, 630}";
},
{
name = midstroke;
position = "{230, 448}";
},
{
name = stroke;
position = "{191, 207}";
},
{
name = top;
position = "{582, 939}";
},
{
name = top_hook;
position = "{114, 592}";
}
);
hints = (
{
horizontal = 1;
origin = "{0, 10}";
type = Anchor;
options = 4;
},
{
horizontal = 1;
place = "{271, 139}";
type = TTStem;
options = 4;
},
{
horizontal = 1;
origin = "{0, 9}";
target = "{1, 0}";
type = TTStem;
options = 4;
}
);
layerId = "BA196CD0-EE58-4274-B8DF-4393D3617A29";
paths = (
{
closed = 1;
nodes = (
"223 0 LINE",
"303 383 LINE",
"443 390 LINE SMOOTH",
"632 400 OFFCURVE",
"729 464 OFFCURVE",
"776 638 CURVE SMOOTH",
"802 736 OFFCURVE",
"743 851 OFFCURVE",
"535 851 CURVE SMOOTH",
"320 851 LINE",
"45 0 LINE"
);
},
{
closed = 1;
nodes = (
"397 757 LINE",
"523 757 LINE SMOOTH",
"630 757 OFFCURVE",
"688 718 OFFCURVE",
"673 660 CURVE SMOOTH",
"640 538 OFFCURVE",
"581 522 OFFCURVE",
"480 517 CURVE SMOOTH",
"331 510 LINE"
);
}
);
userData = {
com.hugojourdan.ColorFlow = {
"0" = 0;
"1" = 0;
"10" = 0;
"11" = 0;
"2" = 0;
"3" = 0;
"4" = 0;
"5" = 0;
"6" = 0;
"7" = 0;
"8" = 0;
"9" = 0;
};
};
width = 800;
},
{
anchors = (
{
name = bottom;
position = "{372, 2}";
},
{
name = center;
position = "{555, 640}";
},
{
name = midstroke;
position = "{299, 428}";
},
{
name = stroke;
position = "{213, 145}";
},
{
name = top;
position = "{642, 964}";
},
{
name = top_hook;
position = "{127, 555}";
}
);
layerId = "BBDB329E-CE83-4304-A6B1-53EA5ACC004E";
paths = (
{
closed = 1;
nodes = (
"298 -2 LINE",
"361 313 LINE",
"470 318 LINE SMOOTH",
"664 328 OFFCURVE",
"791 444 OFFCURVE",
"821 582 CURVE SMOOTH",
"853 733 OFFCURVE",
"757 849 OFFCURVE",
"574 849 CURVE SMOOTH",
"351 849 LINE",
"74 -2 LINE"
);
},
{
closed = 1;
nodes = (
"463 720 LINE",
"558 720 LINE SMOOTH",
"669 720 OFFCURVE",
"697 692 OFFCURVE",
"687 648 CURVE SMOOTH",
"667 558 OFFCURVE",
"608 540 OFFCURVE",
"521 536 CURVE SMOOTH",
"412 531 LINE"
);
}
);
userData = {
com.hugojourdan.ColorFlow = {
"0" = 0;
"1" = 0;
"10" = 0;
"11" = 0;
"2" = 0;
"3" = 0;
"4" = 0;
"5" = 0;
"6" = 0;
"7" = 0;
"8" = 0;
"9" = 0;
};
};
width = 890;
}
);
unicode = 0050;
},
{
glyphname = Thorn;
lastChange = "2025-01-01 22:37:30 +0000";
layers = (
{
hints = (
{
horizontal = 1;
origin = "{0, 0}";
type = Anchor;
options = 4;
},
{
horizontal = 1;
origin = "{1, 8}";
target = "{2, 11}";
type = TTStem;
options = 4;
},
{
horizontal = 1;
origin = "{2, 5}";
target = "{1, 5}";
type = TTStem;
options = 4;
},
{
horizontal = 1;
origin = "{0, 3}";
type = Anchor;
options = 4;
},
{
horizontal = 1;
origin = "{0, 3}";
target = "{2, 5}";
type = TTStem;
options = 4;
}
);
layerId = "BA196CD0-EE58-4274-B8DF-4393D3617A29";
paths = (
{
closed = 1;
nodes = (
"54 0 LINE",
"153 0 LINE",
"365 791 LINE",
"266 791 LINE"
);
},
{
closed = 1;
nodes = (
"352 163 OFFCURVE",
"579 271 OFFCURVE",
"617 413 CURVE SMOOTH",
"655 554 OFFCURVE",
"479 675 OFFCURVE",
"316 675 CURVE",
"206 524 OFFCURVE",
"154 324 OFFCURVE",
"187 168 CURVE"
);
},
{
closed = 1;
nodes = (
"204 261 OFFCURVE",
"183 366 OFFCURVE",
"197 418 CURVE SMOOTH",
"211 470 OFFCURVE",
"295 588 OFFCURVE",
"355 588 CURVE SMOOTH",
"414 588 OFFCURVE",
"555 482 OFFCURVE",
"541 430 CURVE SMOOTH",
"527 378 OFFCURVE",
"322 261 OFFCURVE",
"264 261 CURVE SMOOTH"
);
}
);
userData = {
com.hugojourdan.ColorFlow = {
"0" = 0;
"1" = 0;
"10" = 0;
"11" = 0;
"2" = 0;
"3" = 0;
"4" = 0;
"5" = 0;
"6" = 0;
"7" = 0;
"8" = 0;
"9" = 0;
};
};
width = 560;
},
{
layerId = "BBDB329E-CE83-4304-A6B1-53EA5ACC004E";
paths = (
{
closed = 1;
nodes = (
"54 4 LINE",
"176 4 LINE",
"388 795 LINE",
"266 795 LINE"
);
},
{
closed = 1;
nodes = (
"355 163 OFFCURVE",
"573 268 OFFCURVE",
"611 410 CURVE SMOOTH",
"649 551 OFFCURVE",
"476 675 OFFCURVE",
"313 675 CURVE",
"206 527 OFFCURVE",
"156 327 OFFCURVE",
"189 171 CURVE"
);
},
{
closed = 1;
nodes = (
"242 319 OFFCURVE",
"248 358 OFFCURVE",
"262 410 CURVE SMOOTH",
"276 462 OFFCURVE",
"312 525 OFFCURVE",
"372 525 CURVE SMOOTH",
"431 525 OFFCURVE",
"490 493 OFFCURVE",
"476 441 CURVE SMOOTH",
"462 389 OFFCURVE",
"360 319 OFFCURVE",
"302 319 CURVE SMOOTH"
);
}
);
userData = {
com.hugojourdan.ColorFlow = {
"0" = 0;
"1" = 0;
"10" = 0;
"11" = 0;
"2" = 0;
"3" = 0;
"4" = 0;
"5" = 0;
"6" = 0;
"7" = 0;
"8" = 0;
"9" = 0;
};
};
width = 560;
}
);
unicode = 00DE;
},
{
color = 6;
glyphname = Q;
lastChange = "2025-01-02 18:15:15 +0000";
layers = (
{
anchors = (
{
name = bottom;
position = "{456, 17}";
},
{
name = top;
position = "{668, 808}";
}
);
hints = (
{
horizontal = 1;
origin = "{0, 13}";
target = "{1, 16}";
type = TTStem;
options = 4;
},
{
horizontal = 1;
origin = "{1, 5}";
target = "{0, 7}";
type = TTStem;
options = 4;
}
);
layerId = "BA196CD0-EE58-4274-B8DF-4393D3617A29";
paths = (
{
closed = 1;
nodes = (
"821 -129 LINE",
"698 62 LINE",
"784 135 OFFCURVE",
"876 233 OFFCURVE",
"928 428 CURVE SMOOTH",
"998 690 OFFCURVE",
"893 865 OFFCURVE",
"659 865 CURVE SMOOTH",
"425 865 OFFCURVE",
"224 669 OFFCURVE",
"163 440 CURVE SMOOTH",
"64 70 OFFCURVE",
"205 2 OFFCURVE",
"431 2 CURVE SMOOTH",
"444 2 OFFCURVE",
"454 2 OFFCURVE",
"479 4 CURVE",
"555 -129 LINE"
);
},
{
closed = 1;
nodes = (
"343 194 OFFCURVE",
"219 187 OFFCURVE",
"284 428 CURVE SMOOTH",
"331 604 OFFCURVE",
"480 774 OFFCURVE",
"644 774 CURVE SMOOTH",
"807 774 OFFCURVE",
"868 650 OFFCURVE",
"812 440 CURVE SMOOTH",
"788 353 OFFCURVE",
"718 229 OFFCURVE",
"684 229 CURVE SMOOTH",
"638 229 OFFCURVE",
"582 250 OFFCURVE",
"530 283 CURVE",
"474 199 LINE",
"408 196 LINE SMOOTH"
);
}
);
userData = {
com.hugojourdan.ColorFlow = {
"0" = 0;
"1" = 0;
"10" = 0;
"11" = 0;
"2" = 0;
"3" = 0;
"4" = 0;
"5" = 0;
"6" = 0;
"7" = 0;
"8" = 0;
"9" = 0;
};
};
width = 1051;
},
{
anchors = (
{
name = bottom;
position = "{496, 14}";
},
{
name = top;
position = "{700, 777}";
}
);
layerId = "BBDB329E-CE83-4304-A6B1-53EA5ACC004E";
paths = (
{
closed = 1;
nodes = (
"907 -137 LINE",
"772 72 LINE",
"882 172 OFFCURVE",
"940 277 OFFCURVE",
"979 421 CURVE SMOOTH",
"1051 689 OFFCURVE",
"938 871 OFFCURVE",
"699 871 CURVE SMOOTH",
"472 871 OFFCURVE",
"260 691 OFFCURVE",
"193 439 CURVE SMOOTH",
"113 142 OFFCURVE",
"219 -31 OFFCURVE",
"504 -12 CURVE",
"574 -137 LINE"
);
},
{
closed = 1;
nodes = (
"397 231 OFFCURVE",
"310 220 OFFCURVE",
"364 421 CURVE SMOOTH",
"409 590 OFFCURVE",
"537 725 OFFCURVE",
"675 725 CURVE SMOOTH",
"812 725 OFFCURVE",
"861 625 OFFCURVE",
"812 439 CURVE SMOOTH",
"784 335 OFFCURVE",
"738 264 OFFCURVE",
"722 264 CURVE SMOOTH",
"683 264 OFFCURVE",
"627 282 OFFCURVE",
"565 325 CURVE",
"505 234 LINE",
"458 233 LINE SMOOTH"
);
}
);
userData = {
com.hugojourdan.ColorFlow = {
"0" = 0;
"1" = 0;
"10" = 0;
"11" = 0;
"2" = 0;
"3" = 0;
"4" = 0;
"5" = 0;
"6" = 0;
"7" = 0;
"8" = 0;
"9" = 0;
};
};
width = 1169;
}
);
unicode = 0051;
},
{
color = 6;
glyphname = R;
lastChange = "2025-01-02 18:15:15 +0000";
layers = (
{
anchors = (
{
name = bottom;
position = "{287, -107}";
},
{
name = bottom_hook;
position = "{82, -29}";
},
{
name = top;
position = "{551, 876}";
}
);
hints = (
{
horizontal = 1;
origin = "{0, 7}";
type = Anchor;
options = 4;
},
{
horizontal = 1;
place = "{288, 110.98}";
type = TTStem;
options = 4;
},
{
horizontal = 1;
origin = "{1, 7}";
target = "{0, 6}";
type = TTStem;
options = 4;
}
);
layerId = "BA196CD0-EE58-4274-B8DF-4393D3617A29";
paths = (
{
closed = 1;
nodes = (
"637 444 OFFCURVE",
"693 495 OFFCURVE",
"722 604 CURVE SMOOTH",
"765 764 OFFCURVE",
"685 847 OFFCURVE",
"519 847 CURVE SMOOTH",
"323 847 LINE",
"45 0 LINE",
"222 0 LINE",
"295 342 LINE",
"361 352 LINE SMOOTH",
"432 363 OFFCURVE",
"548 362 OFFCURVE",
"509 241 CURVE SMOOTH",
"435 0 LINE",
"638 0 LINE",
"638 244 LINE SMOOTH",
"640 380 OFFCURVE",
"586 397 OFFCURVE",
"547 430 CURVE"
);
},
{
closed = 1;
nodes = (
"600 755 OFFCURVE",
"657 734 OFFCURVE",
"628 626 CURVE SMOOTH",
"615 578 OFFCURVE",
"523 504 OFFCURVE",
"438 504 CURVE SMOOTH",
"303 504 LINE",
"370 755 LINE",
"515 755 LINE SMOOTH"
);
}
);
userData = {
com.hugojourdan.ColorFlow = {
"0" = 0;
"1" = 0;
"10" = 0;
"11" = 0;
"2" = 0;
"3" = 0;
"4" = 0;
"5" = 0;
"6" = 0;
"7" = 0;
"8" = 0;
"9" = 0;
};
};
width = 833;
},
{
anchors = (
{
name = bottom;
position = "{305, -237}";
},
{
name = bottom_hook;
position = "{163, -11}";
},
{
name = top;
position = "{593, 907}";
}
);
layerId = "BBDB329E-CE83-4304-A6B1-53EA5ACC004E";
paths = (
{
closed = 1;
nodes = (
"725 432 OFFCURVE",
"765 489 OFFCURVE",
"788 576 CURVE SMOOTH",
"838 762 OFFCURVE",
"751 850 OFFCURVE",
"570 850 CURVE SMOOTH",
"357 850 LINE",
"76 4 LINE",
"311 4 LINE",
"369 293 LINE",
"435 315 LINE SMOOTH",
"529 355 OFFCURVE",
"544 291 OFFCURVE",
"523 224 CURVE SMOOTH",
"454 4 LINE",
"720 4 LINE",
"704 225 LINE SMOOTH",
"701 284 OFFCURVE",
"681 358 OFFCURVE",
"647 398 CURVE"
);
},
{
closed = 1;
nodes = (
"658 738 OFFCURVE",
"690 737 OFFCURVE",
"658 621 CURVE SMOOTH",
"627 502 OFFCURVE",
"556 491 OFFCURVE",
"485 491 CURVE SMOOTH",
"387 491 LINE",
"453 738 LINE",
"566 738 LINE SMOOTH"
);
}
);
userData = {
com.hugojourdan.ColorFlow = {
"0" = 0;
"1" = 0;
"10" = 0;
"11" = 0;
"2" = 0;
"3" = 0;
"4" = 0;
"5" = 0;
"6" = 0;
"7" = 0;
"8" = 0;
"9" = 0;
};
};
width = 944;
}
);
unicode = 0052;
},
{
color = 6;
glyphname = S;
lastChange = "2025-01-02 18:15:15 +0000";
layers = (
{
anchors = (
{
name = bottom;
position = "{379, -88}";
},
{
name = center;
position = "{539, 431}";
},
{
name = top;
position = "{650, 946}";
}
);
hints = (
{
horizontal = 1;
origin = "{0, 22}";
target = "{0, 15}";
type = TTStem;
options = 4;
},
{
horizontal = 1;
origin = "{0, 35}";
target = "{0, 2}";
type = TTStem;
options = 4;
}
);
layerId = "BA196CD0-EE58-4274-B8DF-4393D3617A29";
paths = (
{
closed = 1;
nodes = (
"800 854 OFFCURVE",
"682 860 OFFCURVE",
"639 860 CURVE SMOOTH",
"431 860 OFFCURVE",
"327 757 OFFCURVE",
"288 611 CURVE SMOOTH",
"254 486 OFFCURVE",
"309 414 OFFCURVE",
"467 381 CURVE SMOOTH",
"530 368 LINE SMOOTH",
"626 348 OFFCURVE",
"647 319 OFFCURVE",
"632 266 CURVE SMOOTH",
"608 183 OFFCURVE",
"525 180 OFFCURVE",
"468 180 CURVE SMOOTH",
"406 180 OFFCURVE",
"250 177 OFFCURVE",
"216 210 CURVE",
"58 47 LINE",
"135 -20 OFFCURVE",
"243 -14 OFFCURVE",
"389 -14 CURVE SMOOTH",
"654 -14 OFFCURVE",
"812 94 OFFCURVE",
"849 230 CURVE SMOOTH",
"885 364 OFFCURVE",
"749 461 OFFCURVE",
"588 495 CURVE SMOOTH",
"526 508 LINE SMOOTH",
"432 529 OFFCURVE",
"378 533 OFFCURVE",
"404 605 CURVE SMOOTH",
"434 692 OFFCURVE",
"539 730 OFFCURVE",
"661 739 CURVE SMOOTH",
"776 747 OFFCURVE",
"773 726 OFFCURVE",
"829 721 CURVE",
"868 838 LINE"
);
}
);
userData = {
com.hugojourdan.ColorFlow = {
"0" = 0;
"1" = 0;
"10" = 0;
"11" = 0;
"2" = 0;
"3" = 0;
"4" = 0;
"5" = 0;
"6" = 0;
"7" = 0;
"8" = 0;
"9" = 0;
};
};
width = 982;
},
{
anchors = (
{
name = bottom;
position = "{398, -157}";
},
{
name = center;
position = "{571, 431}";
},
{
name = top;
position = "{685, 915}";
}
);
layerId = "BBDB329E-CE83-4304-A6B1-53EA5ACC004E";
paths = (
{
closed = 1;
nodes = (
"685 -11 OFFCURVE",
"833 75 OFFCURVE",
"871 217 CURVE SMOOTH",
"907 351 OFFCURVE",
"812 459 OFFCURVE",
"626 499 CURVE SMOOTH",
"566 512 LINE SMOOTH",
"471 533 OFFCURVE",
"462 564 OFFCURVE",
"474 608 CURVE SMOOTH",
"486 654 OFFCURVE",
"600 720 OFFCURVE",
"661 720 CURVE SMOOTH",
"690 720 OFFCURVE",
"764 710 OFFCURVE",
"811 692 CURVE",
"909 830 LINE",
"877 843 OFFCURVE",
"760 864 OFFCURVE",
"673 864 CURVE SMOOTH",
"483 864 OFFCURVE",
"353 776 OFFCURVE",
"308 610 CURVE SMOOTH",
"272 473 OFFCURVE",
"328 380 OFFCURVE",
"492 345 CURVE SMOOTH",
"553 332 LINE SMOOTH",
"584 326 OFFCURVE",
"689 278 OFFCURVE",
"679 243 CURVE SMOOTH",
"667 199 OFFCURVE",
"578 126 OFFCURVE",
"442 165 CURVE SMOOTH",
"369 186 OFFCURVE",
"279 230 OFFCURVE",
"268 242 CURVE",
"93 68 LINE",
"205 -9 OFFCURVE",
"377 -11 OFFCURVE",
"429 -11 CURVE SMOOTH"
);
}
);
userData = {
com.hugojourdan.ColorFlow = {
"0" = 0;
"1" = 0;
"10" = 0;
"11" = 0;
"2" = 0;
"3" = 0;
"4" = 0;
"5" = 0;
"6" = 0;
"7" = 0;
"8" = 0;
"9" = 0;
};
};
width = 1038;
}
);
unicode = 0053;
},
{
color = 6;
glyphname = T;
lastChange = "2025-01-02 18:15:15 +0000";
layers = (
{
anchors = (
{
name = bottom;
position = "{375, -67}";
},
{
name = bottom_hook;
position = "{425, -41}";
},
{
name = center;
position = "{503, 412}";
},
{
name = hook_top;
position = "{292, 781}";
},
{
name = top;
position = "{629, 882}";
},
{
name = tshe;
position = "{570, 623}";
}
);
hints = (
{
horizontal = 1;
origin = "{0, 7}";
type = Anchor;
options = 4;
},
{
horizontal = 1;
place = "{685, 78}";
type = TTStem;
options = 4;
}
);
layerId = "BA196CD0-EE58-4274-B8DF-4393D3617A29";
paths = (
{
closed = 1;
nodes = (
"472 0 LINE",
"648 742 LINE",
"938 731 LINE",
"969 847 LINE",
"272 847 LINE",
"238 720 LINE",
"537 742 LINE",
"305 0 LINE"
);
}
);
userData = {
com.hugojourdan.ColorFlow = {
"0" = 0;
"1" = 0;
"10" = 0;
"11" = 0;
"2" = 0;
"3" = 0;
"4" = 0;
"5" = 0;
"6" = 0;
"7" = 0;
"8" = 0;
"9" = 0;
};
};
width = 937;
},
{
anchors = (
{
name = bottom;
position = "{403, -87}";
},
{
name = bottom_hook;
position = "{423, -26}";
},
{
name = center;
position = "{547, 398}";
},
{
name = hook_top;
position = "{341, 767}";
},
{
name = top;
position = "{685, 916}";
},
{
name = tshe;
position = "{595, 568}";
}
);
layerId = "BBDB329E-CE83-4304-A6B1-53EA5ACC004E";
paths = (
{
closed = 1;
nodes = (
"538 680 LINE",
"334 -2 LINE",
"546 -2 LINE",
"707 680 LINE",
"985 669 LINE",
"1033 849 LINE",
"302 849 LINE",
"254 669 LINE"
);
}
);
userData = {
com.hugojourdan.ColorFlow = {
"0" = 0;
"1" = 0;
"10" = 0;
"11" = 0;
"2" = 0;
"3" = 0;
"4" = 0;
"5" = 0;
"6" = 0;
"7" = 0;
"8" = 0;
"9" = 0;
};
};
width = 1031;
}
);
unicode = 0054;
},
{
color = 6;
glyphname = U;
lastChange = "2025-01-02 18:15:15 +0000";
layers = (
{
anchors = (
{
name = bottom;
position = "{357, -86}";
},
{
name = center;
position = "{486, 449}";
},
{
name = horn;
position = "{915, 880}";
},
{
name = ogonek;
position = "{560, 40}";
},
{
name = top;
position = "{638, 947}";
},
{
name = top_hook;
position = "{856, 741}";
},
{
name = topright;
position = "{993, 791}";
}
);
hints = (
{
horizontal = 1;
origin = "{0, 2}";
target = "{0, 11}";
type = TTStem;
options = 4;
}
);
layerId = "BA196CD0-EE58-4274-B8DF-4393D3617A29";
paths = (
{
closed = 1;
nodes = (
"73 -9 OFFCURVE",
"175 -3 OFFCURVE",
"384 -3 CURVE SMOOTH",
"591 -3 OFFCURVE",
"674 -21 OFFCURVE",
"776 304 CURVE SMOOTH",
"946 848 LINE",
"776 848 LINE",
"680 429 LINE SMOOTH",
"625 189 OFFCURVE",
"544 183 OFFCURVE",
"424 183 CURVE SMOOTH",
"303 183 OFFCURVE",
"231 177 OFFCURVE",
"304 417 CURVE SMOOTH",
"435 848 LINE",
"272 848 LINE",
"148 316 LINE SMOOTH"
);
}
);
userData = {
com.hugojourdan.ColorFlow = {
"0" = 0;
"1" = 0;
"10" = 0;
"11" = 0;
"2" = 0;
"3" = 0;
"4" = 0;
"5" = 0;
"6" = 0;
"7" = 0;
"8" = 0;
"9" = 0;
};
};
width = 914;
},
{
anchors = (
{
name = bottom;
position = "{370, -216}";
},
{
name = center;
position = "{540, 482}";
},
{
name = horn;
position = "{962, 812}";
},
{
name = ogonek;
position = "{601, 39}";
},
{
name = top;
position = "{699, 996}";
},
{
name = top_hook;
position = "{873, 748}";
},
{
name = topright;
position = "{968, 724}";
}
);
layerId = "BBDB329E-CE83-4304-A6B1-53EA5ACC004E";
paths = (
{
closed = 1;
nodes = (
"96 -30 OFFCURVE",
"232 -6 OFFCURVE",
"434 -6 CURVE SMOOTH",
"633 -6 OFFCURVE",
"731 -48 OFFCURVE",
"839 295 CURVE SMOOTH",
"1013 850 LINE",
"789 850 LINE",
"684 400 LINE SMOOTH",
"650 254 OFFCURVE",
"617 223 OFFCURVE",
"480 223 CURVE SMOOTH",
"341 223 OFFCURVE",
"334 236 OFFCURVE",
"379 382 CURVE SMOOTH",
"521 850 LINE",
"303 850 LINE",
"177 313 LINE SMOOTH"
);
}
);
userData = {
com.hugojourdan.ColorFlow = {
"0" = 0;
"1" = 0;
"10" = 0;
"11" = 0;
"2" = 0;
"3" = 0;
"4" = 0;
"5" = 0;
"6" = 0;
"7" = 0;
"8" = 0;
"9" = 0;
};
};
width = 1010;
}
);
unicode = 0055;
},
{
color = 6;
glyphname = V;
lastChange = "2025-01-02 18:15:15 +0000";
layers = (
{
anchors = (
{
name = bottom;
position = "{434, 0}";
},
{
name = top;
position = "{672, 889}";
},
{
name = top_hook;
position = "{861, 734}";
}
);
hints = (
{
horizontal = 1;
origin = "{0, 6}";
target = "{0, 3}";
type = TTStem;
options = 4;
}
);
layerId = "BA196CD0-EE58-4274-B8DF-4393D3617A29";
paths = (
{
closed = 1;
nodes = (
"1050 847 LINE",
"923 847 LINE",
"515 242 LINE",
"462 242 LINE",
"400 847 LINE",
"272 847 LINE",
"313 0 LINE",
"544 0 LINE"
);
}
);
userData = {
com.hugojourdan.ColorFlow = {
"0" = 0;
"1" = 0;
"10" = 0;
"11" = 0;
"2" = 0;
"3" = 0;
"4" = 0;
"5" = 0;
"6" = 0;
"7" = 0;
"8" = 0;
"9" = 0;
};
};
width = 1018;
},
{
anchors = (
{
name = bottom;
position = "{480, 2}";
},
{
name = top;
position = "{727, 926}";
},
{
name = top_hook;
position = "{967, 749}";
}
);
layerId = "BBDB329E-CE83-4304-A6B1-53EA5ACC004E";
paths = (
{
closed = 1;
nodes = (
"1111 850 LINE",
"940 850 LINE",
"559 313 LINE",
"548 313 LINE",
"476 850 LINE",
"303 850 LINE",
"341 0 LINE",
"607 0 LINE"
);
}
);
userData = {
com.hugojourdan.ColorFlow = {
"0" = 0;
"1" = 0;
"10" = 0;
"11" = 0;
"2" = 0;
"3" = 0;
"4" = 0;
"5" = 0;
"6" = 0;
"7" = 0;
"8" = 0;
"9" = 0;
};
};
width = 1108;
}
);
unicode = 0056;
},
{
glyphname = Gammaafrican;
lastChange = "2025-01-01 22:37:30 +0000";
layers = (
{
hints = (
{
horizontal = 1;
origin = "{0, 23}";
target = "{0, 10}";
type = TTStem;
options = 4;
},
{
horizontal = 1;
origin = "{0, 4}";
type = Anchor;
options = 4;
}
);
layerId = "BA196CD0-EE58-4274-B8DF-4393D3617A29";
paths = (
{
closed = 1;
nodes = (
"469 744 CURVE SMOOTH",
"463 766 OFFCURVE",
"460 770 OFFCURVE",
"450 795 CURVE",
"298 805 LINE",
"306 785 OFFCURVE",
"320 743 OFFCURVE",
"324 731 CURVE SMOOTH",
"562 21 OFFCURVE",
"605 -78 OFFCURVE",
"440 -73 CURVE SMOOTH",
"229 -67 OFFCURVE",
"385 94 OFFCURVE",
"1006 709 CURVE SMOOTH",
"1015 718 OFFCURVE",
"1080 779 OFFCURVE",
"1098 796 CURVE",
"911 805 LINE",
"894 788 OFFCURVE",
"898 794 OFFCURVE",
"884 777 CURVE SMOOTH",
"287 98 OFFCURVE",
"-107 -194 OFFCURVE",
"419 -200 CURVE SMOOTH",
"855 -205 OFFCURVE",
"654 22 OFFCURVE"
);
}
);
userData = {
com.hugojourdan.ColorFlow = {
"0" = 0;
"1" = 0;
"10" = 0;
"11" = 0;
"2" = 0;
"3" = 0;
"4" = 0;
"5" = 0;
"6" = 0;
"7" = 0;
"8" = 0;
"9" = 0;
};
};
width = 962;
},
{
layerId = "BBDB329E-CE83-4304-A6B1-53EA5ACC004E";
paths = (
{
closed = 1;
nodes = (
"894 -233 OFFCURVE",
"666 54 OFFCURVE",
"488 754 CURVE SMOOTH",
"479 783 OFFCURVE",
"475 786 OFFCURVE",
"461 819 CURVE",
"251 835 LINE",
"275 775 OFFCURVE",
"288 732 OFFCURVE",
"293 719 CURVE",
"533 2 OFFCURVE",
"551 -49 OFFCURVE",
"438 -46 CURVE SMOOTH",
"286 -42 OFFCURVE",
"364 42 OFFCURVE",
"1017 690 CURVE",
"1006 697 OFFCURVE",
"1041 709 OFFCURVE",
"1163 820 CURVE",
"897 835 LINE",
"868 805 OFFCURVE",
"874 814 OFFCURVE",
"857 794 CURVE SMOOTH",
"277 135 OFFCURVE",
"-170 -220 OFFCURVE",
"408 -227 CURVE SMOOTH"
);
}
);
userData = {
com.hugojourdan.ColorFlow = {
"0" = 0;
"1" = 0;
"10" = 0;
"11" = 0;
"2" = 0;
"3" = 0;
"4" = 0;
"5" = 0;
"6" = 0;
"7" = 0;
"8" = 0;
"9" = 0;
};
};
width = 948;
}
);
unicode = 0194;
},
{
color = 6;
glyphname = W;
lastChange = "2025-01-02 18:15:15 +0000";
layers = (
{
anchors = (
{
name = bottom;
position = "{567, 0}";
},
{
name = center;
position = "{705, 519}";
},
{
name = top;
position = "{809, 916}";
},
{
name = top_hook;
position = "{1205, 779}";
}
);
hints = (
{
horizontal = 1;
origin = "{0, 12}";
type = Anchor;
options = 4;
}
);
layerId = "BA196CD0-EE58-4274-B8DF-4393D3617A29";
paths = (
{
closed = 1;
nodes = (
"403 0 LINE",
"677 411 LINE",
"718 0 LINE",
"881 0 LINE",
"1315 849 LINE",
"1185 849 LINE",
"853 233 LINE",
"777 614 LINE",
"680 614 LINE",
"385 244 LINE",
"402 847 LINE",
"272 847 LINE",
"229 0 LINE"
);
}
);
userData = {
com.hugojourdan.ColorFlow = {
"0" = 0;
"1" = 0;
"10" = 0;
"11" = 0;
"2" = 0;
"3" = 0;
"4" = 0;
"5" = 0;
"6" = 0;
"7" = 0;
"8" = 0;
"9" = 0;
};
};
width = 1283;
},
{
anchors = (
{
name = bottom;
position = "{635, 0}";
},
{
name = center;
position = "{775, 509}";
},
{
name = top;
position = "{881, 977}";
},
{
name = top_hook;
position = "{1256, 779}";
}
);
layerId = "BBDB329E-CE83-4304-A6B1-53EA5ACC004E";
paths = (
{
closed = 1;
nodes = (
"508 0 LINE",
"720 321 LINE",
"750 0 LINE",
"971 0 LINE",
"1402 848 LINE",
"1206 848 LINE",
"924 295 LINE",
"863 621 LINE",
"733 621 LINE",
"485 304 LINE",
"506 848 LINE",
"302 848 LINE",
"255 0 LINE"
);
}
);
userData = {
com.hugojourdan.ColorFlow = {
"0" = 0;
"1" = 0;
"10" = 0;
"11" = 0;
"2" = 0;
"3" = 0;
"4" = 0;
"5" = 0;
"6" = 0;
"7" = 0;
"8" = 0;
"9" = 0;
};
};
width = 1400;
}
);
unicode = 0057;
},
{
color = 6;
glyphname = X;
lastChange = "2025-01-02 18:15:15 +0000";
layers = (
{
anchors = (
{
name = bottom;
position = "{423, 0}";
},
{
name = bottom_hook;
position = "{1156, 60}";
},
{
name = top;
position = "{635, 791}";
}
);
hints = (
{
horizontal = 1;
origin = "{1, 1}";
type = Anchor;
options = 4;
}
);
layerId = "BA196CD0-EE58-4274-B8DF-4393D3617A29";
paths = (
{
closed = 1;
nodes = (
"610 -1 LINE",
"800 -1 LINE",
"426 848 LINE",
"314 848 LINE"
);
},
{
closed = 1;
nodes = (
"45 -1 LINE",
"238 -1 LINE",
"1000 848 LINE",
"890 848 LINE"
);
}
);
userData = {
com.hugojourdan.ColorFlow = {
"0" = 0;
"1" = 0;
"10" = 0;
"11" = 0;
"2" = 0;
"3" = 0;
"4" = 0;
"5" = 0;
"6" = 0;
"7" = 0;
"8" = 0;
"9" = 0;
};
};
width = 995;
},
{
anchors = (
{
name = bottom;
position = "{475, 0}";
},
{
name = bottom_hook;
position = "{1032, 0}";
},
{
name = top;
position = "{716, 901}";
}
);
layerId = "BBDB329E-CE83-4304-A6B1-53EA5ACC004E";
paths = (
{
closed = 1;
nodes = (
"324 0 LINE",
"1072 850 LINE",
"908 850 LINE",
"75 0 LINE"
);
},
{
closed = 1;
nodes = (
"873 0 LINE",
"513 850 LINE",
"339 850 LINE",
"617 0 LINE"
);
}
);
userData = {
com.hugojourdan.ColorFlow = {
"0" = 0;
"1" = 0;
"10" = 0;
"11" = 0;
"2" = 0;
"3" = 0;
"4" = 0;
"5" = 0;
"6" = 0;
"7" = 0;
"8" = 0;
"9" = 0;
};
};
width = 1098;
}
);
unicode = 0058;
},
{
color = 6;
glyphname = Y;
lastChange = "2025-01-02 18:15:15 +0000";
layers = (
{
anchors = (
{
name = bottom;
position = "{296, -239}";
},
{
name = center;
position = "{471, 313}";
},
{
name = top;
position = "{644, 963}";
},
{
name = top_hook;
position = "{995, 761}";
},
{
name = topleft;
position = "{195, 791}";
}
);
hints = (
{
horizontal = 1;
origin = "{0, 0}";
type = Anchor;
options = 4;
}
);
layerId = "BA196CD0-EE58-4274-B8DF-4393D3617A29";
paths = (
{
closed = 1;
nodes = (
"253 -1 LINE",
"459 -1 LINE",
"538 296 LINE",
"954 849 LINE",
"834 849 LINE",
"511 461 LINE",
"392 849 LINE",
"272 849 LINE",
"388 296 LINE"
);
}
);
userData = {
com.hugojourdan.ColorFlow = {
"0" = 0;
"1" = 0;
"10" = 0;
"11" = 0;
"2" = 0;
"3" = 0;
"4" = 0;
"5" = 0;
"6" = 0;
"7" = 0;
"8" = 0;
"9" = 0;
};
};
width = 922;
},
{
anchors = (
{
name = bottom;
position = "{383, -268}";
},
{
name = center;
position = "{537, 318}";
},
{
name = top;
position = "{729, 1068}";
},
{
name = top_hook;
position = "{1009, 677}";
},
{
name = topleft;
position = "{205, 763}";
}
);
layerId = "BBDB329E-CE83-4304-A6B1-53EA5ACC004E";
paths = (
{
closed = 1;
nodes = (
"325 -1 LINE",
"561 -1 LINE",
"622 266 LINE",
"1055 850 LINE",
"875 850 LINE",
"579 473 LINE",
"483 850 LINE",
"303 850 LINE",
"418 266 LINE"
);
}
);
userData = {
com.hugojourdan.ColorFlow = {
"0" = 0;
"1" = 0;
"10" = 0;
"11" = 0;
"2" = 0;
"3" = 0;
"4" = 0;
"5" = 0;
"6" = 0;
"7" = 0;
"8" = 0;
"9" = 0;
};
};
width = 1052;
}
);
unicode = 0059;
},
{
color = 6;
glyphname = Z;
lastChange = "2025-01-02 18:15:15 +0000";
layers = (
{
anchors = (
{
name = bottom;
position = "{380, -113}";
},
{
name = center;
position = "{516, 395}";
},
{
name = top;
position = "{648, 899}";
}
);
layerId = "BA196CD0-EE58-4274-B8DF-4393D3617A29";
paths = (
{
closed = 1;
nodes = (
"796 7 LINE",
"785 165 LINE",
"352 165 LINE",
"946 685 LINE",
"1001 849 LINE",
"365 849 LINE",
"377 705 LINE",
"780 710 LINE",
"87 157 LINE",
"45 0 LINE"
);
}
);
userData = {
com.hugojourdan.ColorFlow = {
"0" = 0;
"1" = 0;
"10" = 0;
"11" = 0;
"2" = 0;
"3" = 0;
"4" = 0;
"5" = 0;
"6" = 0;
"7" = 0;
"8" = 0;
"9" = 0;
};
};
width = 989;
},
{
anchors = (
{
name = bottom;
position = "{407, -182}";
},
{
name = center;
position = "{559, 384}";
},
{
name = top;
position = "{691, 887}";
}
);
layerId = "BBDB329E-CE83-4304-A6B1-53EA5ACC004E";
paths = (
{
closed = 1;
nodes = (
"706 657 LINE",
"127 195 LINE",
"75 0 LINE",
"824 0 LINE",
"813 219 LINE",
"509 218 LINE",
"1021 690 LINE",
"1064 850 LINE",
"357 850 LINE",
"393 663 LINE"
);
}
);
userData = {
com.hugojourdan.ColorFlow = {
"0" = 0;
"1" = 0;
"10" = 0;
"11" = 0;
"2" = 0;
"3" = 0;
"4" = 0;
"5" = 0;
"6" = 0;
"7" = 0;
"8" = 0;
"9" = 0;
};
};
width = 1061;
}
);
unicode = 005A;
},
{
glyphname = Saltillo;
lastChange = "2025-01-01 22:37:30 +0000";
layers = (
{
layerId = "BA196CD0-EE58-4274-B8DF-4393D3617A29";
paths = (
{
closed = 1;
nodes = (
"190 120 LINE",
"293 120 LINE",
"516 763 LINE",
"284 763 LINE"
);
}
);
userData = {
com.hugojourdan.ColorFlow = {
"0" = 0;
"1" = 0;
"10" = 0;
"11" = 0;
"2" = 0;
"3" = 0;
"4" = 0;
"5" = 0;
"6" = 0;
"7" = 0;
"8" = 0;
"9" = 0;
};
};
width = 392;
},
{
layerId = "BBDB329E-CE83-4304-A6B1-53EA5ACC004E";
paths = (
{
closed = 1;
nodes = (
"263 93 LINE",
"415 93 LINE",
"657 790 LINE",
"366 790 LINE"
);
}
);
userData = {
com.hugojourdan.ColorFlow = {
"0" = 0;
"1" = 0;
"10" = 0;
"11" = 0;
"2" = 0;
"3" = 0;
"4" = 0;
"5" = 0;
"6" = 0;
"7" = 0;
"8" = 0;
"9" = 0;
};
};
width = 600;
}
);
unicode = A78B;
},
{
glyphname = Gsmallhook;
lastChange = "2025-01-01 22:37:30 +0000";
layers = (
{
anchors = (
{
name = _top_hook;
position = "{732, 66}";
},
{
name = center;
position = "{798, 299}";
}
);
components = (
{
name = Gsmall;
transform = "{1, 0, 0, 1, 26, 0}";
}
);
hints = (
{
horizontal = 1;
origin = "{0, 12}";
target = "{0, 13}";
type = TTStem;
options = 4;
}
);
layerId = "BA196CD0-EE58-4274-B8DF-4393D3617A29";
paths = (
{
closed = 1;
nodes = (
"625 707 OFFCURVE",
"608 708 OFFCURVE",
"578 609 CURVE SMOOTH",
"564 565 OFFCURVE",
"568 579 OFFCURVE",
"551 517 CURVE",
"617 514 LINE",
"624 541 OFFCURVE",
"630 563 OFFCURVE",
"637 589 CURVE SMOOTH",
"648 632 OFFCURVE",
"658 640 OFFCURVE",
"718 640 CURVE",
"736 707 LINE"
);
}
);
userData = {
com.hugojourdan.ColorFlow = {
"0" = 0;
"1" = 0;
"10" = 0;
"11" = 0;
"2" = 0;
"3" = 0;
"4" = 0;
"5" = 0;
"6" = 0;
"7" = 0;
"8" = 0;
"9" = 0;
};
};
width = 619;
},
{
anchors = (
{
name = _top_hook;
position = "{864, 66}";
},
{
name = center;
position = "{930, 299}";
}
);
components = (
{
name = Gsmall;
transform = "{1, 0, 0, 1, 158, 0}";
}
);
layerId = "BBDB329E-CE83-4304-A6B1-53EA5ACC004E";
paths = (
{
closed = 1;
nodes = (
"717 762 OFFCURVE",
"690 755 OFFCURVE",
"650 625 CURVE SMOOTH",
"633 570 OFFCURVE",
"640 595 OFFCURVE",
"613 493 CURVE",
"747 475 LINE",
"759 520 OFFCURVE",
"767 549 OFFCURVE",
"777 587 CURVE SMOOTH",
"787 623 OFFCURVE",
"781 617 OFFCURVE",
"865 621 CURVE",
"887 759 LINE"
);
}
);
userData = {
com.hugojourdan.ColorFlow = {
"0" = 0;
"1" = 0;
"10" = 0;
"11" = 0;
"2" = 0;
"3" = 0;
"4" = 0;
"5" = 0;
"6" = 0;
"7" = 0;
"8" = 0;
"9" = 0;
};
};
width = 883;
}
);
unicode = 029B;
},
{
color = 7;
glyphname = a;
lastChange = "2025-01-02 18:15:32 +0000";
layers = (
{
anchors = (
{
name = abovecomb;
position = "{435, 617}";
},
{
name = bottom;
position = "{260, -84}";
},
{
name = bottomright;
position = "{525, 50}";
},
{
name = dotbelow;
position = "{289, -3}";
},
{
name = top;
position = "{448, 589}";
}
);
background = {
components = (
{
alignment = -1;
name = "";
transform = "{1, 0, 0, 1, 23, 150}";
},
{
alignment = -1;
name = "";
transform = "{1, 0, 0, 1, 23, 200}";
},
{
alignment = -1;
name = "";
transform = "{1, 0, 0, 1, 73, 50}";
},
{
alignment = -1;
name = "";
transform = "{1, 0, 0, 1, 73, 100}";
},
{
alignment = -1;
name = "";
transform = "{1, 0, 0, 1, 73, 150}";
},
{
alignment = -1;
name = "";
transform = "{1, 0, 0, 1, 73, 200}";
},
{
alignment = -1;
name = "";
transform = "{1, 0, 0, 1, 73, 250}";
},
{
alignment = -1;
name = "";
transform = "{1, 0, 0, 1, 73, 300}";
},
{
alignment = -1;
name = "";
transform = "{1, 0, 0, 1, 73, 350}";
},
{
alignment = -1;
name = "";
transform = "{1, 0, 0, 1, 123, 0}";
},
{
alignment = -1;
name = "";
transform = "{1, 0, 0, 1, 123, 50}";
},
{
alignment = -1;
name = "";
transform = "{1, 0, 0, 1, 123, 100}";
},
{
alignment = -1;
name = "";
transform = "{1, 0, 0, 1, 123, 400}";
},
{
alignment = -1;
name = "";
transform = "{1, 0, 0, 1, 173, 0}";
},
{
alignment = -1;
name = "";
transform = "{1, 0, 0, 1, 173, 50}";
},
{
alignment = -1;
name = "";
transform = "{1, 0, 0, 1, 173, 100}";
},
{
alignment = -1;
name = "";
transform = "{1, 0, 0, 1, 173, 450}";
},
{
alignment = -1;
name = "";
transform = "{1, 0, 0, 1, 223, 0}";
},
{
alignment = -1;
name = "";
transform = "{1, 0, 0, 1, 223, 50}";
},
{
alignment = -1;
name = "";
transform = "{1, 0, 0, 1, 223, 100}";
},
{
alignment = -1;
name = "";
transform = "{1, 0, 0, 1, 223, 450}";
},
{
alignment = -1;
name = "";
transform = "{1, 0, 0, 1, 273, 0}";
},
{
alignment = -1;
name = "";
transform = "{1, 0, 0, 1, 273, 50}";
},
{
alignment = -1;
name = "";
transform = "{1, 0, 0, 1, 273, 100}";
},
{
alignment = -1;
name = "";
transform = "{1, 0, 0, 1, 273, 450}";
},
{
alignment = -1;
name = "";
transform = "{1, 0, 0, 1, 323, 0}";
},
{
alignment = -1;
name = "";
transform = "{1, 0, 0, 1, 323, 50}";
},
{
alignment = -1;
name = "";
transform = "{1, 0, 0, 1, 323, 100}";
},
{
alignment = -1;
name = "";
transform = "{1, 0, 0, 1, 323, 450}";
},
{
alignment = -1;
name = "";
transform = "{1, 0, 0, 1, 373, 0}";
},
{
alignment = -1;
name = "";
transform = "{1, 0, 0, 1, 373, 50}";
},
{
alignment = -1;
name = "";
transform = "{1, 0, 0, 1, 373, 100}";
},
{
alignment = -1;
name = "";
transform = "{1, 0, 0, 1, 373, 450}";
},
{
alignment = -1;
name = "";
transform = "{1, 0, 0, 1, 423, 50}";
},
{
alignment = -1;
name = "";
transform = "{1, 0, 0, 1, 423, 100}";
},
{
alignment = -1;
name = "";
transform = "{1, 0, 0, 1, 423, 150}";
},
{
alignment = -1;
name = "";
transform = "{1, 0, 0, 1, 423, 200}";
},
{
alignment = -1;
name = "";
transform = "{1, 0, 0, 1, 423, 250}";
},
{
alignment = -1;
name = "";
transform = "{1, 0, 0, 1, 423, 300}";
},
{
alignment = -1;
name = "";
transform = "{1, 0, 0, 1, 423, 350}";
},
{
alignment = -1;
name = "";
transform = "{1, 0, 0, 1, 423, 400}";
},
{
alignment = -1;
name = "";
transform = "{1, 0, 0, 1, 423, 450}";
},
{
alignment = -1;
name = "";
transform = "{1, 0, 0, 1, 423, 500}";
},
{
alignment = -1;
name = "";
transform = "{1, 0, 0, 1, 473, 0}";
},
{
alignment = -1;
name = "";
transform = "{1, 0, 0, 1, 473, 50}";
},
{
alignment = -1;
name = "";
transform = "{1, 0, 0, 1, 473, 100}";
},
{
alignment = -1;
name = "";
transform = "{1, 0, 0, 1, 473, 150}";
},
{
alignment = -1;
name = "";
transform = "{1, 0, 0, 1, 473, 200}";
},
{
alignment = -1;
name = "";
transform = "{1, 0, 0, 1, 473, 250}";
},
{
alignment = -1;
name = "";
transform = "{1, 0, 0, 1, 473, 300}";
},
{
alignment = -1;
name = "";
transform = "{1, 0, 0, 1, 473, 350}";
}
);
paths = (
{
closed = 1;
nodes = (
"432 525 LINE",
"483 525 LINE",
"550 0 LINE",
"460 0 LINE",
"460 82 LINE",
"422 17 OFFCURVE",
"350 -14 OFFCURVE",
"270 -14 CURVE SMOOTH",
"108 -14 OFFCURVE",
"8 105 OFFCURVE",
"53 273 CURVE SMOOTH",
"92 419 OFFCURVE",
"179 525 OFFCURVE",
"270 525 CURVE SMOOTH",
"341 525 OFFCURVE",
"408 504 OFFCURVE",
"444 446 CURVE"
);
},
{
closed = 1;
nodes = (
"85 175 OFFCURVE",
"108 136 OFFCURVE",
"258 138 CURVE SMOOTH",
"439 140 OFFCURVE",
"443 170 OFFCURVE",
"443 299 CURVE SMOOTH",
"443 448 OFFCURVE",
"336 476 OFFCURVE",
"269 476 CURVE",
"208 476 OFFCURVE",
"149 434 OFFCURVE",
"115 296 CURVE SMOOTH"
);
}
);
};
hints = (
{
horizontal = 1;
origin = "{0, 16}";
target = "{1, 11}";
type = TTStem;
options = 4;
},
{
horizontal = 1;
origin = "{1, 5}";
target = "{0, 10}";
type = TTStem;
options = 4;
},
{
horizontal = 1;
origin = "{0, 3}";
type = Anchor;
options = 4;
}
);
layerId = "BA196CD0-EE58-4274-B8DF-4393D3617A29";
paths = (
{
closed = 1;
nodes = (
"351 -14 OFFCURVE",
"428 12 OFFCURVE",
"483 77 CURVE",
"460 0 LINE",
"560 0 LINE",
"650 547 LINE",
"579 547 LINE",
"561 484 LINE",
"541 542 OFFCURVE",
"491 570 OFFCURVE",
"409 559 CURVE SMOOTH",
"350 551 OFFCURVE",
"231 524 OFFCURVE",
"138 317 CURVE SMOOTH",
"43 105 OFFCURVE",
"114 -14 OFFCURVE",
"271 -14 CURVE SMOOTH"
);
},
{
closed = 1;
nodes = (
"172 138 OFFCURVE",
"168 191 OFFCURVE",
"204 280 CURVE SMOOTH",
"260 419 OFFCURVE",
"361 474 OFFCURVE",
"417 474 CURVE",
"484 474 OFFCURVE",
"548 457 OFFCURVE",
"508 305 CURVE SMOOTH",
"494 256 OFFCURVE",
"451 138 OFFCURVE",
"290 138 CURVE SMOOTH"
);
}
);
userData = {
com.hugojourdan.ColorFlow = {
"0" = 0;
"1" = 0;
"10" = 0;
"11" = 0;
"2" = 0;
"3" = 0;
"4" = 0;
"5" = 0;
"6" = 0;
"7" = 0;
"8" = 0;
"9" = 0;
};
};
width = 755;
},
{
anchors = (
{
name = abovecomb;
position = "{503, 652}";
},
{
name = bottom;
position = "{302, -146}";
},
{
name = bottomright;
position = "{563, 0}";
},
{
name = top;
position = "{533, 676}";
}
);
background = {
components = (
{
alignment = -1;
name = "";
transform = "{1, 0, 0, 1, 65, 150}";
},
{
alignment = -1;
name = "";
transform = "{1, 0, 0, 1, 65, 200}";
},
{
alignment = -1;
name = "";
transform = "{1, 0, 0, 1, 115, 50}";
},
{
alignment = -1;
name = "";
transform = "{1, 0, 0, 1, 115, 100}";
},
{
alignment = -1;
name = "";
transform = "{1, 0, 0, 1, 115, 150}";
},
{
alignment = -1;
name = "";
transform = "{1, 0, 0, 1, 115, 200}";
},
{
alignment = -1;
name = "";
transform = "{1, 0, 0, 1, 115, 250}";
},
{
alignment = -1;
name = "";
transform = "{1, 0, 0, 1, 115, 300}";
},
{
alignment = -1;
name = "";
transform = "{1, 0, 0, 1, 115, 350}";
},
{
alignment = -1;
name = "";
transform = "{1, 0, 0, 1, 165, 0}";
},
{
alignment = -1;
name = "";
transform = "{1, 0, 0, 1, 165, 50}";
},
{
alignment = -1;
name = "";
transform = "{1, 0, 0, 1, 165, 100}";
},
{
alignment = -1;
name = "";
transform = "{1, 0, 0, 1, 165, 400}";
},
{
alignment = -1;
name = "";
transform = "{1, 0, 0, 1, 215, 0}";
},
{
alignment = -1;
name = "";
transform = "{1, 0, 0, 1, 215, 50}";
},
{
alignment = -1;
name = "";
transform = "{1, 0, 0, 1, 215, 100}";
},
{
alignment = -1;
name = "";
transform = "{1, 0, 0, 1, 215, 450}";
},
{
alignment = -1;
name = "";
transform = "{1, 0, 0, 1, 265, 0}";
},
{
alignment = -1;
name = "";
transform = "{1, 0, 0, 1, 265, 50}";
},
{
alignment = -1;
name = "";
transform = "{1, 0, 0, 1, 265, 100}";
},
{
alignment = -1;
name = "";
transform = "{1, 0, 0, 1, 265, 450}";
},
{
alignment = -1;
name = "";
transform = "{1, 0, 0, 1, 315, 0}";
},
{
alignment = -1;
name = "";
transform = "{1, 0, 0, 1, 315, 50}";
},
{
alignment = -1;
name = "";
transform = "{1, 0, 0, 1, 315, 100}";
},
{
alignment = -1;
name = "";
transform = "{1, 0, 0, 1, 315, 450}";
},
{
alignment = -1;
name = "";
transform = "{1, 0, 0, 1, 365, 0}";
},
{
alignment = -1;
name = "";
transform = "{1, 0, 0, 1, 365, 50}";
},
{
alignment = -1;
name = "";
transform = "{1, 0, 0, 1, 365, 100}";
},
{
alignment = -1;
name = "";
transform = "{1, 0, 0, 1, 365, 450}";
},
{
alignment = -1;
name = "";
transform = "{1, 0, 0, 1, 415, 0}";
},
{
alignment = -1;
name = "";
transform = "{1, 0, 0, 1, 415, 50}";
},
{
alignment = -1;
name = "";
transform = "{1, 0, 0, 1, 415, 100}";
},
{
alignment = -1;
name = "";
transform = "{1, 0, 0, 1, 415, 450}";
},
{
alignment = -1;
name = "";
transform = "{1, 0, 0, 1, 465, 50}";
},
{
alignment = -1;
name = "";
transform = "{1, 0, 0, 1, 465, 100}";
},
{
alignment = -1;
name = "";
transform = "{1, 0, 0, 1, 465, 150}";
},
{
alignment = -1;
name = "";
transform = "{1, 0, 0, 1, 465, 200}";
},
{
alignment = -1;
name = "";
transform = "{1, 0, 0, 1, 465, 250}";
},
{
alignment = -1;
name = "";
transform = "{1, 0, 0, 1, 465, 300}";
},
{
alignment = -1;
name = "";
transform = "{1, 0, 0, 1, 465, 350}";
},
{
alignment = -1;
name = "";
transform = "{1, 0, 0, 1, 465, 400}";
},
{
alignment = -1;
name = "";
transform = "{1, 0, 0, 1, 465, 450}";
},
{
alignment = -1;
name = "";
transform = "{1, 0, 0, 1, 465, 500}";
},
{
alignment = -1;
name = "";
transform = "{1, 0, 0, 1, 515, 0}";
},
{
alignment = -1;
name = "";
transform = "{1, 0, 0, 1, 515, 50}";
},
{
alignment = -1;
name = "";
transform = "{1, 0, 0, 1, 515, 100}";
},
{
alignment = -1;
name = "";
transform = "{1, 0, 0, 1, 515, 150}";
},
{
alignment = -1;
name = "";
transform = "{1, 0, 0, 1, 515, 200}";
},
{
alignment = -1;
name = "";
transform = "{1, 0, 0, 1, 515, 250}";
},
{
alignment = -1;
name = "";
transform = "{1, 0, 0, 1, 515, 300}";
},
{
alignment = -1;
name = "";
transform = "{1, 0, 0, 1, 515, 350}";
}
);
paths = (
{
closed = 1;
nodes = (
"474 525 LINE",
"525 525 LINE",
"592 0 LINE",
"502 0 LINE",
"502 82 LINE",
"464 17 OFFCURVE",
"392 -14 OFFCURVE",
"312 -14 CURVE SMOOTH",
"150 -14 OFFCURVE",
"50 105 OFFCURVE",
"95 273 CURVE SMOOTH",
"134 419 OFFCURVE",
"221 525 OFFCURVE",
"312 525 CURVE SMOOTH",
"383 525 OFFCURVE",
"450 504 OFFCURVE",
"486 446 CURVE"
);
},
{
closed = 1;
nodes = (
"127 175 OFFCURVE",
"150 136 OFFCURVE",
"300 138 CURVE SMOOTH",
"481 140 OFFCURVE",
"485 170 OFFCURVE",
"485 299 CURVE SMOOTH",
"485 448 OFFCURVE",
"378 476 OFFCURVE",
"311 476 CURVE",
"250 476 OFFCURVE",
"191 434 OFFCURVE",
"157 296 CURVE SMOOTH"
);
}
);
};
layerId = "BBDB329E-CE83-4304-A6B1-53EA5ACC004E";
paths = (
{
closed = 1;
nodes = (
"378 -20 OFFCURVE",
"438 -3 OFFCURVE",
"489 31 CURVE",
"474 -2 LINE",
"622 -2 LINE",
"710 562 LINE",
"594 562 LINE",
"581 525 LINE",
"551 546 OFFCURVE",
"496 566 OFFCURVE",
"451 567 CURVE SMOOTH",
"308 570 OFFCURVE",
"198 435 OFFCURVE",
"146 265 CURVE SMOOTH",
"93 93 OFFCURVE",
"144 -20 OFFCURVE",
"314 -20 CURVE SMOOTH"
);
},
{
closed = 1;
nodes = (
"216 165 OFFCURVE",
"205 170 OFFCURVE",
"264 281 CURVE SMOOTH",
"343 429 OFFCURVE",
"394 449 OFFCURVE",
"439 449 CURVE SMOOTH",
"557 449 OFFCURVE",
"535 385 OFFCURVE",
"537 308 CURVE SMOOTH",
"538 203 OFFCURVE",
"488 165 OFFCURVE",
"337 165 CURVE SMOOTH"
);
}
);
userData = {
com.hugojourdan.ColorFlow = {
"0" = 0;
"1" = 0;
"10" = 0;
"11" = 0;
"2" = 0;
"3" = 0;
"4" = 0;
"5" = 0;
"6" = 0;
"7" = 0;
"8" = 0;
"9" = 0;
};
};
width = 848;
}
);
leftKerningGroup = Round;
unicode = 0061;
},
{
color = 7;
glyphname = b;
lastChange = "2025-01-02 18:15:32 +0000";
layers = (
{
anchors = (
{
name = _hook_top;
position = "{322, 778}";
},
{
name = bottom;
position = "{273, -142}";
},
{
name = top;
position = "{364, 957}";
},
{
name = top_hook;
position = "{266, 749}";
}
);
hints = (
{
place = "{99, 65}";
type = Stem;
},
{
horizontal = 1;
origin = "{0, 16}";
target = "{1, 11}";
type = TTStem;
options = 4;
},
{
horizontal = 1;
origin = "{1, 5}";
target = "{0, 5}";
type = TTStem;
options = 4;
}
);
layerId = "BA196CD0-EE58-4274-B8DF-4393D3617A29";
paths = (
{
closed = 1;
nodes = (
"466 -14 OFFCURVE",
"628 115 OFFCURVE",
"674 287 CURVE SMOOTH",
"713 431 OFFCURVE",
"625 560 OFFCURVE",
"476 556 CURVE SMOOTH",
"368 553 OFFCURVE",
"298 447 OFFCURVE",
"318 522 CURVE SMOOTH",
"406 850 LINE",
"274 856 LINE",
"206 493 OFFCURVE",
"121 149 OFFCURVE",
"130 104 CURVE SMOOTH",
"136 32 OFFCURVE",
"190 -14 OFFCURVE",
"333 -14 CURVE SMOOTH"
);
},
{
closed = 1;
nodes = (
"258 146 OFFCURVE",
"250 181 OFFCURVE",
"277 283 CURVE SMOOTH",
"305 389 OFFCURVE",
"388 468 OFFCURVE",
"483 468 CURVE SMOOTH",
"579 468 OFFCURVE",
"606 398 OFFCURVE",
"579 299 CURVE SMOOTH",
"557 217 OFFCURVE",
"469 152 OFFCURVE",
"388 146 CURVE"
);
}
);
userData = {
com.hugojourdan.ColorFlow = {
"0" = 0;
"1" = 0;
"10" = 0;
"11" = 0;
"2" = 0;
"3" = 0;
"4" = 0;
"5" = 0;
"6" = 0;
"7" = 0;
"8" = 0;
"9" = 0;
};
};
width = 792;
},
{
anchors = (
{
name = _hook_top;
position = "{368, 778}";
},
{
name = bottom;
position = "{330, -179}";
},
{
name = top;
position = "{431, 979}";
},
{
name = top_hook;
position = "{146, 585}";
}
);
hints = (
{
place = "{99, 65}";
type = Stem;
}
);
layerId = "BBDB329E-CE83-4304-A6B1-53EA5ACC004E";
paths = (
{
closed = 1;
nodes = (
"564 0 OFFCURVE",
"675 79 OFFCURVE",
"710 264 CURVE SMOOTH",
"744 437 OFFCURVE",
"671 582 OFFCURVE",
"526 579 CURVE SMOOTH",
"452 577 OFFCURVE",
"378 548 OFFCURVE",
"368 513 CURVE",
"459 850 LINE",
"305 859 LINE",
"237 486 OFFCURVE",
"154 153 OFFCURVE",
"163 97 CURVE",
"172 3 OFFCURVE",
"261 -28 OFFCURVE",
"381 -17 CURVE SMOOTH"
);
},
{
closed = 1;
nodes = (
"333 173 OFFCURVE",
"315 184 OFFCURVE",
"350 280 CURVE SMOOTH",
"384 374 OFFCURVE",
"448 441 OFFCURVE",
"525 441 CURVE SMOOTH",
"598 441 OFFCURVE",
"623 395 OFFCURVE",
"600 304 CURVE",
"566 225 OFFCURVE",
"512 180 OFFCURVE",
"437 174 CURVE"
);
},
{
closed = 0;
nodes = (
"530 419 LINE",
"530 419 OFFCURVE",
"537 425 OFFCURVE",
"542 420 CURVE"
);
}
);
userData = {
com.hugojourdan.ColorFlow = {
"0" = 0;
"1" = 0;
"10" = 0;
"11" = 0;
"2" = 0;
"3" = 0;
"4" = 0;
"5" = 0;
"6" = 0;
"7" = 0;
"8" = 0;
"9" = 0;
};
};
width = 866;
}
);
rightKerningGroup = RoundRight;
unicode = 0062;
},
{
color = 7;
glyphname = c;
lastChange = "2025-01-02 18:15:32 +0000";
layers = (
{
anchors = (
{
name = bottom;
position = "{283, 0}";
},
{
name = center;
position = "{373, 295}";
},
{
name = top;
position = "{444, 622}";
},
{
name = top_hook;
position = "{507, 533}";
}
);
hints = (
{
horizontal = 1;
origin = "{0, 18}";
target = "{0, 2}";
type = TTStem;
options = 4;
}
);
layerId = "BA196CD0-EE58-4274-B8DF-4393D3617A29";
paths = (
{
closed = 1;
nodes = (
"534 558 OFFCURVE",
"480 566 OFFCURVE",
"432 565 CURVE SMOOTH",
"262 561 OFFCURVE",
"173 477 OFFCURVE",
"120 279 CURVE SMOOTH",
"72 103 OFFCURVE",
"115 7 OFFCURVE",
"318 -7 CURVE SMOOTH",
"378 -11 OFFCURVE",
"441 -7 OFFCURVE",
"496 21 CURVE",
"422 128 LINE",
"303 76 OFFCURVE",
"192 137 OFFCURVE",
"217 267 CURVE",
"258 416 OFFCURVE",
"341 481 OFFCURVE",
"439 482 CURVE SMOOTH",
"467 482 OFFCURVE",
"511 479 OFFCURVE",
"540 469 CURVE",
"553 551 LINE"
);
}
);
userData = {
com.hugojourdan.ColorFlow = {
"0" = 0;
"1" = 0;
"10" = 0;
"11" = 0;
"2" = 0;
"3" = 0;
"4" = 0;
"5" = 0;
"6" = 0;
"7" = 0;
"8" = 0;
"9" = 0;
};
};
width = 685;
},
{
anchors = (
{
name = bottom;
position = "{331, -30}";
},
{
name = center;
position = "{438, 312}";
},
{
name = top;
position = "{495, 606}";
},
{
name = top_hook;
position = "{563, 533}";
}
);
layerId = "BBDB329E-CE83-4304-A6B1-53EA5ACC004E";
paths = (
{
closed = 1;
nodes = (
"442 -6 OFFCURVE",
"480 -2 OFFCURVE",
"567 39 CURVE",
"478 177 LINE",
"354 95 OFFCURVE",
"275 138 OFFCURVE",
"299 265 CURVE",
"335 396 OFFCURVE",
"368 453 OFFCURVE",
"491 459 CURVE SMOOTH",
"531 461 OFFCURVE",
"566 461 OFFCURVE",
"619 443 CURVE",
"638 555 LINE",
"635 568 OFFCURVE",
"573 585 OFFCURVE",
"531 587 CURVE SMOOTH",
"340 596 OFFCURVE",
"204 483 OFFCURVE",
"151 282 CURVE SMOOTH",
"103 106 OFFCURVE",
"169 -6 OFFCURVE",
"375 -6 CURVE SMOOTH"
);
}
);
userData = {
com.hugojourdan.ColorFlow = {
"0" = 0;
"1" = 0;
"10" = 0;
"11" = 0;
"2" = 0;
"3" = 0;
"4" = 0;
"5" = 0;
"6" = 0;
"7" = 0;
"8" = 0;
"9" = 0;
};
};
width = 782;
}
);
leftKerningGroup = Round;
unicode = 0063;
},
{
glyphname = ccurl;
lastChange = "2025-01-01 22:37:30 +0000";
layers = (
{
anchors = (
{
name = _curl;
position = "{252, 591}";
},
{
name = bottom;
position = "{317, 0}";
},
{
name = top;
position = "{462, 540}";
}
);
hints = (
{
horizontal = 1;
origin = "{0, 23}";
type = Anchor;
options = 4;
},
{
horizontal = 1;
origin = "{0, 33}";
target = "{0, 17}";
type = TTStem;
options = 4;
},
{
horizontal = 1;
origin = "{0, 48}";
target = "{0, 2}";
type = TTStem;
options = 4;
}
);
layerId = "BA196CD0-EE58-4274-B8DF-4393D3617A29";
paths = (
{
closed = 1;
nodes = (
"567 553 OFFCURVE",
"531 560 OFFCURVE",
"504 560 CURVE SMOOTH",
"334 560 OFFCURVE",
"202 457 OFFCURVE",
"155 279 CURVE SMOOTH",
"107 103 OFFCURVE",
"144 -14 OFFCURVE",
"350 -14 CURVE SMOOTH",
"475 -14 OFFCURVE",
"627 77 OFFCURVE",
"654 177 CURVE SMOOTH",
"664 217 OFFCURVE",
"651 260 OFFCURVE",
"610 295 CURVE SMOOTH",
"581 320 OFFCURVE",
"549 334 OFFCURVE",
"518 334 CURVE SMOOTH",
"443 334 OFFCURVE",
"380 275 OFFCURVE",
"355 182 CURVE SMOOTH",
"318 46 OFFCURVE",
"286 -73 OFFCURVE",
"254 -194 CURVE",
"361 -206 LINE",
"378 -143 OFFCURVE",
"390 -81 OFFCURVE",
"404 -16 CURVE SMOOTH",
"415 36 OFFCURVE",
"424 89 OFFCURVE",
"439 146 CURVE SMOOTH",
"456 207 OFFCURVE",
"490 239 OFFCURVE",
"517 239 CURVE SMOOTH",
"531 239 OFFCURVE",
"545 235 OFFCURVE",
"558 223 CURVE SMOOTH",
"564 217 OFFCURVE",
"562 212 OFFCURVE",
"559 203 CURVE SMOOTH",
"549 164 OFFCURVE",
"457 97 OFFCURVE",
"345 97 CURVE SMOOTH",
"234 97 OFFCURVE",
"234 197 OFFCURVE",
"252 267 CURVE",
"287 400 OFFCURVE",
"358 489 OFFCURVE",
"475 489 CURVE SMOOTH",
"503 489 OFFCURVE",
"547 489 OFFCURVE",
"577 479 CURVE",
"586 546 LINE"
);
}
);
userData = {
com.hugojourdan.ColorFlow = {
"0" = 0;
"1" = 0;
"10" = 0;
"11" = 0;
"2" = 0;
"3" = 0;
"4" = 0;
"5" = 0;
"6" = 0;
"7" = 0;
"8" = 0;
"9" = 0;
};
};
width = 686;
},
{
anchors = (
{
name = _curl;
position = "{278, 469}";
},
{
name = bottom;
position = "{317, 0}";
},
{
name = top;
position = "{462, 540}";
}
);
layerId = "BBDB329E-CE83-4304-A6B1-53EA5ACC004E";
paths = (
{
closed = 1;
nodes = (
"613 568 OFFCURVE",
"552 587 OFFCURVE",
"509 587 CURVE SMOOTH",
"323 587 OFFCURVE",
"180 473 OFFCURVE",
"129 282 CURVE SMOOTH",
"72 69 OFFCURVE",
"143 -41 OFFCURVE",
"345 -41 CURVE SMOOTH",
"487 -41 OFFCURVE",
"649 60 OFFCURVE",
"680 174 CURVE SMOOTH",
"694 226 OFFCURVE",
"672 278 OFFCURVE",
"628 315 CURVE SMOOTH",
"598 341 OFFCURVE",
"560 361 OFFCURVE",
"522 361 CURVE SMOOTH",
"432 361 OFFCURVE",
"358 293 OFFCURVE",
"329 185 CURVE SMOOTH",
"289 39 OFFCURVE",
"255 -88 OFFCURVE",
"221 -218 CURVE",
"380 -236 LINE",
"400 -163 OFFCURVE",
"415 -91 OFFCURVE",
"430 -17 CURVE SMOOTH",
"441 34 OFFCURVE",
"450 87 OFFCURVE",
"465 143 CURVE SMOOTH",
"476 183 OFFCURVE",
"501 212 OFFCURVE",
"512 212 CURVE SMOOTH",
"520 212 OFFCURVE",
"528 214 OFFCURVE",
"538 204 CURVE",
"541 201 OFFCURVE",
"535 211 OFFCURVE",
"533 206 CURVE SMOOTH",
"525 174 OFFCURVE",
"425 124 OFFCURVE",
"350 124 CURVE SMOOTH",
"279 124 OFFCURVE",
"254 173 OFFCURVE",
"278 264 CURVE",
"313 396 OFFCURVE",
"379 462 OFFCURVE",
"470 462 CURVE SMOOTH",
"509 462 OFFCURVE",
"544 461 OFFCURVE",
"597 443 CURVE",
"616 555 LINE"
);
}
);
userData = {
com.hugojourdan.ColorFlow = {
"0" = 0;
"1" = 0;
"10" = 0;
"11" = 0;
"2" = 0;
"3" = 0;
"4" = 0;
"5" = 0;
"6" = 0;
"7" = 0;
"8" = 0;
"9" = 0;
};
};
width = 686;
}
);
unicode = 0255;
},
{
color = 7;
glyphname = d;
lastChange = "2025-01-02 18:15:32 +0000";
layers = (
{
anchors = (
{
name = bottom;
position = "{258, -135}";
},
{
name = bottom_hook;
position = "{521, 27}";
},
{
name = center;
position = "{444, 273}";
},
{
name = circumflexbelow;
position = "{282, -48}";
},
{
name = croat;
position = "{712, 681}";
},
{
name = ezh;
position = "{697, 601}";
},
{
name = right;
position = "{808, 674}";
},
{
name = right_el;
position = "{802, 536}";
},
{
name = top;
position = "{458, 590}";
},
{
name = top_hook;
position = "{718, 738}";
},
{
name = topright;
position = "{771, 500}";
}
);
hints = (
{
horizontal = 1;
origin = "{0, 8}";
target = "{1, 8}";
type = TTStem;
options = 4;
},
{
horizontal = 1;
origin = "{1, 2}";
target = "{0, 2}";
type = TTStem;
options = 4;
},
{
horizontal = 1;
origin = "{0, 16}";
type = Anchor;
options = 4;
},
{
horizontal = 1;
origin = "{0, 12}";
type = Anchor;
options = 4;
}
);
layerId = "BA196CD0-EE58-4274-B8DF-4393D3617A29";
paths = (
{
closed = 1;
nodes = (
"578 530 OFFCURVE",
"531 581 OFFCURVE",
"450 577 CURVE SMOOTH",
"316 570 OFFCURVE",
"172 437 OFFCURVE",
"120 279 CURVE SMOOTH",
"64 107 OFFCURVE",
"145 -11 OFFCURVE",
"301 -14 CURVE SMOOTH",
"380 -16 OFFCURVE",
"441 2 OFFCURVE",
"495 67 CURVE",
"475 0 LINE",
"569 -2 LINE",
"621 235 LINE",
"810 850 LINE",
"720 850 LINE",
"597 465 LINE"
);
},
{
closed = 1;
nodes = (
"244 385 OFFCURVE",
"329 471 OFFCURVE",
"425 471 CURVE SMOOTH",
"520 471 OFFCURVE",
"543 404 OFFCURVE",
"514 296 CURVE SMOOTH",
"482 175 OFFCURVE",
"401 149 OFFCURVE",
"326 149 CURVE SMOOTH",
"231 149 OFFCURVE",
"190 182 OFFCURVE",
"215 277 CURVE SMOOTH"
);
}
);
userData = {
com.hugojourdan.ColorFlow = {
"0" = 0;
"1" = 0;
"10" = 0;
"11" = 0;
"2" = 0;
"3" = 0;
"4" = 0;
"5" = 0;
"6" = 0;
"7" = 0;
"8" = 0;
"9" = 0;
};
};
width = 777;
},
{
anchors = (
{
name = bottom;
position = "{303, -189}";
},
{
name = bottom_hook;
position = "{557, 27}";
},
{
name = center;
position = "{758, 715}";
},
{
name = circumflexbelow;
position = "{316, -74}";
},
{
name = croat;
position = "{733, 624}";
},
{
name = ezh;
position = "{733, 601}";
},
{
name = right;
position = "{844, 674}";
},
{
name = right_el;
position = "{856, 540}";
},
{
name = top;
position = "{492, 583}";
},
{
name = top_hook;
position = "{766, 722}";
},
{
name = topright;
position = "{807, 500}";
}
);
layerId = "BBDB329E-CE83-4304-A6B1-53EA5ACC004E";
paths = (
{
closed = 1;
nodes = (
"402 -13 OFFCURVE",
"417 -5 OFFCURVE",
"512 42 CURVE",
"485 3 LINE",
"634 -1 LINE",
"684 235 LINE",
"881 850 LINE",
"737 850 LINE",
"652 584 LINE SMOOTH",
"625 496 OFFCURVE",
"601 583 OFFCURVE",
"485 583 CURVE SMOOTH",
"341 583 OFFCURVE",
"196 451 OFFCURVE",
"151 282 CURVE SMOOTH",
"110 129 OFFCURVE",
"163 -13 OFFCURVE",
"341 -13 CURVE SMOOTH"
);
},
{
closed = 1;
nodes = (
"281 176 OFFCURVE",
"255 190 OFFCURVE",
"277 274 CURVE SMOOTH",
"304 373 OFFCURVE",
"388 444 OFFCURVE",
"456 444 CURVE SMOOTH",
"524 444 OFFCURVE",
"554 391 OFFCURVE",
"527 292 CURVE SMOOTH",
"505 208 OFFCURVE",
"453 176 OFFCURVE",
"367 176 CURVE SMOOTH"
);
}
);
userData = {
com.hugojourdan.ColorFlow = {
"0" = 0;
"1" = 0;
"10" = 0;
"11" = 0;
"2" = 0;
"3" = 0;
"4" = 0;
"5" = 0;
"6" = 0;
"7" = 0;
"8" = 0;
"9" = 0;
};
};
width = 878;
}
);
leftKerningGroup = Round;
unicode = 0064;
},
{
glyphname = dzaltone;
lastChange = "2025-01-01 22:37:30 +0000";
layers = (
{
components = (
{
name = d;
},
{
name = z;
transform = "{1, 0, 0, 1, 493, -13}";
}
);
hints = (
{
horizontal = 1;
origin = "{0, 0}";
target = "{0, 3}";
type = TTStem;
options = 4;
}
);
layerId = "BA196CD0-EE58-4274-B8DF-4393D3617A29";
paths = (
{
closed = 1;
nodes = (
"659 449 LINE",
"863 449 LINE",
"879 546 LINE",
"655 546 LINE"
);
}
);
userData = {
com.hugojourdan.ColorFlow = {
"0" = 0;
"1" = 0;
"10" = 0;
"11" = 0;
"2" = 0;
"3" = 0;
"4" = 0;
"5" = 0;
"6" = 0;
"7" = 0;
"8" = 0;
"9" = 0;
};
};
width = 1167;
},
{
components = (
{
name = d;
},
{
name = z;
transform = "{1, 0, 0, 1, 493, -13}";
}
);
layerId = "BBDB329E-CE83-4304-A6B1-53EA5ACC004E";
paths = (
{
closed = 1;
nodes = (
"610 442 LINE",
"868 442 LINE",
"901 563 LINE",
"643 563 LINE"
);
}
);
userData = {
com.hugojourdan.ColorFlow = {
"0" = 0;
"1" = 0;
"10" = 0;
"11" = 0;
"2" = 0;
"3" = 0;
"4" = 0;
"5" = 0;
"6" = 0;
"7" = 0;
"8" = 0;
"9" = 0;
};
};
width = 1167;
}
);
unicode = 02A3;
},
{
glyphname = dzcurl;
lastChange = "2025-01-01 22:37:30 +0000";
layers = (
{
components = (
{
name = d;
},
{
name = zcurl;
transform = "{1, 0, 0, 1, 503, -1}";
}
);
hints = (
{
horizontal = 1;
origin = "{0, 0}";
target = "{0, 3}";
type = TTStem;
options = 4;
}
);
layerId = "BA196CD0-EE58-4274-B8DF-4393D3617A29";
paths = (
{
closed = 1;
nodes = (
"650 481 LINE",
"859 481 LINE",
"877 548 LINE",
"668 548 LINE"
);
}
);
userData = {
com.hugojourdan.ColorFlow = {
"0" = 0;
"1" = 0;
"10" = 0;
"11" = 0;
"2" = 0;
"3" = 0;
"4" = 0;
"5" = 0;
"6" = 0;
"7" = 0;
"8" = 0;
"9" = 0;
};
};
width = 1229;
},
{
components = (
{
name = d;
},
{
name = zcurl;
transform = "{1, 0, 0, 1, 503, -1}";
}
);
layerId = "BBDB329E-CE83-4304-A6B1-53EA5ACC004E";
paths = (
{
closed = 1;
nodes = (
"616 454 LINE",
"879 454 LINE",
"911 575 LINE",
"648 575 LINE"
);
}
);
userData = {
com.hugojourdan.ColorFlow = {
"0" = 0;
"1" = 0;
"10" = 0;
"11" = 0;
"2" = 0;
"3" = 0;
"4" = 0;
"5" = 0;
"6" = 0;
"7" = 0;
"8" = 0;
"9" = 0;
};
};
width = 1229;
}
);
unicode = 02A5;
},
{
color = 7;
glyphname = e;
lastChange = "2025-01-02 18:15:32 +0000";
layers = (
{
anchors = (
{
name = _hook;
position = "{472, 539}";
},
{
name = bottom;
position = "{298, -100}";
},
{
name = center;
position = "{203, 325}";
},
{
name = ogonek;
position = "{407, -7}";
},
{
name = righthook;
position = "{623, 274}";
},
{
name = top;
position = "{502, 714}";
}
);
hints = (
{
horizontal = 1;
origin = "{0, 8}";
target = "{0, 15}";
type = TTStem;
options = 4;
},
{
horizontal = 1;
origin = "{1, 2}";
target = "{0, 2}";
type = TTStem;
options = 4;
}
);
layerId = "BA196CD0-EE58-4274-B8DF-4393D3617A29";
paths = (
{
closed = 1;
nodes = (
"668 491 OFFCURVE",
"584 571 OFFCURVE",
"475 580 CURVE",
"310 580 OFFCURVE",
"173 453 OFFCURVE",
"118 274 CURVE",
"72 101 OFFCURVE",
"166 -14 OFFCURVE",
"340 -14 CURVE SMOOTH",
"411 -14 OFFCURVE",
"479 -2 OFFCURVE",
"551 26 CURVE",
"577 154 LINE",
"491 121 OFFCURVE",
"441 110 OFFCURVE",
"369 118 CURVE SMOOTH",
"232 133 OFFCURVE",
"186 186 OFFCURVE",
"211 281 CURVE",
"651 310 LINE"
);
},
{
closed = 1;
nodes = (
"263 424 OFFCURVE",
"362 506 OFFCURVE",
"466 513 CURVE SMOOTH",
"572 520 OFFCURVE",
"583 461 OFFCURVE",
"577 400 CURVE",
"245 358 LINE"
);
}
);
userData = {
com.hugojourdan.ColorFlow = {
"0" = 0;
"1" = 0;
"10" = 0;
"11" = 0;
"2" = 0;
"3" = 0;
"4" = 0;
"5" = 0;
"6" = 0;
"7" = 0;
"8" = 0;
"9" = 0;
};
};
width = 763;
},
{
anchors = (
{
name = _hook;
position = "{517, 529}";
},
{
name = bottom;
position = "{335, -192}";
},
{
name = center;
position = "{235, 300}";
},
{
name = ogonek;
position = "{454, -7}";
},
{
name = righthook;
position = "{670, 274}";
},
{
name = top;
position = "{570, 795}";
}
);
layerId = "BBDB329E-CE83-4304-A6B1-53EA5ACC004E";
paths = (
{
closed = 1;
nodes = (
"726 474 OFFCURVE",
"669 574 OFFCURVE",
"523 586 CURVE",
"521 587 LINE SMOOTH",
"345 587 OFFCURVE",
"210 475 OFFCURVE",
"149 278 CURVE",
"149 277 LINE SMOOTH",
"99 89 OFFCURVE",
"198 -23 OFFCURVE",
"387 -23 CURVE SMOOTH",
"466 -23 OFFCURVE",
"543 -9 OFFCURVE",
"628 26 CURVE",
"661 199 LINE",
"551 149 OFFCURVE",
"504 134 OFFCURVE",
"419 145 CURVE SMOOTH",
"322 158 OFFCURVE",
"269 177 OFFCURVE",
"279 253 CURVE",
"701 281 LINE"
);
},
{
closed = 1;
nodes = (
"374 440 OFFCURVE",
"446 488 OFFCURVE",
"509 486 CURVE SMOOTH",
"561 484 OFFCURVE",
"597 463 OFFCURVE",
"605 419 CURVE",
"346 393 LINE"
);
}
);
userData = {
com.hugojourdan.ColorFlow = {
"0" = 0;
"1" = 0;
"10" = 0;
"11" = 0;
"2" = 0;
"3" = 0;
"4" = 0;
"5" = 0;
"6" = 0;
"7" = 0;
"8" = 0;
"9" = 0;
};
};
width = 851;
}
);
leftKerningGroup = Round;
unicode = 0065;
},
{
glyphname = eopen;
lastChange = "2025-01-01 22:37:30 +0000";
layers = (
{
anchors = (
{
name = top;
position = "{392, 520}";
}
);
hints = (
{
horizontal = 1;
origin = "{0, 40}";
target = "{0, 6}";
type = TTStem;
options = 4;
},
{
horizontal = 1;
origin = "{0, 12}";
target = "{0, 15}";
type = TTStem;
options = 4;
},
{
horizontal = 1;
origin = "{0, 28}";
target = "{0, 21}";
type = TTStem;
options = 4;
}
);
layerId = "BA196CD0-EE58-4274-B8DF-4393D3617A29";
paths = (
{
closed = 1;
nodes = (
"296 -12 OFFCURVE",
"460 12 OFFCURVE",
"448 184 CURVE",
"371 187 LINE",
"370 84 OFFCURVE",
"311 78 OFFCURVE",
"263 79 CURVE SMOOTH",
"195 80 OFFCURVE",
"183 114 OFFCURVE",
"195 159 CURVE",
"207 204 OFFCURVE",
"261 243 OFFCURVE",
"334 242 CURVE SMOOTH",
"352 242 LINE",
"354 295 LINE",
"326 295 LINE",
"260 295 OFFCURVE",
"222 308 OFFCURVE",
"239 371 CURVE SMOOTH",
"253 425 OFFCURVE",
"322 456 OFFCURVE",
"390 456 CURVE SMOOTH",
"426 456 OFFCURVE",
"458 444 OFFCURVE",
"441 385 CURVE",
"485 382 LINE",
"509 470 OFFCURVE",
"425 500 OFFCURVE",
"385 500 CURVE SMOOTH",
"283 500 OFFCURVE",
"213 457 OFFCURVE",
"192 378 CURVE SMOOTH",
"178 324 OFFCURVE",
"199 288 OFFCURVE",
"257 265 CURVE",
"166 253 OFFCURVE",
"138 216 OFFCURVE",
"121 153 CURVE SMOOTH",
"92 46 OFFCURVE",
"162 -12 OFFCURVE",
"254 -12 CURVE SMOOTH"
);
}
);
userData = {
com.hugojourdan.ColorFlow = {
"0" = 0;
"1" = 0;
"10" = 0;
"11" = 0;
"2" = 0;
"3" = 0;
"4" = 0;
"5" = 0;
"6" = 0;
"7" = 0;
"8" = 0;
"9" = 0;
};
};
width = 492;
},
{
anchors = (
{
name = top;
position = "{392, 520}";
}
);
layerId = "BBDB329E-CE83-4304-A6B1-53EA5ACC004E";
paths = (
{
closed = 1;
nodes = (
"297 -26 OFFCURVE",
"481 -2 OFFCURVE",
"460 195 CURVE",
"359 204 LINE",
"360 102 OFFCURVE",
"315 92 OFFCURVE",
"263 93 CURVE SMOOTH",
"213 94 OFFCURVE",
"196 111 OFFCURVE",
"208 156 CURVE SMOOTH",
"218 195 OFFCURVE",
"272 228 OFFCURVE",
"334 228 CURVE SMOOTH",
"366 228 LINE",
"370 309 LINE",
"327 309 LINE SMOOTH",
"258 309 OFFCURVE",
"239 321 OFFCURVE",
"252 368 CURVE SMOOTH",
"262 408 OFFCURVE",
"320 442 OFFCURVE",
"389 442 CURVE SMOOTH",
"434 442 OFFCURVE",
"442 422 OFFCURVE",
"420 370 CURVE",
"496 367 LINE",
"533 476 OFFCURVE",
"430 514 OFFCURVE",
"386 514 CURVE SMOOTH",
"276 514 OFFCURVE",
"202 468 OFFCURVE",
"179 381 CURVE SMOOTH",
"167 334 OFFCURVE",
"182 296 OFFCURVE",
"217 272 CURVE",
"150 252 OFFCURVE",
"125 219 OFFCURVE",
"108 156 CURVE SMOOTH",
"80 52 OFFCURVE",
"140 -26 OFFCURVE",
"253 -26 CURVE SMOOTH"
);
}
);
userData = {
com.hugojourdan.ColorFlow = {
"0" = 0;
"1" = 0;
"10" = 0;
"11" = 0;
"2" = 0;
"3" = 0;
"4" = 0;
"5" = 0;
"6" = 0;
"7" = 0;
"8" = 0;
"9" = 0;
};
};
width = 492;
}
);
unicode = 025B;
},
{
glyphname = eopenreversedclosed;
lastChange = "2025-01-01 22:37:30 +0000";
layers = (
{
hints = (
{
horizontal = 1;
origin = "{0, 2}";
target = "{1, 17}";
type = TTStem;
options = 4;
},
{
horizontal = 1;
origin = "{1, 10}";
target = "{1, 9}";
type = TTStem;
options = 4;
},
{
horizontal = 1;
origin = "{0, 14}";
target = "{1, 2}";
type = TTStem;
options = 4;
}
);
layerId = "BA196CD0-EE58-4274-B8DF-4393D3617A29";
paths = (
{
closed = 1;
nodes = (
"113 125 OFFCURVE",
"153 -4 OFFCURVE",
"328 -12 CURVE SMOOTH",
"419 -16 OFFCURVE",
"509 34 OFFCURVE",
"538 141 CURVE SMOOTH",
"555 204 OFFCURVE",
"540 251 OFFCURVE",
"464 262 CURVE",
"567 288 OFFCURVE",
"573 312 OFFCURVE",
"587 366 CURVE SMOOTH",
"608 445 OFFCURVE",
"555 500 OFFCURVE",
"453 500 CURVE SMOOTH",
"255 500 OFFCURVE",
"180 375 OFFCURVE",
"148 255 CURVE SMOOTH"
);
},
{
closed = 1;
nodes = (
"233 340 OFFCURVE",
"318 456 OFFCURVE",
"444 456 CURVE SMOOTH",
"512 456 OFFCURVE",
"558 437 OFFCURVE",
"544 383 CURVE SMOOTH",
"527 320 OFFCURVE",
"468 295 OFFCURVE",
"402 295 CURVE SMOOTH",
"384 295 LINE",
"358 242 LINE",
"384 242 LINE SMOOTH",
"459 243 OFFCURVE",
"486 216 OFFCURVE",
"474 171 CURVE SMOOTH",
"462 126 OFFCURVE",
"419 79 OFFCURVE",
"351 79 CURVE SMOOTH",
"201 79 OFFCURVE",
"192 188 OFFCURVE",
"208 246 CURVE SMOOTH"
);
}
);
userData = {
com.hugojourdan.ColorFlow = {
"0" = 0;
"1" = 0;
"10" = 0;
"11" = 0;
"2" = 0;
"3" = 0;
"4" = 0;
"5" = 0;
"6" = 0;
"7" = 0;
"8" = 0;
"9" = 0;
};
};
width = 580;
},
{
layerId = "BBDB329E-CE83-4304-A6B1-53EA5ACC004E";
paths = (
{
closed = 1;
nodes = (
"77 88 OFFCURVE",
"156 -31 OFFCURVE",
"323 -39 CURVE SMOOTH",
"439 -44 OFFCURVE",
"533 24 OFFCURVE",
"564 138 CURVE SMOOTH",
"579 194 OFFCURVE",
"567 238 OFFCURVE",
"536 261 CURVE",
"587 284 OFFCURVE",
"599 310 OFFCURVE",
"613 363 CURVE SMOOTH",
"639 458 OFFCURVE",
"574 527 OFFCURVE",
"458 527 CURVE SMOOTH",
"283 527 OFFCURVE",
"170 437 OFFCURVE",
"122 258 CURVE SMOOTH"
);
},
{
closed = 1;
nodes = (
"262 349 OFFCURVE",
"349 429 OFFCURVE",
"439 429 CURVE SMOOTH",
"501 429 OFFCURVE",
"526 417 OFFCURVE",
"517 386 CURVE SMOOTH",
"507 347 OFFCURVE",
"469 322 OFFCURVE",
"407 322 CURVE SMOOTH",
"369 322 LINE",
"317 215 LINE",
"380 215 LINE SMOOTH",
"435 216 OFFCURVE",
"456 205 OFFCURVE",
"448 174 CURVE SMOOTH",
"437 136 OFFCURVE",
"400 106 OFFCURVE",
"355 106 CURVE SMOOTH",
"259 106 OFFCURVE",
"212 159 OFFCURVE",
"234 243 CURVE SMOOTH"
);
}
);
userData = {
com.hugojourdan.ColorFlow = {
"0" = 0;
"1" = 0;
"10" = 0;
"11" = 0;
"2" = 0;
"3" = 0;
"4" = 0;
"5" = 0;
"6" = 0;
"7" = 0;
"8" = 0;
"9" = 0;
};
};
width = 580;
}
);
unicode = 025E;
},
{
glyphname = esh;
lastChange = "2025-01-01 22:37:30 +0000";
layers = (
{
hints = (
{
horizontal = 1;
origin = "{0, 17}";
target = "{0, 10}";
type = TTStem;
options = 4;
},
{
horizontal = 1;
origin = "{0, 25}";
target = "{0, 2}";
type = TTStem;
options = 4;
}
);
layerId = "BA196CD0-EE58-4274-B8DF-4393D3617A29";
paths = (
{
closed = 1;
nodes = (
"1022 877 OFFCURVE",
"987 886 OFFCURVE",
"948 886 CURVE SMOOTH",
"837 886 OFFCURVE",
"743 816 OFFCURVE",
"684 682 CURVE SMOOTH",
"569 416 LINE",
"448 126 LINE",
"391 4 OFFCURVE",
"337 -46 OFFCURVE",
"266 -46 CURVE SMOOTH",
"231 -46 OFFCURVE",
"199 -37 OFFCURVE",
"169 -13 CURVE",
"16 -79 LINE",
"46 -171 OFFCURVE",
"162 -208 OFFCURVE",
"204 -208 CURVE SMOOTH",
"333 -208 OFFCURVE",
"419 -223 OFFCURVE",
"566 142 CURVE SMOOTH",
"674 416 LINE",
"786 673 LINE SMOOTH",
"828 770 OFFCURVE",
"888 818 OFFCURVE",
"959 818 CURVE SMOOTH",
"992 818 OFFCURVE",
"1017 811 OFFCURVE",
"1039 789 CURVE",
"1051 864 LINE"
);
}
);
userData = {
com.hugojourdan.ColorFlow = {
"0" = 0;
"1" = 0;
"10" = 0;
"11" = 0;
"2" = 0;
"3" = 0;
"4" = 0;
"5" = 0;
"6" = 0;
"7" = 0;
"8" = 0;
"9" = 0;
};
};
width = 859;
},
{
layerId = "BBDB329E-CE83-4304-A6B1-53EA5ACC004E";
paths = (
{
closed = 1;
nodes = (
"969 774 OFFCURVE",
"930 787 OFFCURVE",
"885 787 CURVE SMOOTH",
"772 787 OFFCURVE",
"680 719 OFFCURVE",
"623 588 CURVE SMOOTH",
"521 348 LINE",
"415 97 LINE",
"370 1 OFFCURVE",
"329 -38 OFFCURVE",
"282 -38 CURVE SMOOTH",
"253 -38 OFFCURVE",
"228 -32 OFFCURVE",
"199 -7 CURVE",
"26 -78 LINE",
"41 -190 OFFCURVE",
"175 -235 OFFCURVE",
"219 -235 CURVE SMOOTH",
"332 -235 OFFCURVE",
"428 -254 OFFCURVE",
"569 94 CURVE SMOOTH",
"666 340 LINE",
"764 563 LINE SMOOTH",
"794 634 OFFCURVE",
"838 673 OFFCURVE",
"888 673 CURVE SMOOTH",
"926 673 OFFCURVE",
"944 664 OFFCURVE",
"977 618 CURVE",
"1002 756 LINE"
);
}
);
userData = {
com.hugojourdan.ColorFlow = {
"0" = 0;
"1" = 0;
"10" = 0;
"11" = 0;
"2" = 0;
"3" = 0;
"4" = 0;
"5" = 0;
"6" = 0;
"7" = 0;
"8" = 0;
"9" = 0;
};
};
width = 859;
}
);
unicode = 0283;
},
{
glyphname = ezh;
lastChange = "2025-01-01 22:37:30 +0000";
layers = (
{
anchors = (
{
name = _ezh;
position = "{282, 623}";
},
{
name = bottom;
position = "{368, 0}";
},
{
name = center;
position = "{419, 297}";
},
{
name = top;
position = "{543, 693}";
}
);
hints = (
{
horizontal = 1;
place = "{234.43, 79.57}";
type = TTStem;
options = 4;
},
{
horizontal = 1;
origin = "{0, 9}";
target = "{0, 8}";
type = TTStem;
options = 4;
}
);
layerId = "BA196CD0-EE58-4274-B8DF-4393D3617A29";
paths = (
{
closed = 1;
nodes = (
"592 402 OFFCURVE",
"622 423 OFFCURVE",
"739 523 CURVE",
"746 592 OFFCURVE",
"748 593 OFFCURVE",
"754 662 CURVE",
"673 671 OFFCURVE",
"375 667 OFFCURVE",
"277 667 CURVE",
"261 573 LINE",
"408 572 OFFCURVE",
"543 572 OFFCURVE",
"656 573 CURVE",
"527 472 OFFCURVE",
"462 434 OFFCURVE",
"322 329 CURVE",
"304 231 LINE",
"447 244 OFFCURVE",
"548 211 OFFCURVE",
"534 132 CURVE",
"496 -17 OFFCURVE",
"334 -115 OFFCURVE",
"230 23 CURVE",
"84 -73 LINE",
"177 -198 OFFCURVE",
"303 -200 OFFCURVE",
"336 -200 CURVE SMOOTH",
"550 -200 OFFCURVE",
"620 -63 OFFCURVE",
"650 101 CURVE SMOOTH",
"668 197 OFFCURVE",
"586 305 OFFCURVE",
"468 314 CURVE"
);
}
);
userData = {
com.hugojourdan.ColorFlow = {
"0" = 0;
"1" = 0;
"10" = 0;
"11" = 0;
"2" = 0;
"3" = 0;
"4" = 0;
"5" = 0;
"6" = 0;
"7" = 0;
"8" = 0;
"9" = 0;
};
};
width = 726;
},
{
anchors = (
{
name = _ezh;
position = "{262, 623}";
},
{
name = bottom;
position = "{348, 0}";
},
{
name = center;
position = "{419, 297}";
},
{
name = top;
position = "{523, 693}";
}
);
layerId = "BBDB329E-CE83-4304-A6B1-53EA5ACC004E";
paths = (
{
closed = 1;
nodes = (
"598 389 OFFCURVE",
"635 416 OFFCURVE",
"736 502 CURVE",
"742 521 LINE",
"748 563 OFFCURVE",
"755 593 OFFCURVE",
"761 663 CURVE",
"737 694 LINE",
"648 699 OFFCURVE",
"278 693 OFFCURVE",
"234 694 CURVE",
"210 546 LINE",
"339 545 OFFCURVE",
"462 545 OFFCURVE",
"570 546 CURVE",
"467 479 OFFCURVE",
"402 437 OFFCURVE",
"277 343 CURVE",
"251 201 LINE",
"401 221 OFFCURVE",
"498 195 OFFCURVE",
"487 133 CURVE",
"449 -17 OFFCURVE",
"299 -72 OFFCURVE",
"219 57 CURVE",
"27 -68 LINE",
"127 -222 OFFCURVE",
"278 -227 OFFCURVE",
"312 -227 CURVE SMOOTH",
"508 -227 OFFCURVE",
"615 -123 OFFCURVE",
"656 100 CURVE SMOOTH",
"674 198 OFFCURVE",
"604 299 OFFCURVE",
"506 329 CURVE"
);
}
);
userData = {
com.hugojourdan.ColorFlow = {
"0" = 0;
"1" = 0;
"10" = 0;
"11" = 0;
"2" = 0;
"3" = 0;
"4" = 0;
"5" = 0;
"6" = 0;
"7" = 0;
"8" = 0;
"9" = 0;
};
};
width = 686;
}
);
unicode = 0292;
},
{
color = 7;
glyphname = f;
lastChange = "2025-01-02 18:15:32 +0000";
layers = (
{
anchors = (
{
name = _right;
position = "{177, 511}";
},
{
name = bottom;
position = "{207, 0}";
},
{
name = center;
position = "{248, 265}";
},
{
name = right;
position = "{551, 511}";
},
{
name = top;
position = "{443, 879}";
}
);
hints = (
{
horizontal = 1;
origin = "{0, 17}";
type = Anchor;
options = 4;
},
{
horizontal = 1;
place = "{458, 88}";
type = TTStem;
options = 4;
},
{
horizontal = 1;
origin = "{0, 7}";
target = "{0, 10}";
type = TTStem;
options = 4;
}
);
layerId = "BA196CD0-EE58-4274-B8DF-4393D3617A29";
paths = (
{
closed = 1;
nodes = (
"241 0 LINE",
"349 458 LINE",
"492 458 LINE",
"516 547 LINE",
"358 540 LINE",
"359 579 OFFCURVE",
"388 720 OFFCURVE",
"477 720 CURVE",
"553 720 LINE",
"573 795 LINE",
"488 795 LINE",
"385 795 OFFCURVE",
"331 767 OFFCURVE",
"274 553 CURVE",
"192 547 LINE",
"168 458 LINE",
"249 458 LINE",
"111 0 LINE"
);
}
);
userData = {
com.hugojourdan.ColorFlow = {
"0" = 0;
"1" = 0;
"10" = 0;
"11" = 0;
"2" = 0;
"3" = 0;
"4" = 0;
"5" = 0;
"6" = 0;
"7" = 0;
"8" = 0;
"9" = 0;
};
};
width = 564;
},
{
anchors = (
{
name = _right;
position = "{203, 493}";
},
{
name = bottom;
position = "{264, 0}";
},
{
name = center;
position = "{305, 265}";
},
{
name = right;
position = "{651, 493}";
},
{
name = top;
position = "{499, 876}";
}
);
layerId = "BBDB329E-CE83-4304-A6B1-53EA5ACC004E";
paths = (
{
closed = 1;
nodes = (
"326 -1 LINE",
"426 431 LINE",
"568 431 LINE",
"607 574 LINE",
"443 563 LINE",
"449 609 OFFCURVE",
"479 693 OFFCURVE",
"529 693 CURVE SMOOTH",
"630 693 LINE",
"664 822 LINE",
"550 822 LINE SMOOTH",
"420 822 OFFCURVE",
"365 767 OFFCURVE",
"312 583 CURVE",
"229 574 LINE",
"190 431 LINE",
"270 431 LINE",
"140 -1 LINE"
);
}
);
userData = {
com.hugojourdan.ColorFlow = {
"0" = 0;
"1" = 0;
"10" = 0;
"11" = 0;
"2" = 0;
"3" = 0;
"4" = 0;
"5" = 0;
"6" = 0;
"7" = 0;
"8" = 0;
"9" = 0;
};
};
width = 678;
}
);
unicode = 0066;
},
{
color = 7;
glyphname = g;
lastChange = "2025-01-02 18:15:32 +0000";
layers = (
{
anchors = (
{
name = bottom;
position = "{183, -332}";
},
{
name = commaaccent;
position = "{570, 982}";
},
{
name = stroke;
position = "{518, 247}";
},
{
name = top;
position = "{473, 627}";
},
{
name = top_hook;
position = "{588, 353}";
}
);
hints = (
{
horizontal = 1;
origin = "{0, 25}";
type = Anchor;
options = 4;
},
{
horizontal = 1;
origin = "{0, 14}";
target = "{1, 11}";
type = TTStem;
options = 4;
},
{
horizontal = 1;
origin = "{1, 5}";
target = "{0, 8}";
type = TTStem;
options = 4;
},
{
horizontal = 1;
origin = "{0, 28}";
target = "{0, 21}";
type = TTStem;
options = 4;
}
);
layerId = "BA196CD0-EE58-4274-B8DF-4393D3617A29";
paths = (
{
closed = 1;
nodes = (
"372 -261 OFFCURVE",
"471 -158 OFFCURVE",
"540 63 CURVE SMOOTH",
"691 547 LINE",
"601 547 LINE",
"556 474 LINE",
"512 515 OFFCURVE",
"494 560 OFFCURVE",
"414 560 CURVE SMOOTH",
"280 560 OFFCURVE",
"167 455 OFFCURVE",
"122 286 CURVE SMOOTH",
"76 117 OFFCURVE",
"137 -10 OFFCURVE",
"271 -10 CURVE SMOOTH",
"331 -10 OFFCURVE",
"386 13 OFFCURVE",
"448 58 CURVE",
"421 21 LINE",
"381 -44 OFFCURVE",
"301 -113 OFFCURVE",
"220 -123 CURVE SMOOTH",
"166 -130 OFFCURVE",
"120 -114 OFFCURVE",
"74 -85 CURVE",
"11 -212 LINE",
"65 -243 OFFCURVE",
"138 -261 OFFCURVE",
"201 -261 CURVE SMOOTH"
);
},
{
closed = 1;
nodes = (
"183 146 OFFCURVE",
"163 166 OFFCURVE",
"202 279 CURVE SMOOTH",
"233 367 OFFCURVE",
"284 460 OFFCURVE",
"380 460 CURVE SMOOTH",
"477 460 OFFCURVE",
"506 379 OFFCURVE",
"480 281 CURVE SMOOTH",
"453 178 OFFCURVE",
"377 146 OFFCURVE",
"280 146 CURVE SMOOTH"
);
}
);
userData = {
com.hugojourdan.ColorFlow = {
"0" = 0;
"1" = 0;
"10" = 0;
"11" = 0;
"2" = 0;
"3" = 0;
"4" = 0;
"5" = 0;
"6" = 0;
"7" = 0;
"8" = 0;
"9" = 0;
};
};
width = 739;
},
{
anchors = (
{
name = bottom;
position = "{232, -340}";
},
{
name = commaaccent;
position = "{674, 1053}";
},
{
name = stroke;
position = "{606, 279}";
},
{
name = top;
position = "{587, 699}";
},
{
name = top_hook;
position = "{645, 353}";
}
);
layerId = "BBDB329E-CE83-4304-A6B1-53EA5ACC004E";
paths = (
{
closed = 1;
nodes = (
"469 -304 OFFCURVE",
"568 -118 OFFCURVE",
"623 59 CURVE SMOOTH",
"783 574 LINE",
"645 574 LINE",
"609 517 LINE",
"580 550 OFFCURVE",
"551 587 OFFCURVE",
"476 587 CURVE SMOOTH",
"326 587 OFFCURVE",
"202 472 OFFCURVE",
"152 289 CURVE SMOOTH",
"103 106 OFFCURVE",
"176 -27 OFFCURVE",
"326 -27 CURVE SMOOTH",
"375 -27 OFFCURVE",
"418 -18 OFFCURVE",
"452 0 CURVE SMOOTH",
"463 20 LINE",
"459 -42 OFFCURVE",
"376 -143 OFFCURVE",
"275 -143 CURVE SMOOTH",
"226 -143 OFFCURVE",
"170 -137 OFFCURVE",
"105 -98 CURVE",
"20 -274 LINE",
"126 -296 OFFCURVE",
"203 -304 OFFCURVE",
"270 -304 CURVE SMOOTH"
);
},
{
closed = 1;
nodes = (
"247 173 OFFCURVE",
"239 176 OFFCURVE",
"256 277 CURVE",
"288 392 OFFCURVE",
"360 463 OFFCURVE",
"440 463 CURVE SMOOTH",
"521 463 OFFCURVE",
"545 409 OFFCURVE",
"514 294 CURVE SMOOTH",
"489 201 OFFCURVE",
"450 173 OFFCURVE",
"341 173 CURVE SMOOTH"
);
}
);
userData = {
com.hugojourdan.ColorFlow = {
"0" = 0;
"1" = 0;
"10" = 0;
"11" = 0;
"2" = 0;
"3" = 0;
"4" = 0;
"5" = 0;
"6" = 0;
"7" = 0;
"8" = 0;
"9" = 0;
};
};
width = 854;
}
);
unicode = 0067;
},
{
glyphname = "gamma-latin";
lastChange = "2025-01-01 22:37:30 +0000";
layers = (
{
hints = (
{
horizontal = 1;
origin = "{0, 23}";
target = "{0, 10}";
type = TTStem;
options = 4;
},
{
horizontal = 1;
origin = "{0, 3}";
type = Anchor;
options = 4;
}
);
layerId = "BA196CD0-EE58-4274-B8DF-4393D3617A29";
paths = (
{
closed = 1;
nodes = (
"307 477 CURVE SMOOTH",
"298 489 OFFCURVE",
"295 496 OFFCURVE",
"287 511 CURVE",
"206 459 LINE",
"213 447 OFFCURVE",
"212 446 OFFCURVE",
"218 439 CURVE SMOOTH",
"525 45 OFFCURVE",
"440 -103 OFFCURVE",
"317 -100 CURVE SMOOTH",
"161 -96 OFFCURVE",
"246 70 OFFCURVE",
"724 423 CURVE SMOOTH",
"733 429 OFFCURVE",
"736 435 OFFCURVE",
"746 444 CURVE",
"685 519 LINE",
"673 509 OFFCURVE",
"665 499 OFFCURVE",
"653 489 CURVE SMOOTH",
"195 98 OFFCURVE",
"-88 -193 OFFCURVE",
"303 -197 CURVE SMOOTH",
"627 -200 OFFCURVE",
"592 84 OFFCURVE"
);
}
);
userData = {
com.hugojourdan.ColorFlow = {
"0" = 0;
"1" = 0;
"10" = 0;
"11" = 0;
"2" = 0;
"3" = 0;
"4" = 0;
"5" = 0;
"6" = 0;
"7" = 0;
"8" = 0;
"9" = 0;
};
};
width = 704;
},
{
layerId = "BBDB329E-CE83-4304-A6B1-53EA5ACC004E";
paths = (
{
closed = 1;
nodes = (
"641 -227 OFFCURVE",
"643 61 OFFCURVE",
"328 494 CURVE SMOOTH",
"318 508 OFFCURVE",
"317 513 OFFCURVE",
"299 546 CURVE",
"172 466 LINE",
"180 451 OFFCURVE",
"191 429 OFFCURVE",
"197 421 CURVE",
"418 137 OFFCURVE",
"455 -76 OFFCURVE",
"322 -73 CURVE SMOOTH",
"183 -69 OFFCURVE",
"345 111 OFFCURVE",
"738 401 CURVE",
"747 407 OFFCURVE",
"756 417 OFFCURVE",
"784 444 CURVE",
"693 558 LINE",
"662 538 OFFCURVE",
"652 523 OFFCURVE",
"637 510 CURVE SMOOTH",
"178 118 OFFCURVE",
"-145 -219 OFFCURVE",
"298 -224 CURVE SMOOTH"
);
}
);
userData = {
com.hugojourdan.ColorFlow = {
"0" = 0;
"1" = 0;
"10" = 0;
"11" = 0;
"2" = 0;
"3" = 0;
"4" = 0;
"5" = 0;
"6" = 0;
"7" = 0;
"8" = 0;
"9" = 0;
};
};
width = 704;
}
);
unicode = 0263;
},
{
glyphname = glottalstop;
lastChange = "2025-01-01 22:37:30 +0000";
layers = (
{
anchors = (
{
name = center;
position = "{268, 217}";
}
);
hints = (
{
horizontal = 1;
place = "{671, 61.17}";
type = TTStem;
options = 4;
}
);
layerId = "BA196CD0-EE58-4274-B8DF-4393D3617A29";
paths = (
{
closed = 1;
nodes = (
"226 43 OFFCURVE",
"274 51 OFFCURVE",
"276 59 CURVE",
"285 93 OFFCURVE",
"346 312 OFFCURVE",
"358 357 CURVE SMOOTH",
"370 402 OFFCURVE",
"535 411 OFFCURVE",
"576 586 CURVE SMOOTH",
"594 668 OFFCURVE",
"578 741 OFFCURVE",
"490 762 CURVE SMOOTH",
"422 779 OFFCURVE",
"262 758 OFFCURVE",
"227 627 CURVE",
"271 621 OFFCURVE",
"286 621 OFFCURVE",
"323 621 CURVE",
"337 690 OFFCURVE",
"396 709 OFFCURVE",
"466 693 CURVE SMOOTH",
"515 683 OFFCURVE",
"523 646 OFFCURVE",
"507 586 CURVE SMOOTH",
"485 506 OFFCURVE",
"358 486 OFFCURVE",
"311 435 CURVE SMOOTH",
"269 388 OFFCURVE",
"264 374 OFFCURVE",
"247 309 CURVE SMOOTH",
"233 258 OFFCURVE",
"183 76 OFFCURVE",
"173 38 CURVE"
);
}
);
userData = {
com.hugojourdan.ColorFlow = {
"0" = 0;
"1" = 0;
"10" = 0;
"11" = 0;
"2" = 0;
"3" = 0;
"4" = 0;
"5" = 0;
"6" = 0;
"7" = 0;
"8" = 0;
"9" = 0;
};
de.kutilek.scrawl.data = <89504e470d0a1a0a0000000d4948445200000153000002580800000000fa0f5af600000724494441547801edd2311100200003b1827fcf60e2c754c00fb99e378b056edc93db98f62f60cab417e88b7ecab417e88b7ecab417e88b7ecab417e88b7ecab417e88b7ecab417e88b7ecab417e88b7ecab417e88b7ecab417e88b7ecab417e88b7ecab417e88b7ecab417e88b7ecab417e88b7ecab417e88b7ecab417e88b7ecab417e88b7ecab417e88b7ecab417e88b7ecab417e88b7ecab417e88b7ecab417e88b7ecab417e88b7ecab417e88b7ecab417e88b7ecab417e88b7ecab417e88b7ecab417e88b7ecab417e88b7ecab417e88b7ecab417e88b7ecab417e88b7ecab417e88b7ecab417e88b7ecab417e88b7ecab417e88b7ecab417e88b7ecab417e88b7ecab417e88b7ecab417e88b7ecab417e88b7ecab417e88b7ecab417e88b7ecab417e88b7ecab417e88b7ecab417e88b7ecab417e88b7ecab417e88b7ecab417e88b7ecab417e88b7ecab417e88b7ecab417e88b7ecab417e88b7ecab417e88b7ecab417e88b7ecab417e88b7ecab417e88b7ecab417e88b7ecab417e88b7ecab417e88b7ecab417e88b7ecab417e88b7ecab417e88b7ecab417e88b7ecab417e88b7ecab417e88b7ecab417e88b7ecab417e88b7ecab417e88b7ecab417e88b7ecab417e88b7ecab417e88b7ecab417e88b7ecab417e88b7ecab417e88b7ecab417e88b7ecab417e88b7ecab417e88b7ecab417e88b7ecab417e88b7ecab417e88b7ecab417e88b7ecab417e88b7ecab417e88b7ecab417e88b7ecab417e88b7ecab417e88b7ecab417e88b7ecab417e88b7ecab417e88b7ecab417e88b7ecab417e88b7ecab417e88b7ecab417e88b7ecab417e88b7ecab417e88b7ecab417e88b7ecab417e88b7ecab417e88b7ecab417e88b7ecab417e88b7ecab417e88b7ecab417e88b7ecab417e88b7ecab417e88b7ecab417e88b7ecab417e88b7ecab417e88b7ecab417e88b7ecab417e88b7ecab417e88b7ecab417e88b7ecab417e88b7ecab417e88b7ecab417e88b7ecab417e88b7ecab417e88b7ecab417e88b7ecab417e88b7ecab417e88b7ecab417e88b7ecab417e88b7ecab417e88b7ecab417e88b7ecab417e88b7ecab417e88b7ecab417e88b7ecab417e88b7ecab417e88b7ecab417e88b7ecab417e88b7ecab417e88b7ecab417e88b7ecab417e88b7ecab417e88b7ecab417e88b7ecab417e88b7ecab417e88b7ecab417e88b7ecab417e88b7ecab417e88b7ecab417e88b7ecab417e88b7ecab417e88b7ecab417e88b7ecab417e88b7ecab417e88b7ecab417e88b7ecab417e88b7ecab417e88b7ecab417e88b7ecab417e88b7ecab417e88b7ecab417e88b7ecab417e88b7ecab417e88b7ecab417e88b7ecab417e88b7ecab417e88b7ecab417e88b7ecab417e88b7ecab417e88b7ecab417e88b7ecab417e88b7ecab417e88b7ecab417e88b7ecab417e88b7ecab417e88b7ecab417e88b7ecab417e88b7ecab417e88b7ecab417e88b7ecab417e88b7ecab417e88b7ecab417e88b7ecab417e88b7ecab417e88b7ecab417e88b7ecab417e88b7ecab417e88b7ecab417e88b7ecab417e88b7ecab417e88b7ecab417e88b7ecab417e88b7ecab417e88b7ecab417e88b7ecab417e88b7ecab417e88b7ecab417e88b7ecab417e88b7ecab417e88b7ecab417e88b7ecab417e88b7ecab417e88b7ecab417e88b7ecab417e88b7ecab417e88b7ecab417e88b7ecab417e88b7ecab417e88b7ecab417e88b7ecab417e88b7ecab417e88b7ecab417e88b7ecab417e88b7ecab417e88b7ecab417e88b7ecab417e88b7ecab417e88b7ecab417e88b7ecab417e88b7ecab417e88b7ecab417e88b7ecab417e88b7ecab417e88b7ecab417e88b7ecab417e88b7ecab417e88b7ecab417e88b7ecab417e88b7ecab417e88b7ecab417e88b7ecab417e88b7ecab417e88b7ecab417e88b7ecab417e88b7ecab417e88b7ecab417e88b7ecab417e88b7ecab417e88b7ecab417e88b7ecab417e88b7ecab417e88b7ecab417e88b7ecab417e88b7ecab417e88b7ecab417e88b7ecab417e88b7ecab417e88b7ecab417e88b7ecab417e88b7ecab417e88b7ecab417e88b7ecab417e88b7ecab417e88b7ecab417e88b7ecab417e88b7ecab417e88b7ecab417e88b7ecab417e88b7ecab417e88b7ecab417e88b7ecab417e88b7ecab417e88b7ecab417e88b7ecab417e88b7ecab417e88b7ecab417e88b7ecab417e88b7ecab417e88b7ecab417e88b7ecab417e88b7ecab417e88b7ecab417e88b7ecab417e88b7ecab417e88b7ecab417e88b7ecab417e88b7ecab417e88b7ecab417e88b7ecab417e88b7ecab417e88b7ecab417e88b7ecab417e88b7ecab417e88b7ecab417e88b7ecab417e88b7ecab417e88b7ecab417e88b7ecab417e88b7ecab417e88b7ecab417e88b7ecab417e88b7ecab417e88b7ecab417e88b7ecab417e88b7ecab417e88b7ecab417e88b7ecab417e88b7ecab417e88b7ecab417e88b7ecab417e88b7ecab417e88b7ecab417e88b7ecab417e88b7ecab417e88b7ecab417e88b7ecab417e88b7eda9b7e282805af173a6a190000000049454e44ae426082>;
de.kutilek.scrawl.rect = (
-100,
-420,
678,
1200
);
de.kutilek.scrawl.size = 2;
de.kutilek.scrawl.unit = 2;
};
width = 478;
},
{
anchors = (
{
name = center;
position = "{268, 203}";
}
);
layerId = "BBDB329E-CE83-4304-A6B1-53EA5ACC004E";
paths = (
{
closed = 1;
nodes = (
"183 17 LINE",
"243 32 OFFCURVE",
"300 35 OFFCURVE",
"310 72 CURVE SMOOTH",
"319 106 OFFCURVE",
"379 326 OFFCURVE",
"391 371 CURVE SMOOTH",
"394 379 OFFCURVE",
"568 420 OFFCURVE",
"610 601 CURVE SMOOTH",
"635 710 OFFCURVE",
"596 786 OFFCURVE",
"506 807 CURVE SMOOTH",
"433 824 OFFCURVE",
"244 803 OFFCURVE",
"202 646 CURVE",
"229 607 LINE",
"281 607 OFFCURVE",
"290 607 OFFCURVE",
"355 607 CURVE",
"355 668 OFFCURVE",
"381 697 OFFCURVE",
"461 681 CURVE SMOOTH",
"490 675 OFFCURVE",
"495 655 OFFCURVE",
"481 606 CURVE SMOOTH",
"465 546 OFFCURVE",
"354 537 OFFCURVE",
"293 471 CURVE SMOOTH",
"248 422 OFFCURVE",
"241 399 OFFCURVE",
"222 329 CURVE SMOOTH",
"209 278 OFFCURVE",
"159 96 OFFCURVE",
"149 58 CURVE"
);
}
);
userData = {
com.hugojourdan.ColorFlow = {
"0" = 0;
"1" = 0;
"10" = 0;
"11" = 0;
"2" = 0;
"3" = 0;
"4" = 0;
"5" = 0;
"6" = 0;
"7" = 0;
"8" = 0;
"9" = 0;
};
};
width = 478;
}
);
unicode = 0294;
},
{
glyphname = glottalstopsmall;
lastChange = "2025-01-01 22:37:30 +0000";
layers = (
{
hints = (
{
horizontal = 1;
place = "{688, 61.59}";
type = TTStem;
options = 4;
}
);
layerId = "BA196CD0-EE58-4274-B8DF-4393D3617A29";
paths = (
{
closed = 1;
nodes = (
"276 220 OFFCURVE",
"330 220 CURVE",
"338 257 OFFCURVE",
"344 304 OFFCURVE",
"356 350 CURVE SMOOTH",
"368 395 OFFCURVE",
"533 404 OFFCURVE",
"574 579 CURVE SMOOTH",
"592 660 OFFCURVE",
"576 733 OFFCURVE",
"488 755 CURVE SMOOTH",
"420 772 OFFCURVE",
"260 750 OFFCURVE",
"225 619 CURVE",
"269 613 OFFCURVE",
"284 613 OFFCURVE",
"321 613 CURVE",
"335 683 OFFCURVE",
"393 700 OFFCURVE",
"464 685 CURVE SMOOTH",
"512 675 OFFCURVE",
"521 638 OFFCURVE",
"505 579 CURVE SMOOTH",
"483 498 OFFCURVE",
"355 478 OFFCURVE",
"309 427 CURVE SMOOTH",
"268 381 OFFCURVE",
"234 290 OFFCURVE",
"216 226 CURVE",
"253 220 OFFCURVE"
);
}
);
userData = {
com.hugojourdan.ColorFlow = {
"0" = 0;
"1" = 0;
"10" = 0;
"11" = 0;
"2" = 0;
"3" = 0;
"4" = 0;
"5" = 0;
"6" = 0;
"7" = 0;
"8" = 0;
"9" = 0;
};
};
width = 478;
},
{
layerId = "BBDB329E-CE83-4304-A6B1-53EA5ACC004E";
paths = (
{
closed = 1;
nodes = (
"314 193 OFFCURVE",
"324 193 OFFCURVE",
"406 193 CURVE",
"420 231 OFFCURVE",
"423 285 OFFCURVE",
"436 331 CURVE SMOOTH",
"438 338 OFFCURVE",
"592 375 OFFCURVE",
"629 535 CURVE SMOOTH",
"651 631 OFFCURVE",
"616 699 OFFCURVE",
"536 718 CURVE SMOOTH",
"472 735 OFFCURVE",
"306 716 OFFCURVE",
"269 577 CURVE",
"293 541 LINE",
"339 541 OFFCURVE",
"339 541 OFFCURVE",
"397 541 CURVE",
"408 603 OFFCURVE",
"427 621 OFFCURVE",
"498 607 CURVE SMOOTH",
"524 601 OFFCURVE",
"528 585 OFFCURVE",
"516 541 CURVE SMOOTH",
"502 488 OFFCURVE",
"402 480 OFFCURVE",
"349 422 CURVE SMOOTH",
"311 379 OFFCURVE",
"274 288 OFFCURVE",
"256 202 CURVE"
);
}
);
userData = {
com.hugojourdan.ColorFlow = {
"0" = 0;
"1" = 0;
"10" = 0;
"11" = 0;
"2" = 0;
"3" = 0;
"4" = 0;
"5" = 0;
"6" = 0;
"7" = 0;
"8" = 0;
"9" = 0;
};
};
width = 600;
}
);
unicode = 0242;
},
{
color = 7;
glyphname = h;
lastChange = "2025-01-03 18:53:58 +0000";
layers = (
{
anchors = (
{
name = _tshe;
position = "{301, 631}";
},
{
name = bottom;
position = "{275, -106}";
},
{
name = bottom_hook;
position = "{483, 0}";
},
{
name = cedilla;
position = "{117, 0}";
},
{
name = center;
position = "{374, 293}";
},
{
name = top;
position = "{377, 840}";
},
{
name = top_hook;
position = "{287, 514}";
}
);
hints = (
{
horizontal = 1;
origin = "{0, 8}";
type = Anchor;
options = 4;
},
{
horizontal = 1;
origin = "{0, 12}";
target = "{0, 2}";
type = TTStem;
options = 4;
},
{
horizontal = 1;
origin = "{0, 7}";
type = Anchor;
options = 4;
}
);
layerId = "BA196CD0-EE58-4274-B8DF-4393D3617A29";
paths = (
{
closed = 1;
nodes = (
"666 516 OFFCURVE",
"575 542 OFFCURVE",
"491 548 CURVE SMOOTH",
"407 554 OFFCURVE",
"384 543 OFFCURVE",
"301 489 CURVE",
"424 850 LINE",
"334 850 LINE",
"45 0 LINE",
"191 -5 LINE",
"235 360 OFFCURVE",
"334 446 OFFCURVE",
"453 446 CURVE SMOOTH",
"592 446 OFFCURVE",
"565 330 OFFCURVE",
"424 5 CURVE",
"561 0 LINE",
"627 324 LINE SMOOTH"
);
}
);
userData = {
com.hugojourdan.ColorFlow = {
"0" = 0;
"1" = 0;
"10" = 0;
"11" = 0;
"2" = 0;
"3" = 0;
"4" = 0;
"5" = 0;
"6" = 0;
"7" = 0;
"8" = 0;
"9" = 0;
};
};
width = 756;
},
{
anchors = (
{
name = _tshe;
position = "{349, 595}";
},
{
name = bottom;
position = "{322, -204}";
},
{
name = bottom_hook;
position = "{587, 0}";
},
{
name = cedilla;
position = "{171, 0}";
},
{
name = center;
position = "{399, 273}";
},
{
name = top;
position = "{454, 888}";
},
{
name = top_hook;
position = "{339, 495}";
}
);
layerId = "BBDB329E-CE83-4304-A6B1-53EA5ACC004E";
paths = (
{
closed = 1;
nodes = (
"749 511 OFFCURVE",
"702 575 OFFCURVE",
"555 575 CURVE SMOOTH",
"494 575 OFFCURVE",
"456 571 OFFCURVE",
"401 536 CURVE",
"509 850 LINE",
"365 850 LINE",
"74 -2 LINE",
"279 -11 LINE",
"327 382 OFFCURVE",
"385 449 OFFCURVE",
"516 449 CURVE SMOOTH",
"644 449 OFFCURVE",
"635 397 OFFCURVE",
"449 7 CURVE",
"648 -2 LINE",
"712 323 LINE SMOOTH"
);
}
);
userData = {
com.hugojourdan.ColorFlow = {
"0" = 0;
"1" = 0;
"10" = 0;
"11" = 0;
"2" = 0;
"3" = 0;
"4" = 0;
"5" = 0;
"6" = 0;
"7" = 0;
"8" = 0;
"9" = 0;
};
};
width = 874;
}
);
unicode = 0068;
},
{
glyphname = idotless;
lastChange = "2025-01-01 22:37:30 +0000";
layers = (
{
anchors = (
{
name = bottom;
position = "{223, 7}";
},
{
name = ogonek;
position = "{228, -8}";
},
{
name = top;
position = "{399, 630}";
}
);
hints = (
{
horizontal = 1;
origin = "{0, 0}";
type = Anchor;
options = 4;
},
{
horizontal = 1;
origin = "{0, 3}";
type = Anchor;
options = 4;
}
);
layerId = "BA196CD0-EE58-4274-B8DF-4393D3617A29";
paths = (
{
closed = 1;
nodes = (
"290 -5 LINE",
"311 187 OFFCURVE",
"364 380 OFFCURVE",
"415 545 CURVE",
"338 557 LINE",
"279 335 OFFCURVE",
"226 198 OFFCURVE",
"161 6 CURVE"
);
}
);
userData = {
com.hugojourdan.ColorFlow = {
"0" = 0;
"1" = 0;
"10" = 0;
"11" = 0;
"2" = 0;
"3" = 0;
"4" = 0;
"5" = 0;
"6" = 0;
"7" = 0;
"8" = 0;
"9" = 0;
};
};
width = 452;
},
{
anchors = (
{
name = bottom;
position = "{248, 26}";
},
{
name = ogonek;
position = "{239, -7}";
},
{
name = top;
position = "{411, 651}";
}
);
layerId = "BBDB329E-CE83-4304-A6B1-53EA5ACC004E";
paths = (
{
closed = 1;
nodes = (
"330 -11 LINE",
"351 205 OFFCURVE",
"397 364 OFFCURVE",
"454 549 CURVE",
"324 567 LINE",
"257 316 OFFCURVE",
"226 227 OFFCURVE",
"152 7 CURVE"
);
}
);
userData = {
com.hugojourdan.ColorFlow = {
"0" = 0;
"1" = 0;
"10" = 0;
"11" = 0;
"2" = 0;
"3" = 0;
"4" = 0;
"5" = 0;
"6" = 0;
"7" = 0;
"8" = 0;
"9" = 0;
};
};
width = 482;
}
);
unicode = 0131;
},
{
glyphname = "iota-latin";
lastChange = "2025-01-01 22:37:30 +0000";
layers = (
{
anchors = (
{
name = bottom;
position = "{127, 0}";
},
{
name = ogonek;
position = "{127, 0}";
},
{
name = top;
position = "{262, 517}";
}
);
hints = (
{
horizontal = 1;
origin = "{0, 7}";
type = Anchor;
options = 4;
}
);
layerId = "BA196CD0-EE58-4274-B8DF-4393D3617A29";
paths = (
{
closed = 1;
nodes = (
"267 67 LINE",
"231 67 OFFCURVE",
"222 54 OFFCURVE",
"180 77 CURVE",
"211 166 OFFCURVE",
"270 406 OFFCURVE",
"299 500 CURVE",
"222 512 LINE",
"191 395 OFFCURVE",
"173 269 OFFCURVE",
"93 50 CURVE",
"108 5 OFFCURVE",
"99 0 OFFCURVE",
"252 0 CURVE"
);
}
);
userData = {
com.hugojourdan.ColorFlow = {
"0" = 0;
"1" = 0;
"10" = 0;
"11" = 0;
"2" = 0;
"3" = 0;
"4" = 0;
"5" = 0;
"6" = 0;
"7" = 0;
"8" = 0;
"9" = 0;
};
};
width = 334;
},
{
anchors = (
{
name = bottom;
position = "{101, 0}";
},
{
name = ogonek;
position = "{101, 0}";
},
{
name = top;
position = "{236, 517}";
}
);
layerId = "BBDB329E-CE83-4304-A6B1-53EA5ACC004E";
paths = (
{
closed = 1;
nodes = (
"276 94 LINE",
"184 96 OFFCURVE",
"198 83 OFFCURVE",
"183 92 CURVE",
"222 204 OFFCURVE",
"288 470 OFFCURVE",
"309 524 CURVE",
"177 542 LINE",
"140 415 OFFCURVE",
"128 289 OFFCURVE",
"41 56 CURVE",
"44 39 LINE",
"65 -35 OFFCURVE",
"109 -25 OFFCURVE",
"245 -27 CURVE"
);
}
);
userData = {
com.hugojourdan.ColorFlow = {
"0" = 0;
"1" = 0;
"10" = 0;
"11" = 0;
"2" = 0;
"3" = 0;
"4" = 0;
"5" = 0;
"6" = 0;
"7" = 0;
"8" = 0;
"9" = 0;
};
};
width = 282;
}
);
unicode = 0269;
},
{
glyphname = jdotless;
lastChange = "2025-01-01 22:37:30 +0000";
layers = (
{
anchors = (
{
name = bottom;
position = "{269, -320}";
},
{
name = center;
position = "{517, 269}";
},
{
name = right;
position = "{356, 267}";
},
{
name = top;
position = "{603, 610}";
}
);
layerId = "BA196CD0-EE58-4274-B8DF-4393D3617A29";
paths = (
{
closed = 1;
nodes = (
"309 -124 OFFCURVE",
"208 -135 OFFCURVE",
"161 -126 CURVE",
"99 -218 LINE",
"180 -235 OFFCURVE",
"318 -219 OFFCURVE",
"358 -193 CURVE SMOOTH",
"400 -166 OFFCURVE",
"423 -127 OFFCURVE",
"458 -20 CURVE SMOOTH",
"642 557 LINE",
"549 563 LINE",
"430 161 OFFCURVE",
"393 26 OFFCURVE",
"360 -33 CURVE SMOOTH"
);
}
);
userData = {
com.hugojourdan.ColorFlow = {
"0" = 0;
"1" = 0;
"10" = 0;
"11" = 0;
"2" = 0;
"3" = 0;
"4" = 0;
"5" = 0;
"6" = 0;
"7" = 0;
"8" = 0;
"9" = 0;
};
};
width = 646;
},
{
anchors = (
{
name = bottom;
position = "{226, -320}";
},
{
name = center;
position = "{478, 313}";
},
{
name = right;
position = "{341, 245}";
},
{
name = top;
position = "{586, 674}";
}
);
layerId = "BBDB329E-CE83-4304-A6B1-53EA5ACC004E";
paths = (
{
closed = 1;
nodes = (
"217 -100 OFFCURVE",
"229 -106 OFFCURVE",
"159 -77 CURVE",
"94 -247 LINE",
"225 -255 OFFCURVE",
"295 -258 OFFCURVE",
"334 -225 CURVE SMOOTH",
"369 -196 OFFCURVE",
"382 -158 OFFCURVE",
"427 -25 CURVE SMOOTH",
"617 547 LINE",
"479 556 LINE",
"353 133 OFFCURVE",
"310 -10 OFFCURVE",
"264 -55 CURVE SMOOTH"
);
}
);
userData = {
com.hugojourdan.ColorFlow = {
"0" = 0;
"1" = 0;
"10" = 0;
"11" = 0;
"2" = 0;
"3" = 0;
"4" = 0;
"5" = 0;
"6" = 0;
"7" = 0;
"8" = 0;
"9" = 0;
};
};
width = 623;
}
);
unicode = 0237;
},
{
color = 7;
glyphname = k;
lastChange = "2025-01-02 18:15:32 +0000";
layers = (
{
anchors = (
{
name = bottom;
position = "{222, -83}";
},
{
name = stroke;
position = "{282, 624}";
},
{
name = top;
position = "{369, 862}";
},
{
name = top_hook;
position = "{235, 378}";
}
);
hints = (
{
horizontal = 1;
origin = "{0, 10}";
type = Anchor;
options = 4;
},
{
horizontal = 1;
origin = "{0, 6}";
type = Anchor;
options = 4;
}
);
layerId = "BA196CD0-EE58-4274-B8DF-4393D3617A29";
paths = (
{
closed = 1;
nodes = (
"175 0 LINE",
"228 238 LINE",
"350 0 LINE",
"555 0 LINE",
"324 299 LINE",
"556 520 LINE",
"438 520 LINE",
"258 351 LINE",
"399 793 LINE",
"299 793 LINE",
"45 0 LINE"
);
}
);
userData = {
com.hugojourdan.ColorFlow = {
"0" = 0;
"1" = 0;
"10" = 0;
"11" = 0;
"2" = 0;
"3" = 0;
"4" = 0;
"5" = 0;
"6" = 0;
"7" = 0;
"8" = 0;
"9" = 0;
};
};
width = 750;
},
{
anchors = (
{
name = bottom;
position = "{245, -176}";
},
{
name = commaaccent;
position = "{263, -118}";
},
{
name = stroke;
position = "{384, 690}";
},
{
name = top;
position = "{454, 912}";
},
{
name = top_hook;
position = "{283, 378}";
}
);
layerId = "BBDB329E-CE83-4304-A6B1-53EA5ACC004E";
paths = (
{
closed = 1;
nodes = (
"250 -2 LINE",
"288 166 LINE",
"383 -2 LINE",
"669 -2 LINE",
"409 300 LINE",
"652 525 LINE",
"486 525 LINE",
"349 407 LINE",
"504 849 LINE",
"359 849 LINE",
"74 -2 LINE"
);
}
);
userData = {
com.hugojourdan.ColorFlow = {
"0" = 0;
"1" = 0;
"10" = 0;
"11" = 0;
"2" = 0;
"3" = 0;
"4" = 0;
"5" = 0;
"6" = 0;
"7" = 0;
"8" = 0;
"9" = 0;
};
};
width = 895;
}
);
unicode = 006B;
},
{
color = 7;
glyphname = l;
lastChange = "2025-01-03 19:00:12 +0000";
layers = (
{
anchors = (
{
name = _right;
position = "{99, 512}";
},
{
name = bottom;
position = "{164, -47}";
},
{
name = center;
position = "{228, 400}";
},
{
name = dot;
position = "{322, 406}";
},
{
name = ezh;
position = "{271, 547}";
},
{
name = right;
position = "{383, 484}";
},
{
name = right_el;
position = "{496, 547}";
},
{
name = rightl;
position = "{388, 217}";
},
{
name = top;
position = "{398, 871}";
},
{
name = topright;
position = "{404, 641}";
}
);
hints = (
{
horizontal = 1;
origin = "{0, 9}";
target = "{0, 2}";
type = TTStem;
options = 4;
}
);
layerId = "BA196CD0-EE58-4274-B8DF-4393D3617A29";
paths = (
{
closed = 1;
nodes = (
"289 0 LINE",
"303 111 LINE",
"182 105 LINE",
"237 348 OFFCURVE",
"310 560 OFFCURVE",
"401 800 CURVE",
"308 811 LINE",
"192 533 OFFCURVE",
"69 117 OFFCURVE",
"51 6 CURVE"
);
}
);
userData = {
com.hugojourdan.ColorFlow = {
"0" = 0;
"1" = 0;
"10" = 0;
"11" = 0;
"2" = 0;
"3" = 0;
"4" = 0;
"5" = 0;
"6" = 0;
"7" = 0;
"8" = 0;
"9" = 0;
};
};
width = 484;
},
{
anchors = (
{
name = _right;
position = "{155, 499}";
},
{
name = bottom;
position = "{279, -139}";
},
{
name = center;
position = "{270, 400}";
},
{
name = commaaccent;
position = "{202, -141}";
},
{
name = dot;
position = "{356, 406}";
},
{
name = ezh;
position = "{313, 547}";
},
{
name = right;
position = "{425, 487}";
},
{
name = right_el;
position = "{535, 538}";
},
{
name = rightl;
position = "{400, 217}";
},
{
name = top;
position = "{489, 1027}";
},
{
name = topright;
position = "{509, 793}";
}
);
layerId = "BBDB329E-CE83-4304-A6B1-53EA5ACC004E";
paths = (
{
closed = 1;
nodes = (
"362 0 LINE",
"375 138 LINE",
"258 129 LINE",
"287 232 OFFCURVE",
"404 640 OFFCURVE",
"484 841 CURVE",
"348 859 LINE",
"230 547 OFFCURVE",
"86 53 OFFCURVE",
"78 9 CURVE"
);
}
);
userData = {
com.hugojourdan.ColorFlow = {
"0" = 0;
"1" = 0;
"10" = 0;
"11" = 0;
"2" = 0;
"3" = 0;
"4" = 0;
"5" = 0;
"6" = 0;
"7" = 0;
"8" = 0;
"9" = 0;
};
};
width = 587;
}
);
unicode = 006C;
},
{
glyphname = lbelt;
lastChange = "2025-01-03 18:59:40 +0000";
layers = (
{
anchors = (
{
name = _curl;
position = "{848, 459}";
},
{
name = bottom;
position = "{890, 0}";
},
{
name = top;
position = "{1035, 540}";
}
);
components = (
{
name = l;
transform = "{1, 0, 0, 1, 113, 0}";
}
);
hints = (
{
horizontal = 1;
origin = "{0, 37}";
target = "{0, 3}";
type = TTStem;
options = 4;
},
{
horizontal = 1;
origin = "{0, 12}";
target = "{0, 28}";
type = TTStem;
options = 4;
}
);
layerId = "BA196CD0-EE58-4274-B8DF-4393D3617A29";
paths = (
{
closed = 1;
nodes = (
"688 523 LINE",
"622 499 OFFCURVE",
"565 482 OFFCURVE",
"461 444 CURVE SMOOTH",
"371 411 OFFCURVE",
"290 440 OFFCURVE",
"287 480 CURVE SMOOTH",
"286 489 OFFCURVE",
"292 503 OFFCURVE",
"298 512 CURVE SMOOTH",
"312 530 OFFCURVE",
"327 546 OFFCURVE",
"340 551 CURVE SMOOTH",
"366 560 OFFCURVE",
"398 550 OFFCURVE",
"404 488 CURVE SMOOTH",
"408 429 OFFCURVE",
"408 372 OFFCURVE",
"410 318 CURVE SMOOTH",
"413 249 OFFCURVE",
"414 184 OFFCURVE",
"420 119 CURVE",
"509 139 LINE",
"499 264 OFFCURVE",
"488 386 OFFCURVE",
"476 527 CURVE SMOOTH",
"467 622 OFFCURVE",
"407 676 OFFCURVE",
"337 651 CURVE SMOOTH",
"308 640 OFFCURVE",
"269 624 OFFCURVE",
"237 586 CURVE SMOOTH",
"194 532 OFFCURVE",
"188 480 OFFCURVE",
"218 419 CURVE SMOOTH",
"281 290 OFFCURVE",
"435 318 OFFCURVE",
"706 415 CURVE"
);
}
);
userData = {
com.hugojourdan.ColorFlow = {
"0" = 0;
"1" = 0;
"10" = 0;
"11" = 0;
"2" = 0;
"3" = 0;
"4" = 0;
"5" = 0;
"6" = 0;
"7" = 0;
"8" = 0;
"9" = 0;
};
};
width = 672;
},
{
anchors = (
{
name = _curl;
position = "{848, 459}";
},
{
name = bottom;
position = "{890, 0}";
},
{
name = top;
position = "{1035, 540}";
}
);
components = (
{
name = l;
transform = "{1, 0, 0, 1, 77, -11}";
}
);
layerId = "BBDB329E-CE83-4304-A6B1-53EA5ACC004E";
paths = (
{
closed = 1;
nodes = (
"682 623 LINE",
"655 560 OFFCURVE",
"655 542 OFFCURVE",
"604 504 CURVE SMOOTH",
"536 453 OFFCURVE",
"355 444 OFFCURVE",
"311 471 CURVE SMOOTH",
"273 495 OFFCURVE",
"249 551 OFFCURVE",
"274 602 CURVE",
"305 643 OFFCURVE",
"348 642 OFFCURVE",
"358 642 CURVE SMOOTH",
"386 642 OFFCURVE",
"455 638 OFFCURVE",
"464 593 CURVE SMOOTH",
"476 521 OFFCURVE",
"487 479 OFFCURVE",
"487 406 CURVE SMOOTH",
"487 308 OFFCURVE",
"487 249 OFFCURVE",
"455 152 CURVE",
"640 204 LINE",
"612 372 OFFCURVE",
"615 446 OFFCURVE",
"581 632 CURVE SMOOTH",
"558 769 OFFCURVE",
"427 842 OFFCURVE",
"324 794 CURVE SMOOTH",
"270 769 OFFCURVE",
"222 737 OFFCURVE",
"190 691 CURVE SMOOTH",
"130 603 OFFCURVE",
"113 514 OFFCURVE",
"163 432 CURVE SMOOTH",
"268 255 OFFCURVE",
"536 196 OFFCURVE",
"777 514 CURVE"
);
}
);
userData = {
com.hugojourdan.ColorFlow = {
"0" = 0;
"1" = 0;
"10" = 0;
"11" = 0;
"2" = 0;
"3" = 0;
"4" = 0;
"5" = 0;
"6" = 0;
"7" = 0;
"8" = 0;
"9" = 0;
};
};
width = 672;
}
);
unicode = 026C;
},
{
glyphname = lhookretroflex;
lastChange = "2025-01-01 22:37:30 +0000";
layers = (
{
anchors = (
{
name = bottom;
position = "{139, 0}";
},
{
name = center;
position = "{319, 400}";
},
{
name = dot;
position = "{352, 406}";
},
{
name = top;
position = "{349, 685}";
},
{
name = topright;
position = "{453, 641}";
}
);
layerId = "BA196CD0-EE58-4274-B8DF-4393D3617A29";
paths = (
{
closed = 1;
nodes = (
"363 6 LINE",
"318 -162 OFFCURVE",
"164 -169 OFFCURVE",
"194 -61 CURVE SMOOTH",
"250 144 OFFCURVE",
"377 631 OFFCURVE",
"433 778 CURVE",
"350 790 LINE",
"285 614 OFFCURVE",
"152 233 OFFCURVE",
"69 -49 CURVE SMOOTH",
"37 -157 OFFCURVE",
"32 -243 OFFCURVE",
"78 -245 CURVE SMOOTH",
"308 -255 OFFCURVE",
"394 -264 OFFCURVE",
"479 14 CURVE"
);
}
);
userData = {
com.hugojourdan.ColorFlow = {
"0" = 0;
"1" = 0;
"10" = 0;
"11" = 0;
"2" = 0;
"3" = 0;
"4" = 0;
"5" = 0;
"6" = 0;
"7" = 0;
"8" = 0;
"9" = 0;
};
};
width = 555;
},
{
anchors = (
{
name = bottom;
position = "{139, 0}";
},
{
name = center;
position = "{319, 400}";
},
{
name = dot;
position = "{352, 406}";
},
{
name = top;
position = "{349, 685}";
},
{
name = topright;
position = "{453, 641}";
}
);
layerId = "BBDB329E-CE83-4304-A6B1-53EA5ACC004E";
paths = (
{
closed = 1;
nodes = (
"343 31 LINE",
"314 -121 OFFCURVE",
"198 -141 OFFCURVE",
"220 -64 CURVE SMOOTH",
"281 159 OFFCURVE",
"426 714 OFFCURVE",
"473 802 CURVE",
"334 820 LINE",
"272 657 OFFCURVE",
"137 250 OFFCURVE",
"43 -45 CURVE SMOOTH",
"1 -179 OFFCURVE",
"-1 -272 OFFCURVE",
"74 -272 CURVE SMOOTH",
"313 -272 OFFCURVE",
"418 -299 OFFCURVE",
"515 43 CURVE"
);
}
);
userData = {
com.hugojourdan.ColorFlow = {
"0" = 0;
"1" = 0;
"10" = 0;
"11" = 0;
"2" = 0;
"3" = 0;
"4" = 0;
"5" = 0;
"6" = 0;
"7" = 0;
"8" = 0;
"9" = 0;
};
};
width = 555;
}
);
unicode = 026D;
},
{
glyphname = lsdigraph;
lastChange = "2025-01-03 19:01:20 +0000";
layers = (
{
components = (
{
name = l;
},
{
name = s;
transform = "{1, 0, 0, 1, 249, 9}";
}
);
hints = (
{
horizontal = 1;
origin = "{0, 0}";
target = "{0, 3}";
type = TTStem;
options = 4;
}
);
layerId = "BA196CD0-EE58-4274-B8DF-4393D3617A29";
paths = (
{
closed = 1;
nodes = (
"51 6 LINE",
"542 -4 LINE",
"426 167 LINE",
"182 105 LINE"
);
}
);
userData = {
com.hugojourdan.ColorFlow = {
"0" = 0;
"1" = 0;
"10" = 0;
"11" = 0;
"2" = 0;
"3" = 0;
"4" = 0;
"5" = 0;
"6" = 0;
"7" = 0;
"8" = 0;
"9" = 0;
};
};
width = 858;
},
{
components = (
{
name = l;
},
{
name = s;
transform = "{1, 0, 0, 1, 231, 9}";
}
);
layerId = "BBDB329E-CE83-4304-A6B1-53EA5ACC004E";
paths = (
{
closed = 1;
nodes = (
"78 9 LINE",
"577 -12 LINE",
"448 173 LINE",
"196 154 LINE"
);
}
);
userData = {
com.hugojourdan.ColorFlow = {
"0" = 0;
"1" = 0;
"10" = 0;
"11" = 0;
"2" = 0;
"3" = 0;
"4" = 0;
"5" = 0;
"6" = 0;
"7" = 0;
"8" = 0;
"9" = 0;
};
};
width = 858;
}
);
unicode = 02AA;
},
{
glyphname = lzdigraph;
lastChange = "2025-01-01 22:37:30 +0000";
layers = (
{
components = (
{
name = l;
},
{
name = z;
transform = "{1, 0, 0, 1, 187, -1}";
}
);
hints = (
{
horizontal = 1;
origin = "{0, 0}";
target = "{0, 3}";
type = TTStem;
options = 4;
}
);
layerId = "BA196CD0-EE58-4274-B8DF-4393D3617A29";
paths = (
{
closed = 1;
nodes = (
"333 463 LINE",
"564 463 LINE",
"590 559 LINE",
"359 559 LINE"
);
}
);
userData = {
com.hugojourdan.ColorFlow = {
"0" = 0;
"1" = 0;
"10" = 0;
"11" = 0;
"2" = 0;
"3" = 0;
"4" = 0;
"5" = 0;
"6" = 0;
"7" = 0;
"8" = 0;
"9" = 0;
};
};
width = 858;
},
{
components = (
{
name = l;
},
{
name = z;
transform = "{1, 0, 0, 1, 187, -1}";
}
);
layerId = "BBDB329E-CE83-4304-A6B1-53EA5ACC004E";
paths = (
{
closed = 1;
nodes = (
"273 84 LINE",
"246 27 LINE",
"258 27 LINE",
"268 84 LINE"
);
},
{
closed = 1;
nodes = (
"344 455 LINE",
"629 455 LINE",
"661 576 LINE",
"376 576 LINE"
);
}
);
userData = {
com.hugojourdan.ColorFlow = {
"0" = 0;
"1" = 0;
"10" = 0;
"11" = 0;
"2" = 0;
"3" = 0;
"4" = 0;
"5" = 0;
"6" = 0;
"7" = 0;
"8" = 0;
"9" = 0;
};
};
width = 858;
}
);
unicode = 02AB;
},
{
color = 7;
glyphname = m;
lastChange = "2025-01-02 18:15:32 +0000";
layers = (
{
anchors = (
{
name = bottom;
position = "{477, 0}";
},
{
name = center;
position = "{584, 279}";
},
{
name = eng;
position = "{850, 11}";
},
{
name = top;
position = "{699, 598}";
}
);
hints = (
{
horizontal = 1;
origin = "{0, 8}";
type = Anchor;
options = 4;
},
{
horizontal = 1;
origin = "{0, 22}";
target = "{0, 2}";
type = TTStem;
options = 4;
},
{
horizontal = 1;
origin = "{0, 13}";
target = "{0, 2}";
type = TTStem;
options = 4;
}
);
layerId = "BA196CD0-EE58-4274-B8DF-4393D3617A29";
paths = (
{
closed = 1;
nodes = (
"649 517 OFFCURVE",
"593 564 OFFCURVE",
"513 564 CURVE SMOOTH",
"443 564 OFFCURVE",
"372 534 OFFCURVE",
"313 467 CURVE",
"347 547 LINE",
"257 547 LINE",
"45 0 LINE",
"170 0 LINE",
"283 306 LINE SMOOTH",
"314 394 OFFCURVE",
"394 471 OFFCURVE",
"486 471 CURVE SMOOTH",
"563 471 OFFCURVE",
"583 383 OFFCURVE",
"542 294 CURVE SMOOTH",
"408 0 LINE",
"532 0 LINE",
"638 273 LINE SMOOTH",
"681 384 OFFCURVE",
"745 465 OFFCURVE",
"839 465 CURVE SMOOTH",
"915 465 OFFCURVE",
"931 422 OFFCURVE",
"893 318 CURVE SMOOTH",
"774 0 LINE",
"909 0 LINE",
"977 294 LINE SMOOTH",
"1014 454 OFFCURVE",
"991 564 OFFCURVE",
"867 564 CURVE SMOOTH",
"790 564 OFFCURVE",
"724 530 OFFCURVE",
"657 447 CURVE"
);
}
);
userData = {
com.hugojourdan.ColorFlow = {
"0" = 0;
"1" = 0;
"10" = 0;
"11" = 0;
"2" = 0;
"3" = 0;
"4" = 0;
"5" = 0;
"6" = 0;
"7" = 0;
"8" = 0;
"9" = 0;
};
};
width = 1104;
},
{
anchors = (
{
name = bottom;
position = "{537, 0}";
},
{
name = center;
position = "{644, 279}";
},
{
name = eng;
position = "{910, 11}";
},
{
name = top;
position = "{789, 647}";
}
);
layerId = "BBDB329E-CE83-4304-A6B1-53EA5ACC004E";
paths = (
{
closed = 1;
nodes = (
"707 546 OFFCURVE",
"652 586 OFFCURVE",
"576 587 CURVE SMOOTH",
"521 588 OFFCURVE",
"474 579 OFFCURVE",
"428 550 CURVE",
"444 574 LINE",
"300 574 LINE",
"75 -1 LINE",
"255 -1 LINE",
"369 319 LINE SMOOTH",
"407 426 OFFCURVE",
"500 469 OFFCURVE",
"544 456 CURVE SMOOTH",
"578 446 OFFCURVE",
"621 419 OFFCURVE",
"579 330 CURVE SMOOTH",
"425 -1 LINE",
"606 -1 LINE",
"736 312 LINE SMOOTH",
"785 431 OFFCURVE",
"833 463 OFFCURVE",
"899 453 CURVE SMOOTH",
"950 445 OFFCURVE",
"956 411 OFFCURVE",
"925 326 CURVE SMOOTH",
"804 -1 LINE",
"997 -1 LINE",
"1071 322 LINE SMOOTH",
"1103 460 OFFCURVE",
"1034 572 OFFCURVE",
"930 586 CURVE SMOOTH",
"856 596 OFFCURVE",
"795 566 OFFCURVE",
"733 504 CURVE"
);
}
);
userData = {
com.hugojourdan.ColorFlow = {
"0" = 0;
"1" = 0;
"10" = 0;
"11" = 0;
"2" = 0;
"3" = 0;
"4" = 0;
"5" = 0;
"6" = 0;
"7" = 0;
"8" = 0;
"9" = 0;
};
};
width = 1222;
}
);
unicode = 006D;
},
{
glyphname = mlonglegturned;
lastChange = "2025-01-01 22:37:30 +0000";
layers = (
{
components = (
{
name = mturned;
}
);
hints = (
{
horizontal = 1;
origin = "{0, 0}";
type = Anchor;
options = 4;
}
);
layerId = "BA196CD0-EE58-4274-B8DF-4393D3617A29";
paths = (
{
closed = 1;
nodes = (
"822 -131 LINE",
"931 -131 LINE",
"1172 565 LINE",
"1048 565 LINE"
);
}
);
userData = {
com.hugojourdan.ColorFlow = {
"0" = 0;
"1" = 0;
"10" = 0;
"11" = 0;
"2" = 0;
"3" = 0;
"4" = 0;
"5" = 0;
"6" = 0;
"7" = 0;
"8" = 0;
"9" = 0;
};
};
width = 1024;
},
{
components = (
{
name = mturned;
transform = "{1, 0, 0, 1, 2, 0}";
}
);
layerId = "BBDB329E-CE83-4304-A6B1-53EA5ACC004E";
paths = (
{
closed = 1;
nodes = (
"777 -190 LINE",
"940 -190 LINE",
"1200 560 LINE",
"1022 560 LINE"
);
}
);
userData = {
com.hugojourdan.ColorFlow = {
"0" = 0;
"1" = 0;
"10" = 0;
"11" = 0;
"2" = 0;
"3" = 0;
"4" = 0;
"5" = 0;
"6" = 0;
"7" = 0;
"8" = 0;
"9" = 0;
};
};
width = 1028;
}
);
unicode = 0270;
},
{
color = 7;
glyphname = n;
lastChange = "2025-01-02 18:15:32 +0000";
layers = (
{
anchors = (
{
name = bottom;
position = "{218, -106}";
},
{
name = center;
position = "{375, 269}";
},
{
name = commaaccent;
position = "{261, 11}";
},
{
name = eng;
position = "{487, 19}";
},
{
name = right;
position = "{836, 355}";
},
{
name = top;
position = "{510, 653}";
},
{
name = topright;
position = "{174, 589}";
}
);
hints = (
{
horizontal = 1;
origin = "{0, 8}";
type = Anchor;
options = 4;
},
{
horizontal = 1;
origin = "{0, 13}";
target = "{0, 2}";
type = TTStem;
options = 4;
}
);
layerId = "BA196CD0-EE58-4274-B8DF-4393D3617A29";
paths = (
{
closed = 1;
nodes = (
"645 461 OFFCURVE",
"599 557 OFFCURVE",
"474 557 CURVE SMOOTH",
"398 557 OFFCURVE",
"352 526 OFFCURVE",
"299 504 CURVE",
"297 546 LINE",
"231 546 LINE",
"45 0 LINE",
"193 0 LINE",
"259 298 LINE SMOOTH",
"279 388 OFFCURVE",
"340 472 OFFCURVE",
"450 472 CURVE SMOOTH",
"530 472 OFFCURVE",
"544 432 OFFCURVE",
"515 335 CURVE SMOOTH",
"415 0 LINE",
"554 0 LINE",
"617 317 LINE SMOOTH"
);
}
);
userData = {
com.hugojourdan.ColorFlow = {
"0" = 0;
"1" = 0;
"10" = 0;
"11" = 0;
"2" = 0;
"3" = 0;
"4" = 0;
"5" = 0;
"6" = 0;
"7" = 0;
"8" = 0;
"9" = 0;
};
};
width = 749;
},
{
anchors = (
{
name = bottom;
position = "{294, -189}";
},
{
name = center;
position = "{434, 269}";
},
{
name = commaaccent;
position = "{358, 8}";
},
{
name = eng;
position = "{554, 19}";
},
{
name = right;
position = "{829, 355}";
},
{
name = top;
position = "{591, 724}";
},
{
name = topright;
position = "{309, 630}";
}
);
layerId = "BBDB329E-CE83-4304-A6B1-53EA5ACC004E";
paths = (
{
closed = 1;
nodes = (
"737 494 OFFCURVE",
"686 587 OFFCURVE",
"537 582 CURVE SMOOTH",
"471 580 OFFCURVE",
"424 566 OFFCURVE",
"382 543 CURVE",
"387 583 LINE",
"275 583 LINE",
"75 0 LINE",
"271 0 LINE",
"327 307 LINE SMOOTH",
"344 397 OFFCURVE",
"424 455 OFFCURVE",
"507 455 CURVE SMOOTH",
"580 455 OFFCURVE",
"599 426 OFFCURVE",
"571 350 CURVE SMOOTH",
"444 0 LINE",
"642 0 LINE",
"702 316 LINE SMOOTH"
);
}
);
userData = {
com.hugojourdan.ColorFlow = {
"0" = 0;
"1" = 0;
"10" = 0;
"11" = 0;
"2" = 0;
"3" = 0;
"4" = 0;
"5" = 0;
"6" = 0;
"7" = 0;
"8" = 0;
"9" = 0;
};
};
width = 867;
}
);
unicode = 006E;
},
{
glyphname = nhookleft;
lastChange = "2025-01-01 22:37:30 +0000";
layers = (
{
components = (
{
name = n;
transform = "{1, 0, 0, 1, 82, 0}";
}
);
hints = (
{
horizontal = 1;
origin = "{0, 10}";
target = "{0, 9}";
type = TTStem;
options = 4;
}
);
layerId = "BA196CD0-EE58-4274-B8DF-4393D3617A29";
paths = (
{
closed = 1;
nodes = (
"218 -166 OFFCURVE",
"257 -166 OFFCURVE",
"296 -166 CURVE SMOOTH",
"343 -166 OFFCURVE",
"356 -119 OFFCURVE",
"389 26 CURVE",
"247 38 LINE",
"221 -36 OFFCURVE",
"213 -58 OFFCURVE",
"137 -58 CURVE",
"117 -166 LINE"
);
}
);
userData = {
com.hugojourdan.ColorFlow = {
"0" = 0;
"1" = 0;
"10" = 0;
"11" = 0;
"2" = 0;
"3" = 0;
"4" = 0;
"5" = 0;
"6" = 0;
"7" = 0;
"8" = 0;
"9" = 0;
};
};
width = 901;
},
{
components = (
{
name = n;
transform = "{1, 0, 0, 1, 79, 0}";
}
);
layerId = "BBDB329E-CE83-4304-A6B1-53EA5ACC004E";
paths = (
{
closed = 1;
nodes = (
"226 -217 OFFCURVE",
"264 -217 OFFCURVE",
"306 -217 CURVE SMOOTH",
"380 -217 OFFCURVE",
"385 -158 OFFCURVE",
"433 26 CURVE",
"246 44 LINE",
"213 -75 OFFCURVE",
"217 -48 OFFCURVE",
"131 -55 CURVE",
"102 -217 LINE"
);
}
);
userData = {
com.hugojourdan.ColorFlow = {
"0" = 0;
"1" = 0;
"10" = 0;
"11" = 0;
"2" = 0;
"3" = 0;
"4" = 0;
"5" = 0;
"6" = 0;
"7" = 0;
"8" = 0;
"9" = 0;
};
};
width = 952;
}
);
unicode = 0272;
},
{
glyphname = nhookretroflex;
lastChange = "2025-01-01 22:37:30 +0000";
layers = (
{
anchors = (
{
name = _bottom_hook;
position = "{1070, 380}";
}
);
components = (
{
name = n;
}
);
hints = (
{
horizontal = 1;
origin = "{0, 7}";
target = "{0, 0}";
type = TTStem;
options = 4;
}
);
layerId = "BA196CD0-EE58-4274-B8DF-4393D3617A29";
paths = (
{
closed = 1;
nodes = (
"713 -68 LINE",
"637 -68 OFFCURVE",
"642 -63 OFFCURVE",
"663 16 CURVE",
"529 28 LINE",
"491 -117 OFFCURVE",
"479 -176 OFFCURVE",
"526 -176 CURVE SMOOTH",
"565 -176 OFFCURVE",
"592 -176 OFFCURVE",
"693 -176 CURVE"
);
}
);
userData = {
com.hugojourdan.ColorFlow = {
"0" = 0;
"1" = 0;
"10" = 0;
"11" = 0;
"2" = 0;
"3" = 0;
"4" = 0;
"5" = 0;
"6" = 0;
"7" = 0;
"8" = 0;
"9" = 0;
};
};
width = 741;
},
{
anchors = (
{
name = _bottom_hook;
position = "{1070, 380}";
}
);
components = (
{
name = n;
}
);
layerId = "BBDB329E-CE83-4304-A6B1-53EA5ACC004E";
paths = (
{
closed = 1;
nodes = (
"766 -92 LINE",
"684 -85 OFFCURVE",
"688 -128 OFFCURVE",
"718 -9 CURVE",
"530 9 LINE",
"481 -175 OFFCURVE",
"468 -252 OFFCURVE",
"542 -252 CURVE SMOOTH",
"584 -252 OFFCURVE",
"614 -252 OFFCURVE",
"738 -252 CURVE"
);
}
);
userData = {
com.hugojourdan.ColorFlow = {
"0" = 0;
"1" = 0;
"10" = 0;
"11" = 0;
"2" = 0;
"3" = 0;
"4" = 0;
"5" = 0;
"6" = 0;
"7" = 0;
"8" = 0;
"9" = 0;
};
};
width = 741;
}
);
unicode = 0273;
},
{
color = 7;
glyphname = o;
lastChange = "2025-01-02 18:15:32 +0000";
layers = (
{
anchors = (
{
name = _;
position = "{455, 555}";
},
{
name = bottom;
position = "{274, -137}";
},
{
name = center;
position = "{384, 290}";
},
{
name = horn;
position = "{641, 435}";
},
{
name = ogonek;
position = "{392, 0}";
},
{
name = top;
position = "{494, 703}";
},
{
name = topright;
position = "{746, 500}";
}
);
hints = (
{
horizontal = 1;
origin = "{0, 11}";
target = "{1, 11}";
type = TTStem;
options = 4;
},
{
horizontal = 1;
origin = "{1, 5}";
target = "{0, 5}";
type = TTStem;
options = 4;
}
);
layerId = "BA196CD0-EE58-4274-B8DF-4393D3617A29";
paths = (
{
closed = 1;
nodes = (
"469 -13 OFFCURVE",
"593 98 OFFCURVE",
"639 267 CURVE SMOOTH",
"686 443 OFFCURVE",
"613 560 OFFCURVE",
"451 560 CURVE SMOOTH",
"288 560 OFFCURVE",
"167 455 OFFCURVE",
"120 279 CURVE SMOOTH",
"74 110 OFFCURVE",
"144 -13 OFFCURVE",
"307 -13 CURVE SMOOTH"
);
},
{
closed = 1;
nodes = (
"218 136 OFFCURVE",
"185 153 OFFCURVE",
"220 284 CURVE SMOOTH",
"257 423 OFFCURVE",
"337 472 OFFCURVE",
"437 472 CURVE SMOOTH",
"537 472 OFFCURVE",
"584 435 OFFCURVE",
"547 296 CURVE SMOOTH",
"512 165 OFFCURVE",
"458 136 OFFCURVE",
"338 136 CURVE SMOOTH"
);
}
);
userData = {
com.hugojourdan.ColorFlow = {
"0" = 0;
"1" = 0;
"10" = 0;
"11" = 0;
"2" = 0;
"3" = 0;
"4" = 0;
"5" = 0;
"6" = 0;
"7" = 0;
"8" = 0;
"9" = 0;
};
};
width = 762;
},
{
anchors = (
{
name = bottom;
position = "{325, -157}";
},
{
name = center;
position = "{437, 312}";
},
{
name = horn;
position = "{695, 463}";
},
{
name = ogonek;
position = "{440, 0}";
},
{
name = top;
position = "{536, 683}";
},
{
name = topright;
position = "{790, 528}";
}
);
layerId = "BBDB329E-CE83-4304-A6B1-53EA5ACC004E";
paths = (
{
closed = 1;
nodes = (
"529 -13 OFFCURVE",
"657 99 OFFCURVE",
"709 292 CURVE SMOOTH",
"759 477 OFFCURVE",
"677 604 OFFCURVE",
"507 604 CURVE SMOOTH",
"337 604 OFFCURVE",
"208 495 OFFCURVE",
"158 310 CURVE SMOOTH",
"106 116 OFFCURVE",
"185 -13 OFFCURVE",
"357 -13 CURVE SMOOTH"
);
},
{
closed = 1;
nodes = (
"311 186 OFFCURVE",
"279 204 OFFCURVE",
"306 308 CURVE SMOOTH",
"334 411 OFFCURVE",
"411 484 OFFCURVE",
"490 484 CURVE SMOOTH",
"568 484 OFFCURVE",
"597 429 OFFCURVE",
"569 326 CURVE SMOOTH",
"542 222 OFFCURVE",
"479 186 OFFCURVE",
"395 186 CURVE SMOOTH"
);
}
);
userData = {
com.hugojourdan.ColorFlow = {
"0" = 0;
"1" = 0;
"10" = 0;
"11" = 0;
"2" = 0;
"3" = 0;
"4" = 0;
"5" = 0;
"6" = 0;
"7" = 0;
"8" = 0;
"9" = 0;
};
};
width = 856;
}
);
leftKerningGroup = Round;
rightKerningGroup = RoundRight;
unicode = 006F;
},
{
color = 7;
glyphname = p;
lastChange = "2025-01-02 18:15:32 +0000";
layers = (
{
anchors = (
{
name = bottom;
position = "{339, 0}";
},
{
name = center;
position = "{100, -129}";
},
{
name = top;
position = "{534, 583}";
},
{
name = top_hook;
position = "{215, 202}";
}
);
hints = (
{
place = "{141, 115}";
type = Stem;
},
{
horizontal = 1;
place = "{497, 63}";
type = Stem;
},
{
horizontal = 1;
place = "{-3, 140}";
type = Stem;
},
{
place = "{562, 63}";
type = Stem;
},
{
horizontal = 1;
origin = "{0, 17}";
type = Anchor;
options = 4;
},
{
horizontal = 1;
origin = "{0, 2}";
target = "{1, 2}";
type = TTStem;
options = 4;
},
{
horizontal = 1;
origin = "{1, 8}";
target = "{0, 8}";
type = TTStem;
options = 4;
}
);
layerId = "BA196CD0-EE58-4274-B8DF-4393D3617A29";
paths = (
{
closed = 1;
nodes = (
"260 22 OFFCURVE",
"321 -15 OFFCURVE",
"401 -15 CURVE SMOOTH",
"559 -15 OFFCURVE",
"656 120 OFFCURVE",
"698 277 CURVE SMOOTH",
"743 442 OFFCURVE",
"675 549 OFFCURVE",
"544 553 CURVE SMOOTH",
"464 555 OFFCURVE",
"401 527 OFFCURVE",
"346 462 CURVE",
"350 532 LINE",
"261 538 LINE",
"216 278 OFFCURVE",
"197 215 OFFCURVE",
"165 148 CURVE SMOOTH",
"-23 -252 LINE",
"109 -244 LINE",
"250 87 LINE"
);
},
{
closed = 1;
nodes = (
"594 202 OFFCURVE",
"544 134 OFFCURVE",
"449 134 CURVE SMOOTH",
"354 134 OFFCURVE",
"302 190 OFFCURVE",
"330 296 CURVE SMOOTH",
"359 402 OFFCURVE",
"461 473 OFFCURVE",
"544 473 CURVE SMOOTH",
"627 473 OFFCURVE",
"643 414 OFFCURVE",
"619 308 CURVE SMOOTH"
);
}
);
userData = {
com.hugojourdan.ColorFlow = {
"0" = 0;
"1" = 0;
"10" = 0;
"11" = 0;
"2" = 0;
"3" = 0;
"4" = 0;
"5" = 0;
"6" = 0;
"7" = 0;
"8" = 0;
"9" = 0;
};
};
width = 819;
},
{
anchors = (
{
name = bottom;
position = "{399, 0}";
},
{
name = center;
position = "{133, -150}";
},
{
name = top;
position = "{573, 587}";
},
{
name = top_hook;
position = "{275, 202}";
}
);
hints = (
{
place = "{141, 115}";
type = Stem;
},
{
horizontal = 1;
place = "{497, 63}";
type = Stem;
},
{
horizontal = 1;
place = "{-3, 140}";
type = Stem;
},
{
place = "{562, 63}";
type = Stem;
}
);
layerId = "BBDB329E-CE83-4304-A6B1-53EA5ACC004E";
paths = (
{
closed = 1;
nodes = (
"346 -7 OFFCURVE",
"394 -31 OFFCURVE",
"459 -31 CURVE SMOOTH",
"618 -31 OFFCURVE",
"732 78 OFFCURVE",
"782 264 CURVE SMOOTH",
"830 444 OFFCURVE",
"755 576 OFFCURVE",
"608 580 CURVE SMOOTH",
"541 582 OFFCURVE",
"484 565 OFFCURVE",
"434 525 CURVE",
"438 559 LINE",
"301 568 LINE",
"255 298 OFFCURVE",
"221 196 OFFCURVE",
"174 96 CURVE SMOOTH",
"-2 -287 LINE",
"186 -276 LINE",
"314 21 LINE"
);
},
{
closed = 1;
nodes = (
"652 198 OFFCURVE",
"610 161 OFFCURVE",
"514 161 CURVE SMOOTH",
"414 161 OFFCURVE",
"396 180 OFFCURVE",
"423 280 CURVE SMOOTH",
"456 402 OFFCURVE",
"527 466 OFFCURVE",
"605 466 CURVE SMOOTH",
"684 466 OFFCURVE",
"712 420 OFFCURVE",
"679 298 CURVE SMOOTH"
);
}
);
userData = {
com.hugojourdan.ColorFlow = {
"0" = 0;
"1" = 0;
"10" = 0;
"11" = 0;
"2" = 0;
"3" = 0;
"4" = 0;
"5" = 0;
"6" = 0;
"7" = 0;
"8" = 0;
"9" = 0;
};
};
width = 936;
}
);
rightKerningGroup = RoundRight;
unicode = 0070;
},
{
glyphname = thorn;
lastChange = "2025-01-01 22:37:30 +0000";
layers = (
{
hints = (
{
horizontal = 1;
place = "{51, 86}";
type = TTStem;
options = 4;
},
{
horizontal = 1;
origin = "{2, 5}";
target = "{1, 5}";
type = TTStem;
options = 4;
},
{
horizontal = 1;
origin = "{0, 3}";
type = Anchor;
options = 4;
}
);
layerId = "BA196CD0-EE58-4274-B8DF-4393D3617A29";
paths = (
{
closed = 1;
nodes = (
"48 -180 LINE",
"136 -180 LINE",
"382 800 LINE",
"294 800 LINE"
);
},
{
closed = 1;
nodes = (
"314 50 OFFCURVE",
"515 145 OFFCURVE",
"578 365 CURVE SMOOTH",
"625 529 OFFCURVE",
"466 636 OFFCURVE",
"322 636 CURVE",
"225 503 OFFCURVE",
"139 193 OFFCURVE",
"168 55 CURVE"
);
},
{
closed = 1;
nodes = (
"182 137 OFFCURVE",
"166 229 OFFCURVE",
"206 369 CURVE SMOOTH",
"231 454 OFFCURVE",
"304 559 OFFCURVE",
"357 559 CURVE SMOOTH",
"409 559 OFFCURVE",
"536 466 OFFCURVE",
"511 381 CURVE SMOOTH",
"470 241 OFFCURVE",
"287 137 OFFCURVE",
"235 137 CURVE SMOOTH"
);
}
);
userData = {
com.hugojourdan.ColorFlow = {
"0" = 0;
"1" = 0;
"10" = 0;
"11" = 0;
"2" = 0;
"3" = 0;
"4" = 0;
"5" = 0;
"6" = 0;
"7" = 0;
"8" = 0;
"9" = 0;
};
};
width = 560;
},
{
layerId = "BBDB329E-CE83-4304-A6B1-53EA5ACC004E";
paths = (
{
closed = 1;
nodes = (
"14 -207 LINE",
"156 -207 LINE",
"417 827 LINE",
"275 827 LINE"
);
},
{
closed = 1;
nodes = (
"165 23 LINE",
"364 23 OFFCURVE",
"547 162 OFFCURVE",
"604 362 CURVE SMOOTH",
"649 519 OFFCURVE",
"515 663 OFFCURVE",
"326 663 CURVE",
"304 655 LINE",
"194 505 OFFCURVE",
"112 187 OFFCURVE",
"143 46 CURVE"
);
},
{
closed = 1;
nodes = (
"204 164 OFFCURVE",
"200 252 OFFCURVE",
"232 365 CURVE SMOOTH",
"255 444 OFFCURVE",
"323 532 OFFCURVE",
"353 532 CURVE SMOOTH",
"412 532 OFFCURVE",
"500 436 OFFCURVE",
"485 385 CURVE SMOOTH",
"448 259 OFFCURVE",
"284 164 OFFCURVE",
"240 164 CURVE SMOOTH"
);
}
);
userData = {
com.hugojourdan.ColorFlow = {
"0" = 0;
"1" = 0;
"10" = 0;
"11" = 0;
"2" = 0;
"3" = 0;
"4" = 0;
"5" = 0;
"6" = 0;
"7" = 0;
"8" = 0;
"9" = 0;
};
};
width = 560;
}
);
unicode = 00FE;
},
{
color = 7;
glyphname = q;
lastChange = "2025-01-02 18:15:32 +0000";
layers = (
{
anchors = (
{
name = bottom;
position = "{361, 0}";
},
{
name = bottom_hook;
position = "{497, -127}";
},
{
name = top;
position = "{495, 500}";
},
{
name = top_hook;
position = "{564, 218}";
}
);
hints = (
{
horizontal = 1;
origin = "{0, 20}";
type = Anchor;
options = 4;
},
{
horizontal = 1;
origin = "{0, 16}";
target = "{1, 11}";
type = TTStem;
options = 4;
},
{
horizontal = 1;
origin = "{1, 5}";
target = "{0, 10}";
type = TTStem;
options = 4;
}
);
layerId = "BA196CD0-EE58-4274-B8DF-4393D3617A29";
paths = (
{
closed = 1;
nodes = (
"619 -156 LINE",
"677 -36 LINE",
"583 -66 LINE",
"508 -86 LINE",
"592 186 LINE",
"724 547 LINE",
"617 547 LINE",
"586 442 LINE",
"555 527 OFFCURVE",
"521 571 OFFCURVE",
"422 558 CURVE SMOOTH",
"285 540 OFFCURVE",
"166 452 OFFCURVE",
"120 280 CURVE SMOOTH",
"74 108 OFFCURVE",
"151 -7 OFFCURVE",
"281 -14 CURVE SMOOTH",
"360 -18 OFFCURVE",
"423 12 OFFCURVE",
"478 77 CURVE",
"369 -224 LINE"
);
},
{
closed = 1;
nodes = (
"200 127 OFFCURVE",
"169 167 OFFCURVE",
"212 280 CURVE SMOOTH",
"254 392 OFFCURVE",
"334 482 OFFCURVE",
"430 482 CURVE SMOOTH",
"525 482 OFFCURVE",
"542 404 OFFCURVE",
"500 292 CURVE SMOOTH",
"457 179 OFFCURVE",
"390 127 OFFCURVE",
"295 127 CURVE"
);
}
);
userData = {
com.hugojourdan.ColorFlow = {
"0" = 0;
"1" = 0;
"10" = 0;
"11" = 0;
"2" = 0;
"3" = 0;
"4" = 0;
"5" = 0;
"6" = 0;
"7" = 0;
"8" = 0;
"9" = 0;
};
};
width = 882;
},
{
anchors = (
{
name = bottom;
position = "{407, 0}";
},
{
name = bottom_hook;
position = "{543, -127}";
},
{
name = top;
position = "{541, 500}";
},
{
name = top_hook;
position = "{610, 218}";
}
);
layerId = "BBDB329E-CE83-4304-A6B1-53EA5ACC004E";
paths = (
{
closed = 1;
nodes = (
"689 -161 LINE",
"746 19 LINE",
"612 -24 LINE",
"576 -34 LINE",
"644 184 LINE",
"787 574 LINE",
"643 574 LINE",
"619 502 LINE",
"586 555 OFFCURVE",
"543 584 OFFCURVE",
"471 581 CURVE SMOOTH",
"321 575 OFFCURVE",
"200 466 OFFCURVE",
"151 282 CURVE SMOOTH",
"101 97 OFFCURVE",
"176 -31 OFFCURVE",
"325 -31 CURVE SMOOTH",
"381 -31 OFFCURVE",
"430 -21 OFFCURVE",
"472 -2 CURVE",
"377 -245 LINE"
);
},
{
closed = 1;
nodes = (
"250 164 OFFCURVE",
"237 179 OFFCURVE",
"263 277 CURVE SMOOTH",
"294 391 OFFCURVE",
"364 465 OFFCURVE",
"444 465 CURVE SMOOTH",
"525 465 OFFCURVE",
"551 409 OFFCURVE",
"520 295 CURVE SMOOTH",
"494 197 OFFCURVE",
"451 164 OFFCURVE",
"349 164 CURVE SMOOTH"
);
}
);
userData = {
com.hugojourdan.ColorFlow = {
"0" = 0;
"1" = 0;
"10" = 0;
"11" = 0;
"2" = 0;
"3" = 0;
"4" = 0;
"5" = 0;
"6" = 0;
"7" = 0;
"8" = 0;
"9" = 0;
};
};
width = 966;
},
{
associatedMasterId = "BA196CD0-EE58-4274-B8DF-4393D3617A29";
layerId = "550EFC85-22CC-4D43-B167-1DAEAAA2FB65";
name = "Regular May 31 12, 16:28";
paths = (
{
closed = 1;
nodes = (
"157 153 OFFCURVE",
"212 136 OFFCURVE",
"308 136 CURVE SMOOTH",
"403 136 OFFCURVE",
"463 153 OFFCURVE",
"463 286 CURVE SMOOTH",
"463 418 OFFCURVE",
"405 498 OFFCURVE",
"310 498 CURVE SMOOTH",
"215 498 OFFCURVE",
"157 418 OFFCURVE",
"157 286 CURVE SMOOTH"
);
},
{
closed = 1;
nodes = (
"497 82 LINE",
"459 17 OFFCURVE",
"402 -14 OFFCURVE",
"321 -14 CURVE SMOOTH",
"189 -14 OFFCURVE",
"98 101 OFFCURVE",
"98 273 CURVE SMOOTH",
"98 445 OFFCURVE",
"189 560 OFFCURVE",
"321 560 CURVE SMOOTH",
"402 560 OFFCURVE",
"459 529 OFFCURVE",
"497 464 CURVE",
"511 547 LINE",
"598 547 LINE",
"561 -118 LINE SMOOTH",
"557 -208 LINE",
"474 -208 LINE"
);
}
);
width = 718;
},
{
associatedMasterId = "BBDB329E-CE83-4304-A6B1-53EA5ACC004E";
layerId = "5892CAD6-04FA-4732-8FAB-EB7591270E8A";
name = "Regular May 31 12, 16:28";
paths = (
{
closed = 1;
nodes = (
"157 153 OFFCURVE",
"212 136 OFFCURVE",
"308 136 CURVE SMOOTH",
"403 136 OFFCURVE",
"463 153 OFFCURVE",
"463 286 CURVE SMOOTH",
"463 418 OFFCURVE",
"405 498 OFFCURVE",
"310 498 CURVE SMOOTH",
"215 498 OFFCURVE",
"157 418 OFFCURVE",
"157 286 CURVE SMOOTH"
);
},
{
closed = 1;
nodes = (
"497 82 LINE",
"459 17 OFFCURVE",
"402 -14 OFFCURVE",
"321 -14 CURVE SMOOTH",
"189 -14 OFFCURVE",
"98 101 OFFCURVE",
"98 273 CURVE SMOOTH",
"98 445 OFFCURVE",
"189 560 OFFCURVE",
"321 560 CURVE SMOOTH",
"402 560 OFFCURVE",
"459 529 OFFCURVE",
"497 464 CURVE",
"511 547 LINE",
"598 547 LINE",
"561 -118 LINE SMOOTH",
"557 -208 LINE",
"474 -208 LINE"
);
}
);
width = 718;
}
);
leftKerningGroup = Round;
unicode = 0071;
},
{
color = 7;
glyphname = r;
lastChange = "2025-01-02 15:52:05 +0000";
layers = (
{
anchors = (
{
name = _center;
position = "{262, 571}";
},
{
name = bottom;
position = "{90, -177}";
},
{
name = bottom_wide;
position = "{178, 0}";
},
{
name = center;
position = "{203, 274}";
},
{
name = top;
position = "{333, 547}";
}
);
hints = (
{
horizontal = 1;
origin = "{0, 7}";
type = Anchor;
options = 4;
}
);
layerId = "BA196CD0-EE58-4274-B8DF-4393D3617A29";
paths = (
{
closed = 1;
nodes = (
"408 543 OFFCURVE",
"378 531 OFFCURVE",
"311 489 CURVE",
"330 545 LINE",
"239 551 LINE",
"177 323 OFFCURVE",
"139 201 OFFCURVE",
"46 5 CURVE",
"224 -5 LINE",
"239 159 OFFCURVE",
"263 222 OFFCURVE",
"278 280 CURVE SMOOTH",
"304 377 OFFCURVE",
"349 461 OFFCURVE",
"516 424 CURVE",
"526 549 LINE"
);
}
);
userData = {
com.hugojourdan.ColorFlow = {
"0" = 0;
"1" = 0;
"10" = 0;
"11" = 0;
"2" = 0;
"3" = 0;
"4" = 0;
"5" = 0;
"6" = 0;
"7" = 0;
"8" = 0;
"9" = 0;
};
};
width = 597;
},
{
anchors = (
{
name = _center;
position = "{392, 519}";
},
{
name = bottom;
position = "{146, -218}";
},
{
name = bottom_wide;
position = "{226, 0}";
},
{
name = center;
position = "{268, 274}";
},
{
name = top;
position = "{408, 585}";
}
);
layerId = "BBDB329E-CE83-4304-A6B1-53EA5ACC004E";
paths = (
{
closed = 1;
nodes = (
"517 572 OFFCURVE",
"471 570 OFFCURVE",
"414 541 CURVE",
"428 567 LINE",
"285 581 LINE",
"215 322 OFFCURVE",
"185 229 OFFCURVE",
"77 7 CURVE",
"309 -11 LINE",
"323 171 OFFCURVE",
"327 183 OFFCURVE",
"341 244 CURVE SMOOTH",
"373 378 OFFCURVE",
"408 460 OFFCURVE",
"614 425 CURVE",
"618 576 LINE"
);
}
);
userData = {
com.hugojourdan.ColorFlow = {
"0" = 0;
"1" = 0;
"10" = 0;
"11" = 0;
"2" = 0;
"3" = 0;
"4" = 0;
"5" = 0;
"6" = 0;
"7" = 0;
"8" = 0;
"9" = 0;
};
};
width = 725;
}
);
unicode = 0072;
},
{
glyphname = ramshorn;
lastChange = "2025-01-01 22:37:30 +0000";
layers = (
{
anchors = (
{
name = _curl;
position = "{332, 459}";
},
{
name = bottom;
position = "{374, 0}";
},
{
name = top;
position = "{519, 540}";
}
);
hints = (
{
horizontal = 1;
origin = "{0, 11}";
target = "{0, 33}";
type = TTStem;
options = 4;
},
{
horizontal = 1;
origin = "{0, 2}";
target = "{0, 39}";
type = TTStem;
options = 4;
},
{
horizontal = 1;
origin = "{0, 20}";
target = "{0, 27}";
type = TTStem;
options = 4;
}
);
layerId = "BA196CD0-EE58-4274-B8DF-4393D3617A29";
paths = (
{
closed = 1;
nodes = (
"721 391 OFFCURVE",
"744 515 OFFCURVE",
"622 513 CURVE SMOOTH",
"494 511 OFFCURVE",
"457 432 OFFCURVE",
"367 300 CURVE SMOOTH",
"286 183 OFFCURVE",
"224 101 OFFCURVE",
"241 56 CURVE SMOOTH",
"262 5 OFFCURVE",
"284 -8 OFFCURVE",
"344 -8 CURVE SMOOTH",
"387 -8 OFFCURVE",
"439 -4 OFFCURVE",
"487 46 CURVE SMOOTH",
"536 97 OFFCURVE",
"511 167 OFFCURVE",
"489 263 CURVE SMOOTH",
"462 386 OFFCURVE",
"442 511 OFFCURVE",
"355 511 CURVE SMOOTH",
"212 511 OFFCURVE",
"195 428 OFFCURVE",
"172 345 CURVE",
"231 333 LINE",
"254 416 OFFCURVE",
"275 448 OFFCURVE",
"351 448 CURVE SMOOTH",
"411 448 OFFCURVE",
"410 350 OFFCURVE",
"414 229 CURVE SMOOTH",
"417 122 OFFCURVE",
"417 57 OFFCURVE",
"353 57 CURVE SMOOTH",
"301 57 OFFCURVE",
"337 110 OFFCURVE",
"411 219 CURVE SMOOTH",
"500 349 OFFCURVE",
"556 453 OFFCURVE",
"615 453 CURVE SMOOTH",
"658 453 OFFCURVE",
"655 403 OFFCURVE",
"644 345 CURVE",
"705 333 LINE"
);
}
);
userData = {
com.hugojourdan.ColorFlow = {
"0" = 0;
"1" = 0;
"10" = 0;
"11" = 0;
"2" = 0;
"3" = 0;
"4" = 0;
"5" = 0;
"6" = 0;
"7" = 0;
"8" = 0;
"9" = 0;
};
};
width = 696;
},
{
anchors = (
{
name = _curl;
position = "{332, 459}";
},
{
name = bottom;
position = "{374, 0}";
},
{
name = top;
position = "{519, 540}";
}
);
layerId = "BBDB329E-CE83-4304-A6B1-53EA5ACC004E";
paths = (
{
closed = 1;
nodes = (
"747 389 OFFCURVE",
"775 542 OFFCURVE",
"626 540 CURVE SMOOTH",
"477 538 OFFCURVE",
"433 443 OFFCURVE",
"344 313 CURVE SMOOTH",
"265 198 OFFCURVE",
"194 103 OFFCURVE",
"218 44 CURVE SMOOTH",
"240 -12 OFFCURVE",
"267 -35 OFFCURVE",
"340 -35 CURVE SMOOTH",
"408 -35 OFFCURVE",
"460 -20 OFFCURVE",
"506 28 CURVE SMOOTH",
"568 94 OFFCURVE",
"536 177 OFFCURVE",
"515 272 CURVE SMOOTH",
"488 394 OFFCURVE",
"465 538 OFFCURVE",
"360 538 CURVE SMOOTH",
"171 538 OFFCURVE",
"163 403 OFFCURVE",
"139 321 CURVE",
"250 303 LINE",
"277 405 OFFCURVE",
"287 421 OFFCURVE",
"346 421 CURVE SMOOTH",
"374 421 OFFCURVE",
"383 388 OFFCURVE",
"387 225 CURVE SMOOTH",
"391 98 OFFCURVE",
"379 84 OFFCURVE",
"357 84 CURVE SMOOTH",
"344 84 OFFCURVE",
"362 100 OFFCURVE",
"434 206 CURVE SMOOTH",
"523 335 OFFCURVE",
"575 426 OFFCURVE",
"611 426 CURVE SMOOTH",
"630 426 OFFCURVE",
"631 397 OFFCURVE",
"611 321 CURVE",
"724 303 LINE"
);
}
);
userData = {
com.hugojourdan.ColorFlow = {
"0" = 0;
"1" = 0;
"10" = 0;
"11" = 0;
"2" = 0;
"3" = 0;
"4" = 0;
"5" = 0;
"6" = 0;
"7" = 0;
"8" = 0;
"9" = 0;
};
};
width = 696;
}
);
unicode = 0264;
},
{
glyphname = rfishhook;
lastChange = "2025-01-01 22:37:30 +0000";
layers = (
{
anchors = (
{
name = _top_hook;
position = "{139, 66}";
},
{
name = center;
position = "{205, 299}";
}
);
hints = (
{
horizontal = 1;
origin = "{1, 12}";
target = "{1, 13}";
type = TTStem;
options = 4;
}
);
layerId = "BA196CD0-EE58-4274-B8DF-4393D3617A29";
paths = (
{
closed = 1;
nodes = (
"81 4 LINE",
"166 4 LINE",
"272 399 LINE",
"187 399 LINE"
);
},
{
closed = 1;
nodes = (
"257 567 OFFCURVE",
"238 567 OFFCURVE",
"204 455 CURVE SMOOTH",
"188 405 OFFCURVE",
"193 421 OFFCURVE",
"174 351 CURVE",
"256 339 LINE",
"264 370 OFFCURVE",
"271 395 OFFCURVE",
"279 424 CURVE SMOOTH",
"292 472 OFFCURVE",
"301 481 OFFCURVE",
"369 481 CURVE",
"383 566 LINE"
);
}
);
userData = {
com.hugojourdan.ColorFlow = {
"0" = 0;
"1" = 0;
"10" = 0;
"11" = 0;
"2" = 0;
"3" = 0;
"4" = 0;
"5" = 0;
"6" = 0;
"7" = 0;
"8" = 0;
"9" = 0;
};
};
width = 316;
},
{
anchors = (
{
name = _top_hook;
position = "{139, 66}";
},
{
name = center;
position = "{205, 299}";
}
);
layerId = "BBDB329E-CE83-4304-A6B1-53EA5ACC004E";
paths = (
{
closed = 1;
nodes = (
"47 -23 LINE",
"186 -23 LINE",
"306 426 LINE",
"167 426 LINE"
);
},
{
closed = 1;
nodes = (
"244 596 OFFCURVE",
"218 589 OFFCURVE",
"178 459 CURVE SMOOTH",
"161 404 OFFCURVE",
"168 429 OFFCURVE",
"141 327 CURVE",
"275 309 LINE",
"287 356 OFFCURVE",
"295 384 OFFCURVE",
"305 421 CURVE SMOOTH",
"314 457 OFFCURVE",
"308 451 OFFCURVE",
"392 455 CURVE",
"414 593 LINE"
);
}
);
userData = {
com.hugojourdan.ColorFlow = {
"0" = 0;
"1" = 0;
"10" = 0;
"11" = 0;
"2" = 0;
"3" = 0;
"4" = 0;
"5" = 0;
"6" = 0;
"7" = 0;
"8" = 0;
"9" = 0;
};
};
width = 316;
}
);
unicode = 027E;
},
{
glyphname = rlonglegturned;
lastChange = "2025-01-01 22:37:30 +0000";
layers = (
{
anchors = (
{
name = bottom;
position = "{177, -71}";
},
{
name = bottomhook;
position = "{363, 21}";
},
{
name = center;
position = "{448, 286}";
},
{
name = top;
position = "{418, 491}";
},
{
name = top_wide;
position = "{473, 560}";
}
);
hints = (
{
horizontal = 1;
origin = "{0, 7}";
type = Anchor;
options = 4;
}
);
layerId = "BA196CD0-EE58-4274-B8DF-4393D3617A29";
paths = (
{
closed = 1;
nodes = (
"243 17 OFFCURVE",
"273 29 OFFCURVE",
"340 71 CURVE",
"321 15 LINE",
"413 9 LINE",
"474 237 OFFCURVE",
"604 629 OFFCURVE",
"698 825 CURVE",
"480 835 LINE",
"465 671 OFFCURVE",
"388 338 OFFCURVE",
"373 280 CURVE SMOOTH",
"347 183 OFFCURVE",
"302 99 OFFCURVE",
"135 136 CURVE",
"125 11 LINE"
);
}
);
userData = {
com.hugojourdan.ColorFlow = {
"0" = 0;
"1" = 0;
"10" = 0;
"11" = 0;
"2" = 0;
"3" = 0;
"4" = 0;
"5" = 0;
"6" = 0;
"7" = 0;
"8" = 0;
"9" = 0;
};
};
width = 529;
},
{
anchors = (
{
name = bottom;
position = "{142, -71}";
},
{
name = bottomhook;
position = "{352, -20}";
},
{
name = center;
position = "{443, 286}";
},
{
name = top;
position = "{383, 491}";
},
{
name = top_wide;
position = "{485, 560}";
}
);
layerId = "BBDB329E-CE83-4304-A6B1-53EA5ACC004E";
paths = (
{
closed = 1;
nodes = (
"194 -12 OFFCURVE",
"240 -10 OFFCURVE",
"297 19 CURVE",
"283 -7 LINE",
"426 -21 LINE",
"496 238 OFFCURVE",
"598 598 OFFCURVE",
"705 820 CURVE",
"474 838 LINE",
"459 656 OFFCURVE",
"384 377 OFFCURVE",
"370 316 CURVE SMOOTH",
"338 182 OFFCURVE",
"303 100 OFFCURVE",
"97 135 CURVE",
"93 -16 LINE"
);
}
);
userData = {
com.hugojourdan.ColorFlow = {
"0" = 0;
"1" = 0;
"10" = 0;
"11" = 0;
"2" = 0;
"3" = 0;
"4" = 0;
"5" = 0;
"6" = 0;
"7" = 0;
"8" = 0;
"9" = 0;
};
};
width = 539;
}
);
unicode = 027A;
},
{
color = 7;
glyphname = s;
lastChange = "2025-01-02 18:15:32 +0000";
layers = (
{
anchors = (
{
name = _right_el;
position = "{244, 529}";
},
{
name = bottom;
position = "{250, -112}";
},
{
name = bottom_hook;
position = "{84, 35}";
},
{
name = center;
position = "{347, 269}";
},
{
name = t;
position = "{604, 296}";
},
{
name = top;
position = "{457, 626}";
}
);
hints = (
{
horizontal = 1;
origin = "{0, 21}";
target = "{0, 14}";
type = TTStem;
options = 4;
},
{
horizontal = 1;
origin = "{0, 33}";
target = "{0, 2}";
type = TTStem;
options = 4;
}
);
layerId = "BA196CD0-EE58-4274-B8DF-4393D3617A29";
paths = (
{
closed = 1;
nodes = (
"565 559 OFFCURVE",
"509 573 OFFCURVE",
"442 573 CURVE SMOOTH",
"269 573 OFFCURVE",
"216 490 OFFCURVE",
"197 417 CURVE SMOOTH",
"162 286 OFFCURVE",
"279 251 OFFCURVE",
"322 244 CURVE",
"388 230 OFFCURVE",
"440 215 OFFCURVE",
"432 183 CURVE SMOOTH",
"417 126 OFFCURVE",
"346 124 OFFCURVE",
"311 127 CURVE SMOOTH",
"252 132 OFFCURVE",
"229 136 OFFCURVE",
"177 158 CURVE",
"59 52 LINE",
"94 19 OFFCURVE",
"98 -14 OFFCURVE",
"281 -14 CURVE SMOOTH",
"432 -14 OFFCURVE",
"511 11 OFFCURVE",
"548 149 CURVE SMOOTH",
"569 227 OFFCURVE",
"548 273 OFFCURVE",
"397 324 CURVE SMOOTH",
"317 351 OFFCURVE",
"262 377 OFFCURVE",
"270 409 CURVE SMOOTH",
"281 454 OFFCURVE",
"313 497 OFFCURVE",
"442 497 CURVE SMOOTH",
"476 495 OFFCURVE",
"500 498 OFFCURVE",
"560 490 CURVE",
"612 548 LINE"
);
}
);
userData = {
com.hugojourdan.ColorFlow = {
"0" = 0;
"1" = 0;
"10" = 0;
"11" = 0;
"2" = 0;
"3" = 0;
"4" = 0;
"5" = 0;
"6" = 0;
"7" = 0;
"8" = 0;
"9" = 0;
};
};
width = 703;
},
{
anchors = (
{
name = _right_el;
position = "{316, 529}";
},
{
name = bottom;
position = "{311, -199}";
},
{
name = bottom_hook;
position = "{135, 17}";
},
{
name = center;
position = "{453, 288}";
},
{
name = t;
position = "{686, 295}";
},
{
name = top;
position = "{526, 601}";
}
);
layerId = "BBDB329E-CE83-4304-A6B1-53EA5ACC004E";
paths = (
{
closed = 1;
nodes = (
"647 567 OFFCURVE",
"566 579 OFFCURVE",
"513 580 CURVE SMOOTH",
"335 583 OFFCURVE",
"285 520 OFFCURVE",
"267 452 CURVE SMOOTH",
"242 357 OFFCURVE",
"307 287 OFFCURVE",
"392 261 CURVE SMOOTH",
"460 241 OFFCURVE",
"532 250 OFFCURVE",
"496 186 CURVE SMOOTH",
"465 133 OFFCURVE",
"410 134 OFFCURVE",
"374 138 CURVE SMOOTH",
"302 145 OFFCURVE",
"273 165 OFFCURVE",
"249 193 CURVE",
"90 57 LINE",
"138 9 OFFCURVE",
"244 -22 OFFCURVE",
"354 -21 CURVE SMOOTH",
"541 -19 OFFCURVE",
"642 65 OFFCURVE",
"672 158 CURVE SMOOTH",
"682 188 OFFCURVE",
"680 303 OFFCURVE",
"526 346 CURVE SMOOTH",
"455 366 OFFCURVE",
"363 364 OFFCURVE",
"371 413 CURVE SMOOTH",
"383 489 OFFCURVE",
"465 494 OFFCURVE",
"514 489 CURVE SMOOTH",
"558 485 OFFCURVE",
"604 482 OFFCURVE",
"643 456 CURVE",
"693 547 LINE"
);
}
);
userData = {
com.hugojourdan.ColorFlow = {
"0" = 0;
"1" = 0;
"10" = 0;
"11" = 0;
"2" = 0;
"3" = 0;
"4" = 0;
"5" = 0;
"6" = 0;
"7" = 0;
"8" = 0;
"9" = 0;
};
};
width = 855;
}
);
unicode = 0073;
},
{
glyphname = germandbls;
lastChange = "2025-01-01 22:37:30 +0000";
layers = (
{
hints = (
{
horizontal = 1;
origin = "{0, 50}";
type = Anchor;
options = 4;
},
{
horizontal = 1;
origin = "{0, 4}";
target = "{0, 46}";
type = TTStem;
options = 4;
},
{
horizontal = 1;
origin = "{0, 30}";
target = "{0, 23}";
type = TTStem;
options = 4;
}
);
layerId = "BA196CD0-EE58-4274-B8DF-4393D3617A29";
paths = (
{
closed = 1;
nodes = (
"215 0 LINE",
"338 547 LINE",
"381 659 OFFCURVE",
"440 705 OFFCURVE",
"524 705 CURVE SMOOTH",
"598 705 OFFCURVE",
"627 704 OFFCURVE",
"647 585 CURVE",
"503 562 OFFCURVE",
"464 508 OFFCURVE",
"442 426 CURVE SMOOTH",
"428 372 OFFCURVE",
"452 323 OFFCURVE",
"472 285 CURVE",
"506 257 LINE",
"532 237 OFFCURVE",
"549 222 OFFCURVE",
"555 208 CURVE SMOOTH",
"560 194 OFFCURVE",
"560 182 OFFCURVE",
"556 168 CURVE SMOOTH",
"545 128 OFFCURVE",
"493 100 OFFCURVE",
"417 100 CURVE SMOOTH",
"375 100 OFFCURVE",
"333 107 OFFCURVE",
"286 127 CURVE",
"264 12 LINE",
"307 -4 OFFCURVE",
"349 -14 OFFCURVE",
"391 -14 CURVE SMOOTH",
"528 -14 OFFCURVE",
"613 41 OFFCURVE",
"643 153 CURVE SMOOTH",
"661 218 OFFCURVE",
"647 257 OFFCURVE",
"558 326 CURVE SMOOTH",
"535 344 LINE SMOOTH",
"500 372 OFFCURVE",
"492 393 OFFCURVE",
"501 424 CURVE SMOOTH",
"518 487 OFFCURVE",
"591 532 OFFCURVE",
"690 537 CURVE",
"724 677 OFFCURVE",
"667 760 OFFCURVE",
"531 760 CURVE SMOOTH",
"389 760 OFFCURVE",
"294 692 OFFCURVE",
"259 561 CURVE",
"80 0 LINE"
);
}
);
userData = {
com.hugojourdan.ColorFlow = {
"0" = 0;
"1" = 0;
"10" = 0;
"11" = 0;
"2" = 0;
"3" = 0;
"4" = 0;
"5" = 0;
"6" = 0;
"7" = 0;
"8" = 0;
"9" = 0;
};
};
width = 682;
},
{
layerId = "BBDB329E-CE83-4304-A6B1-53EA5ACC004E";
paths = (
{
closed = 1;
nodes = (
"236 -27 LINE",
"364 543 LINE",
"401 637 OFFCURVE",
"448 678 OFFCURVE",
"519 678 CURVE SMOOTH",
"585 678 OFFCURVE",
"601 676 OFFCURVE",
"615 608 CURVE",
"495 579 OFFCURVE",
"443 530 OFFCURVE",
"416 429 CURVE SMOOTH",
"399 364 OFFCURVE",
"431 306 OFFCURVE",
"450 268 CURVE",
"488 236 LINE",
"513 217 OFFCURVE",
"527 205 OFFCURVE",
"532 195 CURVE",
"535 185 OFFCURVE",
"532 179 OFFCURVE",
"530 171 CURVE SMOOTH",
"524 150 OFFCURVE",
"484 127 OFFCURVE",
"422 127 CURVE SMOOTH",
"374 127 OFFCURVE",
"326 136 OFFCURVE",
"266 165 CURVE",
"234 -6 LINE",
"287 -28 OFFCURVE",
"336 -41 OFFCURVE",
"386 -41 CURVE SMOOTH",
"538 -41 OFFCURVE",
"635 23 OFFCURVE",
"669 150 CURVE SMOOTH",
"691 230 OFFCURVE",
"665 277 OFFCURVE",
"577 347 CURVE SMOOTH",
"554 365 LINE SMOOTH",
"524 388 OFFCURVE",
"521 400 OFFCURVE",
"527 421 CURVE SMOOTH",
"539 467 OFFCURVE",
"602 506 OFFCURVE",
"687 510 CURVE",
"710 528 LINE",
"753 688 OFFCURVE",
"687 787 OFFCURVE",
"535 787 CURVE SMOOTH",
"378 787 OFFCURVE",
"272 710 OFFCURVE",
"233 565 CURVE",
"45 -27 LINE"
);
}
);
userData = {
com.hugojourdan.ColorFlow = {
"0" = 0;
"1" = 0;
"10" = 0;
"11" = 0;
"2" = 0;
"3" = 0;
"4" = 0;
"5" = 0;
"6" = 0;
"7" = 0;
"8" = 0;
"9" = 0;
};
};
width = 682;
}
);
unicode = 00DF;
},
{
glyphname = longs;
lastChange = "2025-01-01 22:37:30 +0000";
layers = (
{
anchors = (
{
name = t;
position = "{497, 292}";
}
);
layerId = "BA196CD0-EE58-4274-B8DF-4393D3617A29";
paths = (
{
closed = 1;
nodes = (
"286 0 LINE",
"392 452 LINE",
"396 484 OFFCURVE",
"403 514 OFFCURVE",
"410 541 CURVE SMOOTH",
"441 658 OFFCURVE",
"504 732 OFFCURVE",
"569 732 CURVE SMOOTH",
"593 732 OFFCURVE",
"617 726 OFFCURVE",
"643 707 CURVE",
"654 776 LINE",
"629 797 OFFCURVE",
"598 810 OFFCURVE",
"567 810 CURVE SMOOTH",
"470 810 OFFCURVE",
"364 721 OFFCURVE",
"319 553 CURVE",
"294 458 LINE",
"156 0 LINE"
);
}
);
userData = {
com.hugojourdan.ColorFlow = {
"0" = 0;
"1" = 0;
"10" = 0;
"11" = 0;
"2" = 0;
"3" = 0;
"4" = 0;
"5" = 0;
"6" = 0;
"7" = 0;
"8" = 0;
"9" = 0;
};
};
width = 520;
},
{
anchors = (
{
name = t;
position = "{515, 291}";
}
);
layerId = "BBDB329E-CE83-4304-A6B1-53EA5ACC004E";
paths = (
{
closed = 1;
nodes = (
"305 3 LINE",
"368 278 LINE",
"376 361 OFFCURVE",
"389 427 OFFCURVE",
"404 480 CURVE SMOOTH",
"442 622 OFFCURVE",
"508 677 OFFCURVE",
"570 677 CURVE SMOOTH",
"592 677 OFFCURVE",
"616 674 OFFCURVE",
"639 664 CURVE",
"668 788 LINE",
"609 806 OFFCURVE",
"558 818 OFFCURVE",
"515 818 CURVE SMOOTH",
"405 818 OFFCURVE",
"349 764 OFFCURVE",
"298 613 CURVE",
"257 461 LINE",
"119 3 LINE"
);
}
);
userData = {
com.hugojourdan.ColorFlow = {
"0" = 0;
"1" = 0;
"10" = 0;
"11" = 0;
"2" = 0;
"3" = 0;
"4" = 0;
"5" = 0;
"6" = 0;
"7" = 0;
"8" = 0;
"9" = 0;
};
};
width = 600;
}
);
unicode = 017F;
},
{
color = 7;
glyphname = t;
lastChange = "2025-01-02 18:15:32 +0000";
layers = (
{
anchors = (
{
name = _t;
position = "{88, 295}";
},
{
name = bottom;
position = "{299, -28}";
},
{
name = caron;
position = "{469, 557}";
},
{
name = center;
position = "{323, 341}";
},
{
name = circumflexbelowcomb;
position = "{288, 0}";
},
{
name = curl;
position = "{593, 584}";
},
{
name = top;
position = "{446, 708}";
},
{
name = top_hook;
position = "{380, 602}";
},
{
name = topright;
position = "{665, 500}";
}
);
hints = (
{
horizontal = 1;
origin = "{0, 14}";
target = "{0, 6}";
type = TTStem;
options = 4;
},
{
horizontal = 1;
origin = "{1, 3}";
target = "{1, 2}";
type = TTStem;
options = 4;
}
);
layerId = "BA196CD0-EE58-4274-B8DF-4393D3617A29";
paths = (
{
closed = 1;
nodes = (
"242 0 OFFCURVE",
"418 0 OFFCURVE",
"455 2 CURVE",
"461 130 LINE",
"303 134 OFFCURVE",
"303 126 OFFCURVE",
"330 215 CURVE SMOOTH",
"488 737 LINE",
"370 683 LINE",
"263 377 OFFCURVE",
"173 80 OFFCURVE",
"167 56 CURVE SMOOTH",
"165 49 OFFCURVE",
"161 0 OFFCURVE",
"195 0 CURVE SMOOTH"
);
},
{
closed = 1;
nodes = (
"580 480 LINE",
"580 547 LINE",
"221 547 LINE",
"174 480 LINE"
);
}
);
userData = {
com.hugojourdan.ColorFlow = {
"0" = 0;
"1" = 0;
"10" = 0;
"11" = 0;
"2" = 0;
"3" = 0;
"4" = 0;
"5" = 0;
"6" = 0;
"7" = 0;
"8" = 0;
"9" = 0;
};
};
width = 649;
},
{
anchors = (
{
name = _t;
position = "{171, 295}";
},
{
name = bottom;
position = "{349, -164}";
},
{
name = caron;
position = "{601, 616}";
},
{
name = center;
position = "{387, 318}";
},
{
name = circumflexbelowcomb;
position = "{341, -41}";
},
{
name = curl;
position = "{647, 618}";
},
{
name = top;
position = "{532, 770}";
},
{
name = top_hook;
position = "{483, 664}";
},
{
name = topright;
position = "{735, 500}";
}
);
layerId = "BBDB329E-CE83-4304-A6B1-53EA5ACC004E";
paths = (
{
closed = 1;
nodes = (
"556 155 LINE",
"450 154 OFFCURVE",
"407 155 OFFCURVE",
"393 155 CURVE",
"586 764 LINE",
"424 713 LINE",
"313 391 OFFCURVE",
"241 109 OFFCURVE",
"233 83 CURVE SMOOTH",
"220 36 OFFCURVE",
"224 5 OFFCURVE",
"271 1 CURVE SMOOTH",
"281 0 OFFCURVE",
"404 0 OFFCURVE",
"556 0 CURVE"
);
},
{
closed = 1;
nodes = (
"675 441 LINE",
"676 562 LINE",
"278 562 LINE",
"193 441 LINE"
);
}
);
userData = {
com.hugojourdan.ColorFlow = {
"0" = 0;
"1" = 0;
"10" = 0;
"11" = 0;
"2" = 0;
"3" = 0;
"4" = 0;
"5" = 0;
"6" = 0;
"7" = 0;
"8" = 0;
"9" = 0;
};
};
width = 782;
}
);
unicode = 0074;
},
{
glyphname = tccurl;
lastChange = "2025-01-01 22:37:30 +0000";
layers = (
{
components = (
{
name = t;
transform = "{1, 0, 0, 1, 22, 0}";
},
{
name = ccurl;
transform = "{1, 0, 0, 1, 375, -3}";
}
);
layerId = "BA196CD0-EE58-4274-B8DF-4393D3617A29";
paths = (
{
closed = 1;
nodes = (
"530 480 LINE",
"708 480 LINE",
"806 547 LINE",
"558 547 LINE"
);
}
);
userData = {
com.hugojourdan.ColorFlow = {
"0" = 0;
"1" = 0;
"10" = 0;
"11" = 0;
"2" = 0;
"3" = 0;
"4" = 0;
"5" = 0;
"6" = 0;
"7" = 0;
"8" = 0;
"9" = 0;
};
};
width = 1059;
},
{
components = (
{
name = t;
transform = "{1, 0, 0, 1, 62, 0}";
},
{
name = ccurl;
transform = "{1, 0, 0, 1, 507, 11}";
}
);
layerId = "BBDB329E-CE83-4304-A6B1-53EA5ACC004E";
paths = (
{
closed = 1;
nodes = (
"377 0 LINE",
"709 0 LINE",
"642 155 LINE",
"444 155 LINE"
);
}
);
userData = {
com.hugojourdan.ColorFlow = {
"0" = 0;
"1" = 0;
"10" = 0;
"11" = 0;
"2" = 0;
"3" = 0;
"4" = 0;
"5" = 0;
"6" = 0;
"7" = 0;
"8" = 0;
"9" = 0;
};
};
width = 1214;
}
);
unicode = 02A8;
},
{
glyphname = tesh;
lastChange = "2025-01-01 22:37:30 +0000";
layers = (
{
components = (
{
name = t;
transform = "{1, 0, 0.03492, 1, -19, 0}";
},
{
name = esh;
transform = "{0.97435, 0.22503, -0.22503, 0.97435, 215, -67}";
}
);
hints = (
{
horizontal = 1;
origin = "{0, 0}";
target = "{0, 3}";
type = TTStem;
options = 4;
}
);
layerId = "BA196CD0-EE58-4274-B8DF-4393D3617A29";
paths = (
{
closed = 1;
nodes = (
"573 479 LINE",
"723 479 LINE",
"741 545 LINE",
"591 545 LINE"
);
}
);
userData = {
com.hugojourdan.ColorFlow = {
"0" = 0;
"1" = 0;
"10" = 0;
"11" = 0;
"2" = 0;
"3" = 0;
"4" = 0;
"5" = 0;
"6" = 0;
"7" = 0;
"8" = 0;
"9" = 0;
};
};
width = 921;
},
{
components = (
{
name = t;
transform = "{1, 0, 0.03492, 1, -19, 0}";
},
{
name = esh;
transform = "{0.97435, 0.22503, -0.22503, 0.97435, 215, -67}";
}
);
layerId = "BBDB329E-CE83-4304-A6B1-53EA5ACC004E";
paths = (
{
closed = 1;
nodes = (
"494 440 LINE",
"698 440 LINE",
"730 560 LINE",
"526 560 LINE"
);
}
);
userData = {
com.hugojourdan.ColorFlow = {
"0" = 0;
"1" = 0;
"10" = 0;
"11" = 0;
"2" = 0;
"3" = 0;
"4" = 0;
"5" = 0;
"6" = 0;
"7" = 0;
"8" = 0;
"9" = 0;
};
};
width = 921;
}
);
unicode = 02A7;
},
{
glyphname = tretroflexhook;
lastChange = "2025-01-01 22:37:30 +0000";
layers = (
{
anchors = (
{
name = bottom;
position = "{338, 0}";
},
{
name = caron;
position = "{541, 616}";
},
{
name = center;
position = "{333, 341}";
},
{
name = circumflexbelowcomb;
position = "{340, -25}";
},
{
name = curl;
position = "{603, 584}";
},
{
name = top;
position = "{431, 661}";
},
{
name = top_hook;
position = "{423, 639}";
},
{
name = topright;
position = "{675, 500}";
}
);
hints = (
{
horizontal = 1;
origin = "{1, 10}";
target = "{1, 2}";
type = TTStem;
options = 4;
},
{
horizontal = 1;
origin = "{0, 0}";
target = "{0, 3}";
type = TTStem;
options = 4;
}
);
layerId = "BA196CD0-EE58-4274-B8DF-4393D3617A29";
paths = (
{
closed = 1;
nodes = (
"227 548 LINE",
"633 548 LINE",
"633 615 LINE",
"274 615 LINE"
);
},
{
closed = 1;
nodes = (
"402 11 OFFCURVE",
"331 11 OFFCURVE",
"280 11 CURVE",
"513 737 LINE",
"420 743 LINE",
"332 505 OFFCURVE",
"146 -60 OFFCURVE",
"139 -84 CURVE SMOOTH",
"137 -91 OFFCURVE",
"133 -140 OFFCURVE",
"167 -140 CURVE SMOOTH",
"214 -140 OFFCURVE",
"360 -140 OFFCURVE",
"398 -138 CURVE",
"420 10 LINE"
);
}
);
userData = {
com.hugojourdan.ColorFlow = {
"0" = 0;
"1" = 0;
"10" = 0;
"11" = 0;
"2" = 0;
"3" = 0;
"4" = 0;
"5" = 0;
"6" = 0;
"7" = 0;
"8" = 0;
"9" = 0;
};
};
width = 566;
},
{
anchors = (
{
name = bottom;
position = "{338, 0}";
},
{
name = caron;
position = "{541, 616}";
},
{
name = center;
position = "{333, 341}";
},
{
name = circumflexbelowcomb;
position = "{340, -25}";
},
{
name = curl;
position = "{603, 584}";
},
{
name = top;
position = "{431, 661}";
},
{
name = top_hook;
position = "{423, 639}";
},
{
name = topright;
position = "{675, 500}";
}
);
layerId = "BBDB329E-CE83-4304-A6B1-53EA5ACC004E";
paths = (
{
closed = 1;
nodes = (
"179 521 LINE",
"661 521 LINE",
"661 642 LINE",
"263 642 LINE"
);
},
{
closed = 1;
nodes = (
"411 38 OFFCURVE",
"359 38 OFFCURVE",
"313 38 CURVE",
"549 764 LINE",
"404 773 LINE",
"320 551 OFFCURVE",
"120 -55 OFFCURVE",
"113 -81 CURVE SMOOTH",
"102 -122 OFFCURVE",
"124 -167 OFFCURVE",
"163 -167 CURVE",
"106 -167 OFFCURVE",
"158 -167 OFFCURVE",
"421 -168 CURVE",
"450 36 LINE"
);
}
);
userData = {
com.hugojourdan.ColorFlow = {
"0" = 0;
"1" = 0;
"10" = 0;
"11" = 0;
"2" = 0;
"3" = 0;
"4" = 0;
"5" = 0;
"6" = 0;
"7" = 0;
"8" = 0;
"9" = 0;
};
};
width = 566;
}
);
unicode = 0288;
},
{
glyphname = ts;
lastChange = "2025-01-01 22:37:30 +0000";
layers = (
{
components = (
{
alignment = -1;
name = s;
transform = "{1, 0, 0, 1.0571, 410, -17}";
},
{
alignment = -1;
name = t;
transform = "{0.9315, 0, 0, 1, -23, 0}";
}
);
layerId = "BA196CD0-EE58-4274-B8DF-4393D3617A29";
paths = (
{
closed = 1;
nodes = (
"263 481 LINE",
"621 481 LINE",
"638 546 LINE",
"281 549 LINE"
);
}
);
userData = {
com.hugojourdan.ColorFlow = {
"0" = 0;
"1" = 0;
"10" = 0;
"11" = 0;
"2" = 0;
"3" = 0;
"4" = 0;
"5" = 0;
"6" = 0;
"7" = 0;
"8" = 0;
"9" = 0;
};
};
width = 1069;
},
{
components = (
{
alignment = -1;
name = s;
transform = "{1, 0, 0, 1.0571, 359, 6}";
},
{
alignment = -1;
name = t;
transform = "{0.9315, 0, 0, 1, 5, 0}";
}
);
layerId = "BBDB329E-CE83-4304-A6B1-53EA5ACC004E";
paths = (
{
closed = 1;
nodes = (
"284 441 LINE",
"697 443 LINE",
"728 560 LINE",
"317 563 LINE"
);
}
);
userData = {
com.hugojourdan.ColorFlow = {
"0" = 0;
"1" = 0;
"10" = 0;
"11" = 0;
"2" = 0;
"3" = 0;
"4" = 0;
"5" = 0;
"6" = 0;
"7" = 0;
"8" = 0;
"9" = 0;
};
};
width = 986;
}
);
unicode = 02A6;
},
{
color = 7;
glyphname = u;
lastChange = "2025-01-02 18:15:32 +0000";
layers = (
{
anchors = (
{
name = bottom;
position = "{265, -68}";
},
{
name = bottomleft;
position = "{41, 7}";
},
{
name = center;
position = "{391, 356}";
},
{
name = horn;
position = "{638, 456}";
},
{
name = ogonek;
position = "{478, 5}";
},
{
name = top;
position = "{448, 630}";
},
{
name = topright;
position = "{728, 500}";
}
);
hints = (
{
horizontal = 1;
origin = "{0, 19}";
target = "{0, 10}";
type = TTStem;
options = 4;
},
{
horizontal = 1;
origin = "{0, 3}";
target = "{0, 10}";
type = TTStem;
options = 4;
}
);
layerId = "BA196CD0-EE58-4274-B8DF-4393D3617A29";
paths = (
{
closed = 1;
nodes = (
"316 -16 OFFCURVE",
"399 -11 OFFCURVE",
"457 79 CURVE",
"430 0 LINE",
"539 0 LINE",
"669 560 LINE",
"570 560 LINE",
"496 311 LINE SMOOTH",
"462 195 OFFCURVE",
"444 162 OFFCURVE",
"317 161 CURVE SMOOTH",
"199 160 OFFCURVE",
"218 182 OFFCURVE",
"239 291 CURVE SMOOTH",
"291 560 LINE",
"195 560 LINE",
"126 222 LINE SMOOTH",
"87 33 OFFCURVE",
"135 -16 OFFCURVE",
"258 -16 CURVE SMOOTH"
);
}
);
userData = {
com.hugojourdan.ColorFlow = {
"0" = 0;
"1" = 0;
"10" = 0;
"11" = 0;
"2" = 0;
"3" = 0;
"4" = 0;
"5" = 0;
"6" = 0;
"7" = 0;
"8" = 0;
"9" = 0;
};
};
width = 734;
},
{
anchors = (
{
name = bottom;
position = "{289, -230}";
},
{
name = bottomleft;
position = "{96, -5}";
},
{
name = center;
position = "{444, 356}";
},
{
name = horn;
position = "{735, 521}";
},
{
name = ogonek;
position = "{544, 5}";
},
{
name = top;
position = "{533, 666}";
},
{
name = topright;
position = "{787, 500}";
}
);
layerId = "BBDB329E-CE83-4304-A6B1-53EA5ACC004E";
paths = (
{
closed = 1;
nodes = (
"385 -17 OFFCURVE",
"431 -11 OFFCURVE",
"472 14 CURVE",
"461 0 LINE",
"626 0 LINE",
"758 574 LINE",
"617 574 LINE",
"539 326 LINE",
"490 176 OFFCURVE",
"439 158 OFFCURVE",
"375 166 CURVE SMOOTH",
"297 176 OFFCURVE",
"285 190 OFFCURVE",
"304 290 CURVE SMOOTH",
"358 574 LINE",
"229 574 LINE",
"158 223 LINE SMOOTH",
"125 61 OFFCURVE",
"170 -17 OFFCURVE",
"320 -17 CURVE SMOOTH"
);
}
);
userData = {
com.hugojourdan.ColorFlow = {
"0" = 0;
"1" = 0;
"10" = 0;
"11" = 0;
"2" = 0;
"3" = 0;
"4" = 0;
"5" = 0;
"6" = 0;
"7" = 0;
"8" = 0;
"9" = 0;
};
};
width = 851;
}
);
unicode = 0075;
},
{
color = 7;
glyphname = v;
lastChange = "2025-01-02 18:15:32 +0000";
layers = (
{
anchors = (
{
name = bottom;
position = "{342, 0}";
},
{
name = top;
position = "{537, 592}";
}
);
hints = (
{
horizontal = 1;
origin = "{0, 8}";
type = Anchor;
options = 4;
},
{
horizontal = 1;
origin = "{0, 8}";
target = "{0, 4}";
type = TTStem;
options = 4;
}
);
layerId = "BA196CD0-EE58-4274-B8DF-4393D3617A29";
paths = (
{
closed = 1;
nodes = (
"439 0 LINE",
"498 144 LINE",
"786 547 LINE",
"691 547 LINE",
"391 146 LINE",
"287 547 LINE",
"192 547 LINE",
"266 144 LINE",
"255 0 LINE"
);
}
);
userData = {
com.hugojourdan.ColorFlow = {
"0" = 0;
"1" = 0;
"10" = 0;
"11" = 0;
"2" = 0;
"3" = 0;
"4" = 0;
"5" = 0;
"6" = 0;
"7" = 0;
"8" = 0;
"9" = 0;
};
};
width = 834;
},
{
anchors = (
{
name = bottom;
position = "{414, 0}";
},
{
name = top;
position = "{591, 659}";
}
);
layerId = "BBDB329E-CE83-4304-A6B1-53EA5ACC004E";
paths = (
{
closed = 1;
nodes = (
"535 -1 LINE",
"593 136 LINE",
"907 574 LINE",
"753 574 LINE",
"478 206 LINE",
"382 574 LINE",
"229 574 LINE",
"309 136 LINE",
"305 -1 LINE"
);
}
);
userData = {
com.hugojourdan.ColorFlow = {
"0" = 0;
"1" = 0;
"10" = 0;
"11" = 0;
"2" = 0;
"3" = 0;
"4" = 0;
"5" = 0;
"6" = 0;
"7" = 0;
"8" = 0;
"9" = 0;
};
};
width = 978;
}
);
unicode = 0076;
},
{
glyphname = vhook;
lastChange = "2025-01-01 22:37:30 +0000";
layers = (
{
anchors = (
{
name = _vhook;
position = "{532, 456}";
},
{
name = bottom;
position = "{356, 0}";
},
{
name = horn;
position = "{640, 446}";
},
{
name = ogonek;
position = "{336, -48}";
},
{
name = top;
position = "{479, 506}";
},
{
name = topright;
position = "{742, 500}";
}
);
hints = (
{
horizontal = 1;
origin = "{0, 2}";
target = "{0, 15}";
type = TTStem;
options = 4;
},
{
horizontal = 1;
origin = "{0, 9}";
target = "{0, 8}";
type = TTStem;
options = 4;
}
);
layerId = "BA196CD0-EE58-4274-B8DF-4393D3617A29";
paths = (
{
closed = 1;
nodes = (
"89 33 OFFCURVE",
"170 -16 OFFCURVE",
"293 -16 CURVE SMOOTH",
"499 -16 OFFCURVE",
"522 155 OFFCURVE",
"548 252 CURVE SMOOTH",
"604 463 OFFCURVE",
"646 570 OFFCURVE",
"457 570 CURVE",
"446 495 LINE",
"539 495 OFFCURVE",
"502 416 OFFCURVE",
"487 360 CURVE SMOOTH",
"445 203 OFFCURVE",
"423 140 OFFCURVE",
"326 140 CURVE SMOOTH",
"245 140 OFFCURVE",
"201 134 OFFCURVE",
"243 291 CURVE SMOOTH",
"312 547 LINE",
"227 547 LINE",
"139 222 LINE SMOOTH"
);
}
);
userData = {
com.hugojourdan.ColorFlow = {
"0" = 0;
"1" = 0;
"10" = 0;
"11" = 0;
"2" = 0;
"3" = 0;
"4" = 0;
"5" = 0;
"6" = 0;
"7" = 0;
"8" = 0;
"9" = 0;
};
};
width = 560;
},
{
anchors = (
{
name = _vhook;
position = "{532, 456}";
},
{
name = bottom;
position = "{356, 0}";
},
{
name = horn;
position = "{640, 446}";
},
{
name = ogonek;
position = "{336, -48}";
},
{
name = top;
position = "{479, 506}";
},
{
name = topright;
position = "{742, 500}";
}
);
layerId = "BBDB329E-CE83-4304-A6B1-53EA5ACC004E";
paths = (
{
closed = 1;
nodes = (
"66 47 OFFCURVE",
"125 -43 OFFCURVE",
"289 -43 CURVE SMOOTH",
"525 -43 OFFCURVE",
"548 153 OFFCURVE",
"574 249 CURVE SMOOTH",
"632 466 OFFCURVE",
"687 607 OFFCURVE",
"434 596 CURVE",
"414 467 LINE",
"490 471 OFFCURVE",
"491 475 OFFCURVE",
"461 363 CURVE SMOOTH",
"415 192 OFFCURVE",
"394 167 OFFCURVE",
"330 167 CURVE SMOOTH",
"249 167 OFFCURVE",
"234 158 OFFCURVE",
"269 288 CURVE SMOOTH",
"346 574 LINE",
"207 574 LINE",
"113 225 LINE SMOOTH"
);
}
);
userData = {
com.hugojourdan.ColorFlow = {
"0" = 0;
"1" = 0;
"10" = 0;
"11" = 0;
"2" = 0;
"3" = 0;
"4" = 0;
"5" = 0;
"6" = 0;
"7" = 0;
"8" = 0;
"9" = 0;
};
};
width = 560;
}
);
unicode = 028B;
},
{
color = 7;
glyphname = w;
lastChange = "2025-01-03 19:08:24 +0000";
layers = (
{
anchors = (
{
name = bottom;
position = "{412, 0}";
},
{
name = top;
position = "{590, 663}";
},
{
name = top_hook;
position = "{1055, 475}";
}
);
hints = (
{
horizontal = 1;
origin = "{0, 12}";
type = Anchor;
options = 4;
}
);
layerId = "BA196CD0-EE58-4274-B8DF-4393D3617A29";
paths = (
{
closed = 1;
nodes = (
"309 0 LINE",
"457 169 LINE",
"511 0 LINE",
"636 0 LINE",
"926 547 LINE",
"806 547 LINE",
"633 208 LINE",
"548 393 LINE",
"486 393 LINE",
"303 208 LINE",
"312 547 LINE",
"192 547 LINE",
"188 0 LINE"
);
}
);
userData = {
com.hugojourdan.ColorFlow = {
"0" = 0;
"1" = 0;
"10" = 0;
"11" = 0;
"2" = 0;
"3" = 0;
"4" = 0;
"5" = 0;
"6" = 0;
"7" = 0;
"8" = 0;
"9" = 0;
};
};
width = 974;
},
{
anchors = (
{
name = bottom;
position = "{477, 0}";
},
{
name = top;
position = "{676, 741}";
},
{
name = top_hook;
position = "{1100, 470}";
}
);
layerId = "BBDB329E-CE83-4304-A6B1-53EA5ACC004E";
paths = (
{
closed = 1;
nodes = (
"383 -27 LINE",
"512 132 LINE",
"553 -27 LINE",
"715 -27 LINE",
"1033 574 LINE",
"878 574 LINE",
"695 263 LINE",
"644 450 LINE",
"552 450 LINE",
"389 263 LINE",
"384 574 LINE",
"229 574 LINE",
"225 -27 LINE"
);
}
);
userData = {
com.hugojourdan.ColorFlow = {
"0" = 0;
"1" = 0;
"10" = 0;
"11" = 0;
"2" = 0;
"3" = 0;
"4" = 0;
"5" = 0;
"6" = 0;
"7" = 0;
"8" = 0;
"9" = 0;
};
};
width = 1104;
}
);
unicode = 0077;
},
{
color = 7;
glyphname = x;
lastChange = "2025-01-02 18:15:32 +0000";
layers = (
{
anchors = (
{
name = bottom;
position = "{351, 0}";
},
{
name = top;
position = "{485, 500}";
}
);
hints = (
{
horizontal = 1;
origin = "{0, 3}";
type = Anchor;
options = 4;
}
);
layerId = "BA196CD0-EE58-4274-B8DF-4393D3617A29";
paths = (
{
closed = 1;
nodes = (
"194 0 LINE",
"759 560 LINE",
"648 560 LINE",
"45 0 LINE"
);
},
{
closed = 1;
nodes = (
"630 0 LINE",
"383 560 LINE",
"267 560 LINE",
"480 0 LINE"
);
}
);
userData = {
com.hugojourdan.ColorFlow = {
"0" = 0;
"1" = 0;
"10" = 0;
"11" = 0;
"2" = 0;
"3" = 0;
"4" = 0;
"5" = 0;
"6" = 0;
"7" = 0;
"8" = 0;
"9" = 0;
};
};
width = 825;
},
{
anchors = (
{
name = bottom;
position = "{416, 13}";
},
{
name = top;
position = "{559, 500}";
}
);
layerId = "BBDB329E-CE83-4304-A6B1-53EA5ACC004E";
paths = (
{
closed = 1;
nodes = (
"536 -1 LINE",
"750 -1 LINE",
"463 564 LINE",
"298 564 LINE"
);
},
{
closed = 1;
nodes = (
"75 -1 LINE",
"290 -1 LINE",
"870 564 LINE",
"709 564 LINE"
);
}
);
userData = {
com.hugojourdan.ColorFlow = {
"0" = 0;
"1" = 0;
"10" = 0;
"11" = 0;
"2" = 0;
"3" = 0;
"4" = 0;
"5" = 0;
"6" = 0;
"7" = 0;
"8" = 0;
"9" = 0;
};
};
width = 975;
}
);
leftKerningGroup = Round;
unicode = 0078;
},
{
color = 7;
glyphname = y;
lastChange = "2025-01-03 19:09:13 +0000";
layers = (
{
anchors = (
{
name = bottom;
position = "{220, -329}";
},
{
name = bottomright;
position = "{480, -109}";
},
{
name = top;
position = "{513, 714}";
},
{
name = top_hook;
position = "{872, 336}";
}
);
hints = (
{
horizontal = 1;
origin = "{0, 14}";
target = "{0, 13}";
type = TTStem;
options = 4;
}
);
layerId = "BA196CD0-EE58-4274-B8DF-4393D3617A29";
paths = (
{
closed = 1;
nodes = (
"92 -258 LINE SMOOTH",
"172 -258 OFFCURVE",
"349 -198 OFFCURVE",
"428 -39 CURVE SMOOTH",
"727 560 LINE",
"631 560 LINE",
"412 179 LINE",
"290 560 LINE",
"195 560 LINE",
"311 58 LINE SMOOTH",
"333 -45 OFFCURVE",
"176 -129 OFFCURVE",
"99 -129 CURVE SMOOTH",
"40 -129 LINE",
"6 -258 LINE"
);
}
);
userData = {
com.hugojourdan.ColorFlow = {
"0" = 0;
"1" = 0;
"10" = 0;
"11" = 0;
"2" = 0;
"3" = 0;
"4" = 0;
"5" = 0;
"6" = 0;
"7" = 0;
"8" = 0;
"9" = 0;
};
};
width = 772;
},
{
anchors = (
{
name = bottom;
position = "{366, -28}";
},
{
name = bottomright;
position = "{503, -147}";
},
{
name = top;
position = "{618, 787}";
},
{
name = top_hook;
position = "{934, 304}";
}
);
layerId = "BBDB329E-CE83-4304-A6B1-53EA5ACC004E";
paths = (
{
closed = 1;
nodes = (
"693 562 LINE",
"494 219 LINE",
"384 562 LINE",
"226 562 LINE",
"352 38 LINE SMOOTH",
"370 -42 OFFCURVE",
"246 -112 OFFCURVE",
"180 -112 CURVE SMOOTH",
"97 -112 LINE",
"51 -285 LINE",
"167 -285 LINE SMOOTH",
"288 -285 OFFCURVE",
"391 -219 OFFCURVE",
"448 -122 CURVE SMOOTH",
"845 562 LINE"
);
}
);
userData = {
com.hugojourdan.ColorFlow = {
"0" = 0;
"1" = 0;
"10" = 0;
"11" = 0;
"2" = 0;
"3" = 0;
"4" = 0;
"5" = 0;
"6" = 0;
"7" = 0;
"8" = 0;
"9" = 0;
};
};
width = 919;
}
);
unicode = 0079;
},
{
color = 7;
glyphname = z;
lastChange = "2025-01-02 18:15:32 +0000";
layers = (
{
anchors = (
{
name = _right_el;
position = "{292, 539}";
},
{
name = bottom;
position = "{268, -74}";
},
{
name = bottomhook;
position = "{444, 27}";
},
{
name = center;
position = "{378, 288}";
},
{
name = top;
position = "{482, 627}";
}
);
hints = (
{
horizontal = 1;
origin = "{0, 9}";
target = "{0, 2}";
type = TTStem;
options = 4;
},
{
horizontal = 1;
origin = "{0, 6}";
target = "{0, 5}";
type = TTStem;
options = 4;
}
);
layerId = "BA196CD0-EE58-4274-B8DF-4393D3617A29";
paths = (
{
closed = 1;
nodes = (
"546 0 LINE",
"521 121 LINE",
"256 121 LINE",
"682 470 LINE",
"693 560 LINE",
"279 560 LINE",
"253 464 LINE",
"544 464 LINE",
"104 131 LINE",
"45 0 LINE"
);
}
);
userData = {
com.hugojourdan.ColorFlow = {
"0" = 0;
"1" = 0;
"10" = 0;
"11" = 0;
"2" = 0;
"3" = 0;
"4" = 0;
"5" = 0;
"6" = 0;
"7" = 0;
"8" = 0;
"9" = 0;
};
};
width = 751;
},
{
anchors = (
{
name = _right_el;
position = "{354, 539}";
},
{
name = bottom;
position = "{323, -182}";
},
{
name = bottomhook;
position = "{506, 27}";
},
{
name = center;
position = "{440, 288}";
},
{
name = top;
position = "{573, 682}";
}
);
layerId = "BBDB329E-CE83-4304-A6B1-53EA5ACC004E";
paths = (
{
closed = 1;
nodes = (
"562 455 LINE",
"145 145 LINE",
"75 -1 LINE",
"651 -1 LINE",
"608 148 LINE",
"370 148 LINE",
"774 473 LINE",
"781 576 LINE",
"323 576 LINE",
"291 455 LINE"
);
}
);
userData = {
com.hugojourdan.ColorFlow = {
"0" = 0;
"1" = 0;
"10" = 0;
"11" = 0;
"2" = 0;
"3" = 0;
"4" = 0;
"5" = 0;
"6" = 0;
"7" = 0;
"8" = 0;
"9" = 0;
};
};
width = 876;
}
);
unicode = 007A;
},
{
glyphname = zcurl;
lastChange = "2025-01-01 22:37:30 +0000";
layers = (
{
anchors = (
{
name = _right_el;
position = "{342, 514}";
},
{
name = bottom;
position = "{336, 0}";
},
{
name = center;
position = "{413, 288}";
},
{
name = top;
position = "{496, 547}";
}
);
hints = (
{
horizontal = 1;
origin = "{0, 2}";
target = "{0, 17}";
type = TTStem;
options = 4;
},
{
horizontal = 1;
place = "{175.24, 86.41}";
type = TTStem;
options = 4;
},
{
horizontal = 1;
origin = "{0, 21}";
target = "{0, 20}";
type = TTStem;
options = 4;
}
);
layerId = "BA196CD0-EE58-4274-B8DF-4393D3617A29";
paths = (
{
closed = 1;
nodes = (
"611 482 LINE",
"139 131 LINE",
"80 0 LINE",
"514 0 LINE SMOOTH",
"646 0 OFFCURVE",
"761 218 OFFCURVE",
"632 254 CURVE SMOOTH",
"506 290 OFFCURVE",
"433 187 OFFCURVE",
"333 -187 CURVE",
"429 -199 LINE",
"527 169 OFFCURVE",
"573 196 OFFCURVE",
"595 173 CURVE SMOOTH",
"604 163 OFFCURVE",
"600 121 OFFCURVE",
"507 121 CURVE SMOOTH",
"271 121 LINE",
"720 482 LINE",
"725 549 LINE",
"316 549 LINE",
"298 482 LINE"
);
}
);
userData = {
com.hugojourdan.ColorFlow = {
"0" = 0;
"1" = 0;
"10" = 0;
"11" = 0;
"2" = 0;
"3" = 0;
"4" = 0;
"5" = 0;
"6" = 0;
"7" = 0;
"8" = 0;
"9" = 0;
};
};
width = 726;
},
{
anchors = (
{
name = _right_el;
position = "{342, 514}";
},
{
name = bottom;
position = "{336, 0}";
},
{
name = center;
position = "{413, 288}";
},
{
name = top;
position = "{496, 547}";
}
);
layerId = "BBDB329E-CE83-4304-A6B1-53EA5ACC004E";
paths = (
{
closed = 1;
nodes = (
"535 455 LINE",
"118 145 LINE",
"41 -27 LINE",
"509 -27 LINE SMOOTH",
"679 -27 OFFCURVE",
"795 237 OFFCURVE",
"643 279 CURVE SMOOTH",
"489 323 OFFCURVE",
"405 195 OFFCURVE",
"300 -211 CURVE",
"448 -229 LINE",
"498 -33 OFFCURVE",
"574 155 OFFCURVE",
"575 154 CURVE",
"560 143 OFFCURVE",
"514 148 OFFCURVE",
"511 148 CURVE SMOOTH",
"343 148 LINE",
"747 473 LINE",
"754 576 LINE",
"296 576 LINE",
"264 455 LINE"
);
}
);
userData = {
com.hugojourdan.ColorFlow = {
"0" = 0;
"1" = 0;
"10" = 0;
"11" = 0;
"2" = 0;
"3" = 0;
"4" = 0;
"5" = 0;
"6" = 0;
"7" = 0;
"8" = 0;
"9" = 0;
};
};
width = 792;
}
);
unicode = 0291;
},
{
glyphname = zretroflexhook;
lastChange = "2025-01-01 22:37:30 +0000";
layers = (
{
components = (
{
name = z;
},
{
name = od_hook;
transform = "{1, 0, 0, 1, 359, -322}";
}
);
hints = (
{
horizontal = 1;
origin = "{0, 0}";
target = "{0, 3}";
type = TTStem;
options = 4;
}
);
layerId = "BA196CD0-EE58-4274-B8DF-4393D3617A29";
paths = (
{
closed = 1;
nodes = (
"524 0 LINE",
"667 6 LINE",
"709 142 LINE",
"517 121 LINE"
);
}
);
userData = {
com.hugojourdan.ColorFlow = {
"0" = 0;
"1" = 0;
"10" = 0;
"11" = 0;
"2" = 0;
"3" = 0;
"4" = 0;
"5" = 0;
"6" = 0;
"7" = 0;
"8" = 0;
"9" = 0;
};
};
width = 679;
},
{
components = (
{
name = z;
},
{
name = od_hook;
transform = "{0.99619, -0.08716, 0.08716, 0.99619, 370, -296}";
}
);
layerId = "BBDB329E-CE83-4304-A6B1-53EA5ACC004E";
paths = (
{
closed = 1;
nodes = (
"495 0 LINE",
"727 13 LINE",
"786 164 LINE",
"488 148 LINE"
);
}
);
userData = {
com.hugojourdan.ColorFlow = {
"0" = 0;
"1" = 0;
"10" = 0;
"11" = 0;
"2" = 0;
"3" = 0;
"4" = 0;
"5" = 0;
"6" = 0;
"7" = 0;
"8" = 0;
"9" = 0;
};
};
width = 679;
}
);
unicode = 0290;
},
{
glyphname = saltillo;
lastChange = "2025-01-03 19:09:43 +0000";
layers = (
{
layerId = "BA196CD0-EE58-4274-B8DF-4393D3617A29";
paths = (
{
closed = 1;
nodes = (
"171 336 LINE",
"218 336 LINE",
"369 758 LINE",
"248 758 LINE"
);
}
);
userData = {
com.hugojourdan.ColorFlow = {
"0" = 0;
"1" = 0;
"10" = 0;
"11" = 0;
"2" = 0;
"3" = 0;
"4" = 0;
"5" = 0;
"6" = 0;
"7" = 0;
"8" = 0;
"9" = 0;
};
};
width = 361;
},
{
layerId = "BBDB329E-CE83-4304-A6B1-53EA5ACC004E";
paths = (
{
closed = 1;
nodes = (
"173 309 LINE",
"270 309 LINE",
"440 785 LINE",
"260 785 LINE"
);
}
);
userData = {
com.hugojourdan.ColorFlow = {
"0" = 0;
"1" = 0;
"10" = 0;
"11" = 0;
"2" = 0;
"3" = 0;
"4" = 0;
"5" = 0;
"6" = 0;
"7" = 0;
"8" = 0;
"9" = 0;
};
};
width = 430;
}
);
unicode = A78C;
},
